%FSDAX24Y24*%
%MOIN*%
%SFA1B1*%

%IPPOS*%
%ADD26C,0.010000*%
%ADD108C,0.003900*%
%ADD110C,0.002000*%
%LNde-250624-1*%
%LPD*%
G54D26*
X010000Y010000D02*
X039528D01*
X010000D02*
Y039528D01*
X039528*
Y010000D02*
Y039528D01*
G54D108*
X016753Y031800D02*
X017147D01*
X016950Y031603D02*
Y031997D01*
X016261Y031032D02*
Y032568D01*
X017639Y031032D02*
Y032568D01*
X016261Y031032D02*
X017639D01*
X016261Y032568D02*
X017639D01*
X018627Y031787D02*
X019021D01*
X018824Y031590D02*
Y031983D01*
X018135Y031019D02*
Y032554D01*
X019513Y031019D02*
Y032554D01*
X018135Y031019D02*
X019513D01*
X018135Y032554D02*
X019513D01*
X034450Y027903D02*
Y028297D01*
X034253Y028100D02*
X034647D01*
X033810Y027569D02*
X035090D01*
X033810Y028631D02*
X035090D01*
Y027569D02*
Y028631D01*
X033810Y027569D02*
Y028631D01*
X035153Y033200D02*
X035547D01*
X035350Y033003D02*
Y033397D01*
G54D110*
X033952Y031635D02*
Y034765D01*
X036748Y031635D02*
Y034765D01*
X033952Y031635D02*
X036748D01*
X033952Y034765D02*
X036748D01*
X030361Y026049D02*
Y029651D01*
X033239Y026049D02*
Y029651D01*
X030361D02*
X033239D01*
X030361Y026049D02*
X033239D01*
M02*