%FSDAX24Y24*%
%MOIN*%
%SFA1B1*%

%IPPOS*%
%AMD107*
4,1,8,0.098400,0.200800,-0.098400,0.200800,-0.200800,0.098400,-0.200800,-0.098400,-0.098400,-0.200800,0.098400,-0.200800,0.200800,-0.098400,0.200800,0.098400,0.098400,0.200800,0.0*
1,1,0.204800,0.098400,0.098400*
1,1,0.204800,-0.098400,0.098400*
1,1,0.204800,-0.098400,-0.098400*
1,1,0.204800,0.098400,-0.098400*
%
%ADD99C,0.008000*%
%ADD100C,0.067100*%
%ADD101R,0.067100X0.067100*%
%ADD102C,0.106400*%
%ADD103R,0.067100X0.067100*%
%ADD104C,0.068000*%
%ADD105C,0.038000*%
%ADD106C,0.058000*%
G04~CAMADD=107~8~0.0~0.0~4017.0~4017.0~1024.0~0.0~15~0.0~0.0~0.0~0.0~0~0.0~0.0~0.0~0.0~0~0.0~0.0~0.0~0.0~4017.0~4017.0*
%ADD107D107*%
%LNde-250624-1*%
%LPD*%
G54D99*
X029695Y013927D03*
X011978Y014714D03*
Y012746D03*
X020837Y025082D03*
Y030331D03*
Y035581D03*
Y019833D03*
G54D100*
X011307Y022750D03*
X037300Y029850D03*
Y028850D03*
G54D101*
X015893Y022750D03*
G54D102*
X018000Y020816D03*
Y022784D03*
Y028750D03*
Y026750D03*
Y024750D03*
G54D103*
X037300Y030850D03*
G54D104*
X011050Y036750D03*
X037200Y036500D03*
G54D105*
X033800Y029500D03*
X037400Y035250D03*
X032550Y019950D03*
Y020700D03*
Y021400D03*
X016600Y033550D03*
X018500D03*
X030150Y029350D03*
X032350Y032575D03*
X014150Y028300D03*
X032350Y033100D03*
X038400Y021750D03*
X037600Y020700D03*
X038100D03*
X032350Y034350D03*
Y032050D03*
X035883Y028417D03*
X035300Y027150D03*
X030700Y030750D03*
X035300Y029500D03*
X033650Y028100D03*
G54D106*
X033622Y018328D03*
X020200Y013900D03*
X028709Y019850D03*
Y025100D03*
Y030350D03*
Y035591D03*
X028100Y027350D03*
G54D107*
X033622Y013937D03*
X015906D03*
X024764Y019843D03*
Y025092D03*
Y030341D03*
Y035591D03*
M02*