%FSLAX24Y24*%
%MOIN*%
%SFA1B1*%

%IPPOS*%
%ADD22C,0.010000*%
%ADD102C,0.003900*%
%ADD103C,0.006000*%
%LNde-250624-1*%
%LPD*%
G54D22*
X18787Y26750D02*
D01*
X18785Y26804*
X18779Y26859*
X18769Y26913*
X18756Y26966*
X18739Y27019*
X18718Y27070*
X18694Y27119*
X18667Y27167*
X18636Y27212*
X18602Y27255*
X18566Y27296*
X18526Y27334*
X18484Y27370*
X18440Y27402*
X18393Y27431*
X18344Y27457*
X18294Y27479*
X18243Y27498*
X18190Y27513*
X18136Y27525*
X18082Y27532*
X18027Y27536*
X17972*
X17917Y27532*
X17863Y27525*
X17809Y27513*
X17756Y27498*
X17705Y27479*
X17655Y27457*
X17606Y27431*
X17559Y27402*
X17515Y27370*
X17473Y27334*
X17433Y27296*
X17397Y27255*
X17363Y27212*
X17332Y27167*
X17305Y27119*
X17281Y27070*
X17260Y27019*
X17243Y26966*
X17230Y26913*
X17220Y26859*
X17214Y26804*
X17213Y26750*
X17214Y26695*
X17220Y26640*
X17230Y26586*
X17243Y26533*
X17260Y26480*
X17281Y26429*
X17305Y26380*
X17332Y26332*
X17363Y26287*
X17397Y26244*
X17433Y26203*
X17473Y26165*
X17515Y26129*
X17559Y26097*
X17606Y26068*
X17655Y26042*
X17705Y26020*
X17756Y26001*
X17809Y25986*
X17863Y25974*
X17917Y25967*
X17972Y25963*
X18027*
X18082Y25967*
X18136Y25974*
X18190Y25986*
X18243Y26001*
X18294Y26020*
X18344Y26042*
X18393Y26068*
X18440Y26097*
X18484Y26129*
X18526Y26165*
X18566Y26203*
X18602Y26244*
X18636Y26287*
X18667Y26332*
X18694Y26380*
X18718Y26429*
X18739Y26480*
X18756Y26533*
X18769Y26586*
X18779Y26640*
X18785Y26695*
X18787Y26750*
Y24734D02*
D01*
X18785Y24788*
X18779Y24843*
X18769Y24897*
X18756Y24950*
X18739Y25003*
X18718Y25054*
X18694Y25103*
X18667Y25151*
X18636Y25196*
X18602Y25239*
X18566Y25280*
X18526Y25318*
X18484Y25354*
X18440Y25386*
X18393Y25415*
X18344Y25441*
X18294Y25463*
X18243Y25482*
X18190Y25497*
X18136Y25509*
X18082Y25516*
X18027Y25520*
X17972*
X17917Y25516*
X17863Y25509*
X17809Y25497*
X17756Y25482*
X17705Y25463*
X17655Y25441*
X17606Y25415*
X17559Y25386*
X17515Y25354*
X17473Y25318*
X17433Y25280*
X17397Y25239*
X17363Y25196*
X17332Y25151*
X17305Y25103*
X17281Y25054*
X17260Y25003*
X17243Y24950*
X17230Y24897*
X17220Y24843*
X17214Y24788*
X17213Y24734*
X17214Y24679*
X17220Y24624*
X17230Y24570*
X17243Y24517*
X17260Y24464*
X17281Y24413*
X17305Y24364*
X17332Y24316*
X17363Y24271*
X17397Y24228*
X17433Y24187*
X17473Y24149*
X17515Y24113*
X17559Y24081*
X17606Y24052*
X17655Y24026*
X17705Y24004*
X17756Y23985*
X17809Y23970*
X17863Y23958*
X17917Y23951*
X17972Y23947*
X18027*
X18082Y23951*
X18136Y23958*
X18190Y23970*
X18243Y23985*
X18294Y24004*
X18344Y24026*
X18393Y24052*
X18440Y24081*
X18484Y24113*
X18526Y24149*
X18566Y24187*
X18602Y24228*
X18636Y24271*
X18667Y24316*
X18694Y24364*
X18718Y24413*
X18739Y24464*
X18756Y24517*
X18769Y24570*
X18779Y24624*
X18785Y24679*
X18787Y24734*
Y28734D02*
D01*
X18785Y28788*
X18779Y28843*
X18769Y28897*
X18756Y28950*
X18739Y29003*
X18718Y29054*
X18694Y29103*
X18667Y29151*
X18636Y29196*
X18602Y29239*
X18566Y29280*
X18526Y29318*
X18484Y29354*
X18440Y29386*
X18393Y29415*
X18344Y29441*
X18294Y29463*
X18243Y29482*
X18190Y29497*
X18136Y29509*
X18082Y29516*
X18027Y29520*
X17972*
X17917Y29516*
X17863Y29509*
X17809Y29497*
X17756Y29482*
X17705Y29463*
X17655Y29441*
X17606Y29415*
X17559Y29386*
X17515Y29354*
X17473Y29318*
X17433Y29280*
X17397Y29239*
X17363Y29196*
X17332Y29151*
X17305Y29103*
X17281Y29054*
X17260Y29003*
X17243Y28950*
X17230Y28897*
X17220Y28843*
X17214Y28788*
X17213Y28734*
X17214Y28679*
X17220Y28624*
X17230Y28570*
X17243Y28517*
X17260Y28464*
X17281Y28413*
X17305Y28364*
X17332Y28316*
X17363Y28271*
X17397Y28228*
X17433Y28187*
X17473Y28149*
X17515Y28113*
X17559Y28081*
X17606Y28052*
X17655Y28026*
X17705Y28004*
X17756Y27985*
X17809Y27970*
X17863Y27958*
X17917Y27951*
X17972Y27947*
X18027*
X18082Y27951*
X18136Y27958*
X18190Y27970*
X18243Y27985*
X18294Y28004*
X18344Y28026*
X18393Y28052*
X18440Y28081*
X18484Y28113*
X18526Y28149*
X18566Y28187*
X18602Y28228*
X18636Y28271*
X18667Y28316*
X18694Y28364*
X18718Y28413*
X18739Y28464*
X18756Y28517*
X18769Y28570*
X18779Y28624*
X18785Y28679*
X18787Y28734*
Y22784D02*
D01*
X18785Y22838*
X18779Y22893*
X18769Y22947*
X18756Y23000*
X18739Y23053*
X18718Y23104*
X18694Y23153*
X18667Y23201*
X18636Y23246*
X18602Y23289*
X18566Y23330*
X18526Y23368*
X18484Y23404*
X18440Y23436*
X18393Y23465*
X18344Y23491*
X18294Y23513*
X18243Y23532*
X18190Y23547*
X18136Y23559*
X18082Y23566*
X18027Y23570*
X17972*
X17917Y23566*
X17863Y23559*
X17809Y23547*
X17756Y23532*
X17705Y23513*
X17655Y23491*
X17606Y23465*
X17559Y23436*
X17515Y23404*
X17473Y23368*
X17433Y23330*
X17397Y23289*
X17363Y23246*
X17332Y23201*
X17305Y23153*
X17281Y23104*
X17260Y23053*
X17243Y23000*
X17230Y22947*
X17220Y22893*
X17214Y22838*
X17213Y22784*
X17214Y22729*
X17220Y22674*
X17230Y22620*
X17243Y22567*
X17260Y22514*
X17281Y22463*
X17305Y22414*
X17332Y22366*
X17363Y22321*
X17397Y22278*
X17433Y22237*
X17473Y22199*
X17515Y22163*
X17559Y22131*
X17606Y22102*
X17655Y22076*
X17705Y22054*
X17756Y22035*
X17809Y22020*
X17863Y22008*
X17917Y22001*
X17972Y21997*
X18027*
X18082Y22001*
X18136Y22008*
X18190Y22020*
X18243Y22035*
X18294Y22054*
X18344Y22076*
X18393Y22102*
X18440Y22131*
X18484Y22163*
X18526Y22199*
X18566Y22237*
X18602Y22278*
X18636Y22321*
X18667Y22366*
X18694Y22414*
X18718Y22463*
X18739Y22514*
X18756Y22567*
X18769Y22620*
X18779Y22674*
X18785Y22729*
X18787Y22784*
Y20800D02*
D01*
X18785Y20854*
X18779Y20909*
X18769Y20963*
X18756Y21016*
X18739Y21069*
X18718Y21120*
X18694Y21169*
X18667Y21217*
X18636Y21262*
X18602Y21305*
X18566Y21346*
X18526Y21384*
X18484Y21420*
X18440Y21452*
X18393Y21481*
X18344Y21507*
X18294Y21529*
X18243Y21548*
X18190Y21563*
X18136Y21575*
X18082Y21582*
X18027Y21586*
X17972*
X17917Y21582*
X17863Y21575*
X17809Y21563*
X17756Y21548*
X17705Y21529*
X17655Y21507*
X17606Y21481*
X17559Y21452*
X17515Y21420*
X17473Y21384*
X17433Y21346*
X17397Y21305*
X17363Y21262*
X17332Y21217*
X17305Y21169*
X17281Y21120*
X17260Y21069*
X17243Y21016*
X17230Y20963*
X17220Y20909*
X17214Y20854*
X17213Y20800*
X17214Y20745*
X17220Y20690*
X17230Y20636*
X17243Y20583*
X17260Y20530*
X17281Y20479*
X17305Y20430*
X17332Y20382*
X17363Y20337*
X17397Y20294*
X17433Y20253*
X17473Y20215*
X17515Y20179*
X17559Y20147*
X17606Y20118*
X17655Y20092*
X17705Y20070*
X17756Y20051*
X17809Y20036*
X17863Y20024*
X17917Y20017*
X17972Y20013*
X18027*
X18082Y20017*
X18136Y20024*
X18190Y20036*
X18243Y20051*
X18294Y20070*
X18344Y20092*
X18393Y20118*
X18440Y20147*
X18484Y20179*
X18526Y20215*
X18566Y20253*
X18602Y20294*
X18636Y20337*
X18667Y20382*
X18694Y20430*
X18718Y20479*
X18739Y20530*
X18756Y20583*
X18769Y20636*
X18779Y20690*
X18785Y20745*
X18787Y20800*
X39528Y39628D02*
Y47150D01*
X10000Y39628D02*
Y47150D01*
X26163Y47050D02*
X39528D01*
X10000D02*
X23044D01*
X38928Y47250D02*
X39528Y47050D01*
X38928Y46850D02*
X39528Y47050D01*
X10000D02*
X10600Y46850D01*
X10000Y47050D02*
X10600Y47250D01*
X39628Y10000D02*
X46900D01*
X39678Y39528D02*
X46900D01*
X46800Y10000D02*
Y23044D01*
Y26163D02*
Y39528D01*
Y10000D02*
X47000Y10600D01*
X46600D02*
X46800Y10000D01*
X46600Y38928D02*
X46800Y39528D01*
X47000Y38928*
X33622Y7600D02*
Y11829D01*
X39528Y7600D02*
Y9850D01*
X33622Y7700D02*
X34905D01*
X37924D02*
X39528D01*
X33622D02*
X34222Y7500D01*
X33622Y7700D02*
X34222Y7900D01*
X38928D02*
X39528Y7700D01*
X38928Y7500D02*
X39528Y7700D01*
X29695Y7600D02*
Y13433D01*
X33622Y7600D02*
Y10150D01*
X29695Y7700D02*
X30239D01*
X32758D02*
X33622D01*
X29695D02*
X30295Y7500D01*
X29695Y7700D02*
X30295Y7900D01*
X33022D02*
X33622Y7700D01*
X33022Y7500D02*
X33622Y7700D01*
X24764Y7550D02*
Y17734D01*
X29695Y7550D02*
Y8250D01*
X24764Y7650D02*
X25560D01*
X28579D02*
X29695D01*
X24764D02*
X25364Y7450D01*
X24764Y7650D02*
X25364Y7850D01*
X29095D02*
X29695Y7650D01*
X29095Y7450D02*
X29695Y7650D01*
X20837Y7500D02*
Y19339D01*
X24764Y7500D02*
Y7650D01*
X20837Y7600D02*
X21381D01*
X23900D02*
X24764D01*
X20837D02*
X21437Y7400D01*
X20837Y7600D02*
X21437Y7800D01*
X24164D02*
X24764Y7600D01*
X24164Y7400D02*
X24764Y7600D01*
X15906Y7450D02*
Y11829D01*
X20837Y7450D02*
Y7600D01*
X15906Y7550D02*
X16702D01*
X19721D02*
X20837D01*
X15906D02*
X16506Y7350D01*
X15906Y7550D02*
X16506Y7750D01*
X20237D02*
X20837Y7550D01*
X20237Y7350D02*
X20837Y7550D01*
X11978Y7450D02*
Y12252D01*
X15906Y7450D02*
Y7650D01*
X11978Y7550D02*
X12522D01*
X15042D02*
X15906D01*
X11978D02*
X12579Y7350D01*
X11978Y7550D02*
X12579Y7750D01*
X15306D02*
X15906Y7550D01*
X15306Y7350D02*
X15906Y7550D01*
X10000Y7343D02*
Y9850D01*
X11978Y7343D02*
Y7550D01*
Y7443D02*
X12979D01*
X9000D02*
X10000D01*
X11978D02*
X12579Y7243D01*
X11978Y7443D02*
X12579Y7643D01*
X9400D02*
X10000Y7443D01*
X9400Y7243D02*
X10000Y7443D01*
X6950Y12746D02*
X11485D01*
X6950Y10000D02*
X9850D01*
X7050Y9000D02*
Y10000D01*
Y12746D02*
Y13746D01*
X6850Y9400D02*
X7050Y10000D01*
X7250Y9400*
X7050Y12746D02*
X7250Y13346D01*
X6850D02*
X7050Y12746D01*
X6950Y14714D02*
X11485D01*
X6950Y12746D02*
X9350D01*
X7050Y11746D02*
Y12746D01*
Y14714D02*
Y15714D01*
X6850Y12146D02*
X7050Y12746D01*
X7250Y12146*
X7050Y14714D02*
X7250Y15314D01*
X6850D02*
X7050Y14714D01*
X6950Y19833D02*
X20343D01*
X6950Y14714D02*
X8900D01*
X7050Y18623D02*
Y19833D01*
Y14714D02*
Y15604D01*
X6850Y19233D02*
X7050Y19833D01*
X7250Y19233*
X7050Y14714D02*
X7250Y15314D01*
X6850D02*
X7050Y14714D01*
X6900Y25082D02*
X20343D01*
X6900Y19833D02*
X8250D01*
X7000Y23807D02*
Y25082D01*
Y19833D02*
Y20788D01*
X6800Y24482D02*
X7000Y25082D01*
X7200Y24482*
X7000Y19833D02*
X7200Y20433D01*
X6800D02*
X7000Y19833D01*
X6950Y30331D02*
X20343D01*
X6950Y25082D02*
X20343D01*
X7050Y29056D02*
Y30331D01*
Y25082D02*
Y26037D01*
X6850Y29731D02*
X7050Y30331D01*
X7250Y29731*
X7050Y25082D02*
X7250Y25682D01*
X6850D02*
X7050Y25082D01*
X7000Y35581D02*
X20343D01*
X7000Y30331D02*
X20343D01*
X7100Y34306D02*
Y35581D01*
Y30331D02*
Y31286D01*
X6900Y34981D02*
X7100Y35581D01*
X7300Y34981*
X7100Y30331D02*
X7300Y30931D01*
X6900D02*
X7100Y30331D01*
X7050Y39528D02*
X9850D01*
X7050Y35581D02*
X20343D01*
X7150Y38904D02*
Y39528D01*
Y35581D02*
Y35884D01*
X6950Y38928D02*
X7150Y39528D01*
X7350Y38928*
X7150Y35581D02*
X7350Y36181D01*
X6950D02*
X7150Y35581D01*
X35731Y13937D02*
X42550D01*
X39678Y10000D02*
X42550D01*
X42450Y13318D02*
Y13937D01*
Y10000D02*
Y10299D01*
X42250Y13337D02*
X42450Y13937D01*
X42650Y13337*
X42450Y10000D02*
X42650Y10600D01*
X42250D02*
X42450Y10000D01*
X26872Y19843D02*
X42600D01*
X42450Y13937D02*
X42600D01*
X42500Y18239D02*
Y19843D01*
Y13937D02*
Y15220D01*
X42300Y19243D02*
X42500Y19843D01*
X42700Y19243*
X42500Y13937D02*
X42700Y14537D01*
X42300D02*
X42500Y13937D01*
X26872Y25092D02*
X42600D01*
X42400Y19843D02*
X42600D01*
X42500Y23817D02*
Y25092D01*
Y19843D02*
Y20798D01*
X42300Y24492D02*
X42500Y25092D01*
X42700Y24492*
X42500Y19843D02*
X42700Y20443D01*
X42300D02*
X42500Y19843D01*
X26872Y30341D02*
X42650D01*
X42450Y25092D02*
X42600D01*
X42550Y29066D02*
Y30341D01*
Y25092D02*
Y26047D01*
X42350Y29741D02*
X42550Y30341D01*
X42750Y29741*
X42550Y25092D02*
X42750Y25692D01*
X42350D02*
X42550Y25092D01*
X26872Y35591D02*
X42700D01*
X42550Y30341D02*
X42700D01*
X42600Y34315D02*
Y35591D01*
Y30341D02*
Y31296D01*
X42400Y34991D02*
X42600Y35591D01*
X42800Y34991*
X42600Y30341D02*
X42800Y30941D01*
X42400D02*
X42600Y30341D01*
X42450Y39528D02*
X42750D01*
X42550Y35591D02*
X42700D01*
X42650Y38909D02*
Y39528D01*
Y35591D02*
Y35889D01*
X42450Y38928D02*
X42650Y39528D01*
X42850Y38928*
X42650Y35591D02*
X42850Y36191D01*
X42450D02*
X42650Y35591D01*
X20837Y36074D02*
Y41550D01*
X10000Y39678D02*
Y41550D01*
X16818Y41450D02*
X20837D01*
X10000D02*
X13699D01*
X20237Y41650D02*
X20837Y41450D01*
X20237Y41250D02*
X20837Y41450D01*
X10000D02*
X10600Y41250D01*
X10000Y41450D02*
X10600Y41650D01*
X24764Y37699D02*
Y44150D01*
X10000Y39678D02*
Y44150D01*
X18781Y44050D02*
X24764D01*
X10000D02*
X15662D01*
X24164Y44250D02*
X24764Y44050D01*
X24164Y43850D02*
X24764Y44050D01*
X10000D02*
X10600Y43850D01*
X10000Y44050D02*
X10600Y44250D01*
X15900Y4200D02*
Y8750D01*
X10000Y4200D02*
Y9850D01*
X14300Y4300D02*
X15900D01*
X10000D02*
X11280D01*
X15300Y4500D02*
X15900Y4300D01*
X15300Y4100D02*
X15900Y4300D01*
X10000D02*
X10600Y4100D01*
X10000Y4300D02*
X10600Y4500D01*
X33622Y1150D02*
Y11829D01*
X10000Y1150D02*
Y5000D01*
X23211Y1250D02*
X33622D01*
X10000D02*
X20091D01*
X33022Y1450D02*
X33622Y1250D01*
X33022Y1050D02*
X33622Y1250D01*
X10000D02*
X10600Y1050D01*
X10000Y1250D02*
X10600Y1450D01*
X29695Y2750D02*
Y13433D01*
X10000Y2750D02*
Y8700D01*
X21247Y2850D02*
X29695D01*
X10000D02*
X18128D01*
X29095Y3050D02*
X29695Y2850D01*
X29095Y2650D02*
X29695Y2850D01*
X10000D02*
X10600Y2650D01*
X10000Y2850D02*
X10600Y3050D01*
X17550Y26150D02*
X18600Y27200D01*
X17350Y26350D02*
X18400Y27400D01*
X17400Y25200D02*
X18450Y24150D01*
X17575Y25375D02*
X18650Y24300D01*
X17400Y29200D02*
X18450Y28150D01*
X17575Y29375D02*
X18650Y28300D01*
X17350Y20400D02*
X18400Y21450D01*
X18600Y21250D02*
X18650D01*
X17550Y20200D02*
X18600Y21250D01*
X17575Y23425D02*
X18650Y22350D01*
X17400Y23250D02*
X18450Y22200D01*
G54D102*
X20748Y35591D02*
X20906D01*
X20827Y35512D02*
Y35669D01*
X20748Y30341D02*
X20906D01*
X20827Y30263D02*
Y30420D01*
X20748Y25092D02*
X20906D01*
X20827Y25013D02*
Y25170D01*
X20748Y19843D02*
X20906D01*
X20827Y19764D02*
Y19921D01*
X11890Y12756D02*
X12047D01*
X11968Y12677D02*
Y12835D01*
X11890Y14724D02*
X12047D01*
X11968Y14646D02*
Y14803D01*
X29606Y13937D02*
X29764D01*
X29685Y13858D02*
Y14016D01*
G54D103*
X23204Y47190D02*
X23604D01*
Y47090*
X23204Y46690*
Y46590*
X24204Y47190D02*
X23804D01*
Y46890*
X24004Y46990*
X24104*
X24204Y46890*
Y46690*
X24104Y46590*
X23904*
X23804Y46690*
X24504Y46490D02*
X24604Y46590D01*
Y46690*
X24504*
Y46590*
X24604*
X24504Y46490*
X24404Y46390*
X25004Y47090D02*
X25104Y47190D01*
X25304*
X25404Y47090*
Y46690*
X25304Y46590*
X25104*
X25004Y46690*
Y47090*
X25603D02*
X25703Y47190D01*
X25903*
X26003Y47090*
Y46690*
X25903Y46590*
X25703*
X25603Y46690*
Y47090*
X46660Y23204D02*
Y23604D01*
X46760*
X47160Y23204*
X47260*
X46660Y24204D02*
Y23804D01*
X46960*
X46860Y24004*
Y24104*
X46960Y24204*
X47160*
X47260Y24104*
Y23904*
X47160Y23804*
X47360Y24504D02*
X47260Y24604D01*
X47160*
Y24504*
X47260*
Y24604*
X47360Y24504*
X47460Y24404*
X46760Y25004D02*
X46660Y25104D01*
Y25304*
X46760Y25404*
X47160*
X47260Y25304*
Y25104*
X47160Y25004*
X46760*
Y25603D02*
X46660Y25703D01*
Y25903*
X46760Y26003*
X47160*
X47260Y25903*
Y25703*
X47160Y25603*
X46760*
X35065Y7240D02*
X35265D01*
X35165*
Y7840*
X35065Y7740*
X35965Y7840D02*
X35565D01*
Y7540*
X35765Y7640*
X35865*
X35965Y7540*
Y7340*
X35865Y7240*
X35665*
X35565Y7340*
X36265Y7140D02*
X36365Y7240D01*
Y7340*
X36265*
Y7240*
X36365*
X36265Y7140*
X36165Y7040*
X36765Y7740D02*
X36865Y7840D01*
X37065*
X37165Y7740*
Y7340*
X37065Y7240*
X36865*
X36765Y7340*
Y7740*
X37364D02*
X37464Y7840D01*
X37664*
X37764Y7740*
Y7340*
X37664Y7240*
X37464*
X37364Y7340*
Y7740*
X30399Y7340D02*
X30499Y7240D01*
X30699*
X30799Y7340*
Y7740*
X30699Y7840*
X30499*
X30399Y7740*
Y7640*
X30499Y7540*
X30799*
X31099Y7140D02*
X31199Y7240D01*
Y7340*
X31099*
Y7240*
X31199*
X31099Y7140*
X30999Y7040*
X31599Y7340D02*
X31698Y7240D01*
X31898*
X31998Y7340*
Y7740*
X31898Y7840*
X31698*
X31599Y7740*
Y7640*
X31698Y7540*
X31998*
X32198Y7840D02*
X32598D01*
Y7740*
X32198Y7340*
Y7240*
X25720Y7190D02*
X25920D01*
X25820*
Y7790*
X25720Y7690*
X26620Y7190D02*
X26220D01*
X26620Y7590*
Y7690*
X26520Y7790*
X26320*
X26220Y7690*
X26919Y7090D02*
X27019Y7190D01*
Y7290*
X26919*
Y7190*
X27019*
X26919Y7090*
X26819Y6990*
X27819Y7790D02*
X27419D01*
Y7490*
X27619Y7590*
X27719*
X27819Y7490*
Y7290*
X27719Y7190*
X27519*
X27419Y7290*
X28019Y7690D02*
X28119Y7790D01*
X28319*
X28419Y7690*
Y7590*
X28319Y7490*
X28219*
X28319*
X28419Y7390*
Y7290*
X28319Y7190*
X28119*
X28019Y7290*
X21541Y7240D02*
X21641Y7140D01*
X21841*
X21941Y7240*
Y7640*
X21841Y7740*
X21641*
X21541Y7640*
Y7540*
X21641Y7440*
X21941*
X22240Y7040D02*
X22340Y7140D01*
Y7240*
X22240*
Y7140*
X22340*
X22240Y7040*
X22140Y6940*
X22740Y7240D02*
X22840Y7140D01*
X23040*
X23140Y7240*
Y7640*
X23040Y7740*
X22840*
X22740Y7640*
Y7540*
X22840Y7440*
X23140*
X23340Y7740D02*
X23740D01*
Y7640*
X23340Y7240*
Y7140*
X16862Y7090D02*
X17062D01*
X16962*
Y7690*
X16862Y7590*
X17761Y7090D02*
X17361D01*
X17761Y7490*
Y7590*
X17661Y7690*
X17461*
X17361Y7590*
X18061Y6990D02*
X18161Y7090D01*
Y7190*
X18061*
Y7090*
X18161*
X18061Y6990*
X17961Y6890*
X18961Y7690D02*
X18561D01*
Y7390*
X18761Y7490*
X18861*
X18961Y7390*
Y7190*
X18861Y7090*
X18661*
X18561Y7190*
X19161Y7590D02*
X19261Y7690D01*
X19461*
X19561Y7590*
Y7490*
X19461Y7390*
X19361*
X19461*
X19561Y7290*
Y7190*
X19461Y7090*
X19261*
X19161Y7190*
X12682D02*
X12782Y7090D01*
X12982*
X13082Y7190*
Y7590*
X12982Y7690*
X12782*
X12682Y7590*
Y7490*
X12782Y7390*
X13082*
X13382Y6990D02*
X13482Y7090D01*
Y7190*
X13382*
Y7090*
X13482*
X13382Y6990*
X13282Y6890*
X13882Y7190D02*
X13982Y7090D01*
X14182*
X14282Y7190*
Y7590*
X14182Y7690*
X13982*
X13882Y7590*
Y7490*
X13982Y7390*
X14282*
X14482Y7690D02*
X14882D01*
Y7590*
X14482Y7190*
Y7090*
X10129Y6203D02*
X9730D01*
Y5903*
X9930Y6003*
X10030*
X10129Y5903*
Y5703*
X10030Y5603*
X9830*
X9730Y5703*
X10429Y5503D02*
X10529Y5603D01*
Y5703*
X10429*
Y5603*
X10529*
X10429Y5503*
X10329Y5403*
X10929Y6103D02*
X11029Y6203D01*
X11229*
X11329Y6103*
Y5703*
X11229Y5603*
X11029*
X10929Y5703*
Y6103*
X11529D02*
X11629Y6203D01*
X11829*
X11929Y6103*
Y6003*
X11829Y5903*
X11729*
X11829*
X11929Y5803*
Y5703*
X11829Y5603*
X11629*
X11529Y5703*
X5828Y10662D02*
X5907Y10505D01*
X6064Y10347*
X6222*
X6300Y10426*
Y10583*
X6222Y10662*
X6143*
X6064Y10583*
Y10347*
X6379Y10898D02*
X6300Y10977D01*
X6222*
Y10898*
X6300*
Y10977*
X6379Y10898*
X6458Y10819*
X6222Y11292D02*
X6300Y11370D01*
Y11528*
X6222Y11607*
X5907*
X5828Y11528*
Y11370*
X5907Y11292*
X5985*
X6064Y11370*
Y11607*
X5828Y11764D02*
Y12079D01*
X5907*
X6222Y11764*
X6300*
X5828Y13019D02*
Y12704D01*
X6064*
X5985Y12862*
Y12940*
X6064Y13019*
X6222*
X6300Y12940*
Y12783*
X6222Y12704*
X6379Y13255D02*
X6300Y13334D01*
X6222*
Y13255*
X6300*
Y13334*
X6379Y13255*
X6458Y13177*
X5907Y13649D02*
X5828Y13728D01*
Y13885*
X5907Y13964*
X6222*
X6300Y13885*
Y13728*
X6222Y13649*
X5907*
Y14121D02*
X5828Y14200D01*
Y14357*
X5907Y14436*
X6222*
X6300Y14357*
Y14200*
X6222Y14121*
X5907*
X7510Y15764D02*
Y15964D01*
Y15864*
X6910*
X7010Y15764*
Y16264D02*
X6910Y16364D01*
Y16564*
X7010Y16664*
X7110*
X7210Y16564*
Y16464*
Y16564*
X7310Y16664*
X7410*
X7510Y16564*
Y16364*
X7410Y16264*
X7610Y16964D02*
X7510Y17063D01*
X7410*
Y16964*
X7510*
Y17063*
X7610Y16964*
X7710Y16864*
X7010Y17463D02*
X6910Y17563D01*
Y17763*
X7010Y17863*
X7410*
X7510Y17763*
Y17563*
X7410Y17463*
X7010*
Y18063D02*
X6910Y18163D01*
Y18363*
X7010Y18463*
X7410*
X7510Y18363*
Y18163*
X7410Y18063*
X7010*
X7460Y20948D02*
Y21147D01*
Y21048*
X6860*
X6960Y20948*
Y21447D02*
X6860Y21547D01*
Y21747*
X6960Y21847*
X7060*
X7160Y21747*
Y21647*
Y21747*
X7260Y21847*
X7360*
X7460Y21747*
Y21547*
X7360Y21447*
X7560Y22147D02*
X7460Y22247D01*
X7360*
Y22147*
X7460*
Y22247*
X7560Y22147*
X7660Y22047*
X6960Y22647D02*
X6860Y22747D01*
Y22947*
X6960Y23047*
X7060*
X7160Y22947*
Y22847*
Y22947*
X7260Y23047*
X7360*
X7460Y22947*
Y22747*
X7360Y22647*
X6960Y23247D02*
X6860Y23347D01*
Y23547*
X6960Y23647*
X7060*
X7160Y23547*
Y23447*
Y23547*
X7260Y23647*
X7360*
X7460Y23547*
Y23347*
X7360Y23247*
X7510Y26197D02*
Y26397D01*
Y26297*
X6910*
X7010Y26197*
Y26697D02*
X6910Y26797D01*
Y26997*
X7010Y27097*
X7110*
X7210Y26997*
Y26897*
Y26997*
X7310Y27097*
X7410*
X7510Y26997*
Y26797*
X7410Y26697*
X7610Y27397D02*
X7510Y27497D01*
X7410*
Y27397*
X7510*
Y27497*
X7610Y27397*
X7710Y27297*
X7010Y27896D02*
X6910Y27996D01*
Y28196*
X7010Y28296*
X7110*
X7210Y28196*
Y28096*
Y28196*
X7310Y28296*
X7410*
X7510Y28196*
Y27996*
X7410Y27896*
X7010Y28496D02*
X6910Y28596D01*
Y28796*
X7010Y28896*
X7110*
X7210Y28796*
Y28696*
Y28796*
X7310Y28896*
X7410*
X7510Y28796*
Y28596*
X7410Y28496*
X7560Y31446D02*
Y31646D01*
Y31546*
X6960*
X7060Y31446*
Y31946D02*
X6960Y32046D01*
Y32246*
X7060Y32346*
X7160*
X7260Y32246*
Y32146*
Y32246*
X7360Y32346*
X7460*
X7560Y32246*
Y32046*
X7460Y31946*
X7660Y32646D02*
X7560Y32746D01*
X7460*
Y32646*
X7560*
Y32746*
X7660Y32646*
X7760Y32546*
X7060Y33146D02*
X6960Y33246D01*
Y33446*
X7060Y33546*
X7160*
X7260Y33446*
Y33346*
Y33446*
X7360Y33546*
X7460*
X7560Y33446*
Y33246*
X7460Y33146*
X7060Y33746D02*
X6960Y33846D01*
Y34046*
X7060Y34146*
X7160*
X7260Y34046*
Y33946*
Y34046*
X7360Y34146*
X7460*
X7560Y34046*
Y33846*
X7460Y33746*
X7610Y36044D02*
Y36244D01*
Y36144*
X7010*
X7110Y36044*
Y36544D02*
X7010Y36644D01*
Y36844*
X7110Y36944*
X7510*
X7610Y36844*
Y36644*
X7510Y36544*
X7110*
X7710Y37244D02*
X7610Y37344D01*
X7510*
Y37244*
X7610*
Y37344*
X7710Y37244*
X7810Y37144*
X7110Y37744D02*
X7010Y37844D01*
Y38044*
X7110Y38144*
X7510*
X7610Y38044*
Y37844*
X7510Y37744*
X7110*
Y38344D02*
X7010Y38444D01*
Y38644*
X7110Y38744*
X7210*
X7310Y38644*
Y38544*
Y38644*
X7410Y38744*
X7510*
X7610Y38644*
Y38444*
X7510Y38344*
X42910Y10459D02*
Y10659D01*
Y10559*
X42310*
X42410Y10459*
Y10959D02*
X42310Y11059D01*
Y11259*
X42410Y11359*
X42810*
X42910Y11259*
Y11059*
X42810Y10959*
X42410*
X43010Y11659D02*
X42910Y11759D01*
X42810*
Y11659*
X42910*
Y11759*
X43010Y11659*
X43110Y11559*
X42410Y12158D02*
X42310Y12258D01*
Y12458*
X42410Y12558*
X42810*
X42910Y12458*
Y12258*
X42810Y12158*
X42410*
Y12758D02*
X42310Y12858D01*
Y13058*
X42410Y13158*
X42810*
X42910Y13058*
Y12858*
X42810Y12758*
X42410*
X42960Y15380D02*
Y15580D01*
Y15480*
X42360*
X42460Y15380*
X42360Y16280D02*
Y15880D01*
X42660*
X42560Y16080*
Y16180*
X42660Y16280*
X42860*
X42960Y16180*
Y15980*
X42860Y15880*
X43060Y16580D02*
X42960Y16680D01*
X42860*
Y16580*
X42960*
Y16680*
X43060Y16580*
X43160Y16480*
X42460Y17080D02*
X42360Y17180D01*
Y17380*
X42460Y17480*
X42860*
X42960Y17380*
Y17180*
X42860Y17080*
X42460*
Y17679D02*
X42360Y17779D01*
Y17979*
X42460Y18079*
X42860*
X42960Y17979*
Y17779*
X42860Y17679*
X42460*
X42960Y20958D02*
Y21158D01*
Y21058*
X42360*
X42460Y20958*
Y21457D02*
X42360Y21557D01*
Y21757*
X42460Y21857*
X42560*
X42660Y21757*
Y21657*
Y21757*
X42760Y21857*
X42860*
X42960Y21757*
Y21557*
X42860Y21457*
X43060Y22157D02*
X42960Y22257D01*
X42860*
Y22157*
X42960*
Y22257*
X43060Y22157*
X43160Y22057*
X42460Y22657D02*
X42360Y22757D01*
Y22957*
X42460Y23057*
X42560*
X42660Y22957*
Y22857*
Y22957*
X42760Y23057*
X42860*
X42960Y22957*
Y22757*
X42860Y22657*
X42460Y23257D02*
X42360Y23357D01*
Y23557*
X42460Y23657*
X42560*
X42660Y23557*
Y23457*
Y23557*
X42760Y23657*
X42860*
X42960Y23557*
Y23357*
X42860Y23257*
X43010Y26207D02*
Y26407D01*
Y26307*
X42410*
X42510Y26207*
Y26707D02*
X42410Y26807D01*
Y27007*
X42510Y27107*
X42610*
X42710Y27007*
Y26907*
Y27007*
X42810Y27107*
X42910*
X43010Y27007*
Y26807*
X42910Y26707*
X43110Y27407D02*
X43010Y27507D01*
X42910*
Y27407*
X43010*
Y27507*
X43110Y27407*
X43210Y27307*
X42510Y27906D02*
X42410Y28006D01*
Y28206*
X42510Y28306*
X42610*
X42710Y28206*
Y28106*
Y28206*
X42810Y28306*
X42910*
X43010Y28206*
Y28006*
X42910Y27906*
X42510Y28506D02*
X42410Y28606D01*
Y28806*
X42510Y28906*
X42610*
X42710Y28806*
Y28706*
Y28806*
X42810Y28906*
X42910*
X43010Y28806*
Y28606*
X42910Y28506*
X43060Y31456D02*
Y31656D01*
Y31556*
X42460*
X42560Y31456*
Y31956D02*
X42460Y32056D01*
Y32256*
X42560Y32356*
X42660*
X42760Y32256*
Y32156*
Y32256*
X42860Y32356*
X42960*
X43060Y32256*
Y32056*
X42960Y31956*
X43160Y32656D02*
X43060Y32756D01*
X42960*
Y32656*
X43060*
Y32756*
X43160Y32656*
X43260Y32556*
X42560Y33156D02*
X42460Y33256D01*
Y33456*
X42560Y33556*
X42660*
X42760Y33456*
Y33356*
Y33456*
X42860Y33556*
X42960*
X43060Y33456*
Y33256*
X42960Y33156*
X42560Y33756D02*
X42460Y33856D01*
Y34055*
X42560Y34155*
X42660*
X42760Y34055*
Y33956*
Y34055*
X42860Y34155*
X42960*
X43060Y34055*
Y33856*
X42960Y33756*
X43110Y36049D02*
Y36249D01*
Y36149*
X42510*
X42610Y36049*
Y36549D02*
X42510Y36649D01*
Y36849*
X42610Y36949*
X43010*
X43110Y36849*
Y36649*
X43010Y36549*
X42610*
X43210Y37249D02*
X43110Y37349D01*
X43010*
Y37249*
X43110*
Y37349*
X43210Y37249*
X43310Y37149*
X42610Y37749D02*
X42510Y37849D01*
Y38049*
X42610Y38149*
X43010*
X43110Y38049*
Y37849*
X43010Y37749*
X42610*
Y38349D02*
X42510Y38449D01*
Y38649*
X42610Y38749*
X43010*
X43110Y38649*
Y38449*
X43010Y38349*
X42610*
X14259Y40990D02*
X13859D01*
X14259Y41390*
Y41490*
X14159Y41590*
X13959*
X13859Y41490*
X14459Y41590D02*
X14859D01*
Y41490*
X14459Y41090*
Y40990*
X15158Y40890D02*
X15258Y40990D01*
Y41090*
X15158*
Y40990*
X15258*
X15158Y40890*
X15058Y40790*
X16058Y41590D02*
X15658D01*
Y41290*
X15858Y41390*
X15958*
X16058Y41290*
Y41090*
X15958Y40990*
X15758*
X15658Y41090*
X16658Y40990D02*
X16258D01*
X16658Y41390*
Y41490*
X16558Y41590*
X16358*
X16258Y41490*
X15822Y44090D02*
X15922Y44190D01*
X16122*
X16222Y44090*
Y43990*
X16122Y43890*
X16022*
X16122*
X16222Y43790*
Y43690*
X16122Y43590*
X15922*
X15822Y43690*
X16422Y44190D02*
X16822D01*
Y44090*
X16422Y43690*
Y43590*
X17122Y43490D02*
X17222Y43590D01*
Y43690*
X17122*
Y43590*
X17222*
X17122Y43490*
X17022Y43390*
X18022Y44190D02*
X17622D01*
Y43890*
X17822Y43990*
X17922*
X18022Y43890*
Y43690*
X17922Y43590*
X17722*
X17622Y43690*
X18222Y44090D02*
X18322Y44190D01*
X18521*
X18621Y44090*
Y43690*
X18521Y43590*
X18322*
X18222Y43690*
Y44090*
X11440Y3840D02*
X11640D01*
X11540*
Y4440*
X11440Y4340*
X12240Y3840D02*
Y4440D01*
X11940Y4140*
X12340*
X12640Y3740D02*
X12740Y3840D01*
Y3940*
X12640*
Y3840*
X12740*
X12640Y3740*
X12540Y3640*
X13140Y3940D02*
X13240Y3840D01*
X13440*
X13540Y3940*
Y4340*
X13440Y4440*
X13240*
X13140Y4340*
Y4240*
X13240Y4140*
X13540*
X13740Y3940D02*
X13840Y3840D01*
X14040*
X14140Y3940*
Y4340*
X14040Y4440*
X13840*
X13740Y4340*
Y4240*
X13840Y4140*
X14140*
X20651Y1390D02*
X20451Y1290D01*
X20251Y1090*
Y890*
X20351Y790*
X20551*
X20651Y890*
Y990*
X20551Y1090*
X20251*
X20851Y1290D02*
X20951Y1390D01*
X21151*
X21251Y1290*
Y890*
X21151Y790*
X20951*
X20851Y890*
Y1290*
X21551Y690D02*
X21651Y790D01*
Y890*
X21551*
Y790*
X21651*
X21551Y690*
X21451Y590*
X22051Y1290D02*
X22151Y1390D01*
X22351*
X22451Y1290*
Y890*
X22351Y790*
X22151*
X22051Y890*
Y1290*
X22651D02*
X22751Y1390D01*
X22951*
X23051Y1290*
Y890*
X22951Y790*
X22751*
X22651Y890*
Y1290*
X18688Y2990D02*
X18288D01*
Y2690*
X18488Y2790*
X18588*
X18688Y2690*
Y2490*
X18588Y2390*
X18388*
X18288Y2490*
X18888Y2890D02*
X18988Y2990D01*
X19188*
X19288Y2890*
Y2490*
X19188Y2390*
X18988*
X18888Y2490*
Y2890*
X19588Y2290D02*
X19688Y2390D01*
Y2490*
X19588*
Y2390*
X19688*
X19588Y2290*
X19488Y2190*
X20087Y2890D02*
X20187Y2990D01*
X20387*
X20487Y2890*
Y2490*
X20387Y2390*
X20187*
X20087Y2490*
Y2890*
X21087Y2390D02*
X20687D01*
X21087Y2790*
Y2890*
X20987Y2990*
X20787*
X20687Y2890*
M02*