%FSDAX24Y24*%
%MOIN*%
%SFA1B1*%

%IPPOS*%
%ADD111C,0.002000*%
%LNde-250624-1*%
%LPD*%
G54D111*
X029301Y013927D02*
X030089D01*
X029695Y013533D02*
Y014321D01*
X011585Y014714D02*
X012372D01*
X011978Y014321D02*
Y015108D01*
X011585Y012746D02*
X012372D01*
X011978Y012352D02*
Y013140D01*
X020443Y025082D02*
X021230D01*
X020837Y024688D02*
Y025475D01*
X020443Y030331D02*
X021230D01*
X020837Y029938D02*
Y030725D01*
X020443Y035581D02*
X021230D01*
X020837Y035187D02*
Y035974D01*
X011130Y022750D02*
X011484D01*
X011307Y022573D02*
Y022927D01*
X015716Y022750D02*
X016070D01*
X015893Y022573D02*
Y022927D01*
X017803Y020816D02*
X018197D01*
X018000Y020619D02*
Y021013D01*
X017803Y022784D02*
X018197D01*
X018000Y022587D02*
Y022981D01*
X017803Y028750D02*
X018197D01*
X018000Y028553D02*
Y028947D01*
X017803Y026750D02*
X018197D01*
X018000Y026553D02*
Y026947D01*
X017803Y024750D02*
X018197D01*
X018000Y024553D02*
Y024947D01*
X037123Y030850D02*
X037477D01*
X037300Y030673D02*
Y031027D01*
X037123Y029850D02*
X037477D01*
X037300Y029673D02*
Y030027D01*
X037123Y028850D02*
X037477D01*
X037300Y028673D02*
Y029027D01*
X020443Y019833D02*
X021230D01*
X020837Y019439D02*
Y020226D01*
X033750Y029500D02*
X033850D01*
X033800Y029450D02*
Y029550D01*
X037350Y035250D02*
X037450D01*
X037400Y035200D02*
Y035300D01*
X032500Y019950D02*
X032600D01*
X032550Y019900D02*
Y020000D01*
X032500Y020700D02*
X032600D01*
X032550Y020650D02*
Y020750D01*
X032500Y021400D02*
X032600D01*
X032550Y021350D02*
Y021450D01*
X016550Y033550D02*
X016650D01*
X016600Y033500D02*
Y033600D01*
X018450Y033550D02*
X018550D01*
X018500Y033500D02*
Y033600D01*
X030100Y029350D02*
X030200D01*
X030150Y029300D02*
Y029400D01*
X032300Y032575D02*
X032400D01*
X032350Y032525D02*
Y032625D01*
X014100Y028300D02*
X014200D01*
X014150Y028250D02*
Y028350D01*
X032300Y033100D02*
X032400D01*
X032350Y033050D02*
Y033150D01*
X038350Y021750D02*
X038450D01*
X038400Y021700D02*
Y021800D01*
X037550Y020700D02*
X037650D01*
X037600Y020650D02*
Y020750D01*
X038050Y020700D02*
X038150D01*
X038100Y020650D02*
Y020750D01*
X032300Y034350D02*
X032400D01*
X032350Y034300D02*
Y034400D01*
X032300Y032050D02*
X032400D01*
X032350Y032000D02*
Y032100D01*
X033482Y018328D02*
X033762D01*
X033622Y018188D02*
Y018468D01*
X020060Y013900D02*
X020340D01*
X020200Y013760D02*
Y014040D01*
X028569Y019850D02*
X028849D01*
X028709Y019710D02*
Y019990D01*
X028569Y025100D02*
X028849D01*
X028709Y024960D02*
Y025240D01*
X028569Y030350D02*
X028849D01*
X028709Y030210D02*
Y030490D01*
X028569Y035591D02*
X028849D01*
X028709Y035451D02*
Y035731D01*
X035833Y028417D02*
X035933D01*
X035883Y028367D02*
Y028467D01*
X035250Y027150D02*
X035350D01*
X035300Y027100D02*
Y027200D01*
X030650Y030750D02*
X030750D01*
X030700Y030700D02*
Y030800D01*
X035250Y029500D02*
X035350D01*
X035300Y029450D02*
Y029550D01*
X033600Y028100D02*
X033700D01*
X033650Y028050D02*
Y028150D01*
X027960Y027350D02*
X028240D01*
X028100Y027210D02*
Y027490D01*
M02*