%FSDAX24Y24*%
%MOIN*%
%SFA1B1*%

%IPPOS*%
%ADD85C,0.007900*%
%ADD86C,0.005000*%
%ADD108C,0.003900*%
%LNde-250624-1*%
%LPD*%
G54D85*
X033554Y026114D02*
D01*
X033553Y026116*
X033553Y026119*
X033553Y026122*
X033552Y026124*
X033551Y026127*
X033550Y026129*
X033549Y026132*
X033548Y026134*
X033546Y026136*
X033544Y026139*
X033543Y026141*
X033541Y026142*
X033539Y026144*
X033536Y026146*
X033534Y026147*
X033532Y026149*
X033529Y026150*
X033527Y026151*
X033524Y026151*
X033521Y026152*
X033519Y026152*
X033516Y026152*
X033513*
X033510Y026152*
X033508Y026152*
X033505Y026151*
X033502Y026151*
X033500Y026150*
X033497Y026149*
X033495Y026147*
X033493Y026146*
X033490Y026144*
X033488Y026142*
X033486Y026141*
X033485Y026139*
X033483Y026136*
X033481Y026134*
X033480Y026132*
X033479Y026129*
X033478Y026127*
X033477Y026124*
X033476Y026122*
X033476Y026119*
X033476Y026116*
X033476Y026114*
X033476Y026111*
X033476Y026108*
X033476Y026105*
X033477Y026103*
X033478Y026100*
X033479Y026098*
X033480Y026095*
X033481Y026093*
X033483Y026091*
X033485Y026088*
X033486Y026086*
X033488Y026085*
X033490Y026083*
X033493Y026081*
X033495Y026080*
X033497Y026078*
X033500Y026077*
X033502Y026076*
X033505Y026076*
X033508Y026075*
X033510Y026075*
X033513Y026075*
X033516*
X033519Y026075*
X033521Y026075*
X033524Y026076*
X033527Y026076*
X033529Y026077*
X033532Y026078*
X033534Y026080*
X033536Y026081*
X033539Y026083*
X033541Y026085*
X033543Y026086*
X033544Y026088*
X033546Y026091*
X033548Y026093*
X033549Y026095*
X033550Y026098*
X033551Y026100*
X033552Y026103*
X033553Y026105*
X033553Y026108*
X033553Y026111*
X033554Y026114*
G54D86*
X031032Y026147D02*
Y029553D01*
X032568Y026147D02*
Y029553D01*
X031032D02*
X032568D01*
X031032Y026147D02*
X032568D01*
G54D108*
X036492Y033732D02*
D01*
X036491Y033745*
X036490Y033759*
X036487Y033772*
X036484Y033786*
X036480Y033799*
X036474Y033812*
X036468Y033824*
X036462Y033836*
X036454Y033847*
X036445Y033858*
X036436Y033868*
X036426Y033878*
X036416Y033887*
X036405Y033895*
X036393Y033902*
X036381Y033909*
X036368Y033914*
X036355Y033919*
X036342Y033923*
X036329Y033926*
X036315Y033927*
X036301Y033928*
X036288*
X036274Y033927*
X036260Y033926*
X036247Y033923*
X036234Y033919*
X036221Y033914*
X036208Y033909*
X036196Y033902*
X036184Y033895*
X036173Y033887*
X036163Y033878*
X036153Y033868*
X036144Y033858*
X036135Y033847*
X036127Y033836*
X036121Y033824*
X036115Y033812*
X036109Y033799*
X036105Y033786*
X036102Y033772*
X036099Y033759*
X036098Y033745*
X036098Y033732*
X036098Y033718*
X036099Y033704*
X036102Y033691*
X036105Y033677*
X036109Y033664*
X036115Y033651*
X036121Y033639*
X036127Y033627*
X036135Y033616*
X036144Y033605*
X036153Y033595*
X036163Y033585*
X036173Y033576*
X036184Y033568*
X036196Y033561*
X036208Y033554*
X036221Y033549*
X036234Y033544*
X036247Y033540*
X036260Y033537*
X036274Y033536*
X036288Y033535*
X036301*
X036315Y033536*
X036329Y033537*
X036342Y033540*
X036355Y033544*
X036368Y033549*
X036381Y033554*
X036393Y033561*
X036405Y033568*
X036416Y033576*
X036426Y033585*
X036436Y033595*
X036445Y033605*
X036454Y033616*
X036462Y033627*
X036468Y033639*
X036474Y033651*
X036480Y033664*
X036484Y033677*
X036487Y033691*
X036490Y033704*
X036491Y033718*
X036492Y033732*
X016359Y031524D02*
Y032076D01*
X017541Y031524D02*
Y032076D01*
X016359Y031524D02*
X017541D01*
X016359Y032076D02*
X017541D01*
X018233Y031511D02*
Y032062D01*
X019415Y031511D02*
Y032062D01*
X018233Y031511D02*
X019415D01*
X018233Y032062D02*
X019415D01*
X034174Y027667D02*
X034726D01*
X034174Y028533D02*
X034726D01*
Y027667D02*
Y028533D01*
X034174Y027667D02*
Y028533D01*
X034051Y032314D02*
Y034086D01*
X036649Y032314D02*
Y034086D01*
X034051Y032314D02*
X036649D01*
X034051Y034086D02*
X036649D01*
M02*