%FSDAX24Y24*%
%MOIN*%
%SFA1B1*%

%IPPOS*%
%AMD92*
4,1,8,-0.056100,-0.025600,0.056100,-0.025600,0.070900,-0.010800,0.070900,0.010800,0.056100,0.025600,-0.056100,0.025600,-0.070900,0.010800,-0.070900,-0.010800,-0.056100,-0.025600,0.0*
1,1,0.029600,-0.056100,-0.010800*
1,1,0.029600,0.056100,-0.010800*
1,1,0.029600,0.056100,0.010800*
1,1,0.029600,-0.056100,0.010800*
%
%AMD98*
4,1,8,-0.034400,-0.015800,0.034400,-0.015800,0.041400,-0.008800,0.041400,0.008800,0.034400,0.015800,-0.034400,0.015800,-0.041400,0.008800,-0.041400,-0.008800,-0.034400,-0.015800,0.0*
1,1,0.014000,-0.034400,-0.008800*
1,1,0.014000,0.034400,-0.008800*
1,1,0.014000,0.034400,0.008800*
1,1,0.014000,-0.034400,0.008800*
%
%ADD88R,0.088700X0.122200*%
%ADD89R,0.043400X0.053300*%
%ADD90R,0.051300X0.047400*%
%ADD91R,0.047400X0.051300*%
G04~CAMADD=92~8~0.0~0.0~1419.0~513.0~148.0~0.0~15~0.0~0.0~0.0~0.0~0~0.0~0.0~0.0~0.0~0~0.0~0.0~0.0~180.0~1418.0~512.0*
%ADD92D92*%
%ADD93R,0.059200X0.067100*%
%ADD94R,0.047400X0.035600*%
%ADD95R,0.031600X0.059200*%
%ADD96R,0.041500X0.023700*%
%ADD97O,0.021800X0.078900*%
G04~CAMADD=98~8~0.0~0.0~828.0~316.0~70.0~0.0~15~0.0~0.0~0.0~0.0~0~0.0~0.0~0.0~0.0~0~0.0~0.0~0.0~180.0~828.0~316.0*
%ADD98D98*%
%ADD99C,0.008000*%
%ADD100C,0.067100*%
%ADD101R,0.067100X0.067100*%
%ADD102C,0.106400*%
%ADD103R,0.067100X0.067100*%
%ADD104C,0.068000*%
%ADD105C,0.038000*%
%ADD106C,0.058000*%
%LNde-250624-1*%
%LPD*%
G54D88*
X012649Y037250D03*
X015051D03*
X011899Y031750D03*
X014301D03*
G54D89*
X030375Y013937D03*
X029015D03*
X012658Y014724D03*
X011299D03*
X012658Y012756D03*
X011299D03*
X021517Y025092D03*
X020157D03*
X021517Y030341D03*
X020157D03*
X021517Y035591D03*
X020157D03*
X021517Y019843D03*
X020157D03*
G54D90*
X032915Y034350D03*
X033585D03*
X032915Y032050D03*
X033585D03*
X012865Y039000D03*
X013535D03*
X013485Y033650D03*
X012815D03*
X011615Y028300D03*
X012285D03*
X012965D03*
X013635D03*
X013015Y026500D03*
X013685D03*
X013715Y027700D03*
X014385D03*
X012285Y026500D03*
X011615D03*
Y027100D03*
X012285D03*
X011615Y027700D03*
X012285D03*
X033115Y030050D03*
X033785D03*
X033115Y030700D03*
X033785D03*
X019185Y033000D03*
X018515D03*
X017285Y033050D03*
X016615D03*
X034615Y029950D03*
X035285D03*
X032865Y033100D03*
X033535D03*
X013015Y027100D03*
X013685D03*
G54D91*
X034250Y036935D03*
Y036265D03*
X033650Y036935D03*
Y036265D03*
X034850Y036935D03*
Y036265D03*
X035450Y036935D03*
Y036265D03*
X014200Y034565D03*
Y035235D03*
X032400Y030785D03*
Y030115D03*
X031200Y030785D03*
Y030115D03*
X031800Y030785D03*
Y030115D03*
X035400Y027765D03*
Y028435D03*
X013700Y025215D03*
Y025885D03*
X037100Y033185D03*
Y032515D03*
X037700Y034485D03*
Y033815D03*
X037100Y034485D03*
Y033815D03*
G54D92*
X015400Y036158D03*
Y034642D03*
X014950Y026808D03*
Y025292D03*
G54D93*
X012826Y038300D03*
X013574D03*
X013524Y032950D03*
X012776D03*
X012926Y030650D03*
X013674D03*
X012926Y029850D03*
X013674D03*
X012926Y029050D03*
X013674D03*
X011974D03*
X011226D03*
X010626Y025200D03*
X011374D03*
X010626Y024300D03*
X011374D03*
X012924D03*
X012176D03*
X034626Y030650D03*
X035374D03*
X011374Y021700D03*
X010626D03*
X011374Y020740D03*
X010626D03*
X011374Y019780D03*
X010626D03*
X011374Y018820D03*
X010626D03*
X011374Y017860D03*
X010626D03*
X011374Y016900D03*
X010626D03*
G54D94*
X013624Y034252D03*
Y034626D03*
Y035000D03*
X012600Y034252D03*
Y034626D03*
Y035000D03*
X013100Y025026D03*
Y025400D03*
Y025774D03*
X012076Y025026D03*
Y025400D03*
Y025774D03*
G54D95*
X016950Y031387D03*
X016576Y032213D03*
X017324D03*
X018824Y031373D03*
X018450Y032200D03*
X019198D03*
G54D96*
X034824Y028356D03*
Y027844D03*
X034076D03*
Y028100D03*
Y028356D03*
G54D97*
X034198Y032078D03*
X034454D03*
X034710D03*
X034966D03*
X035222D03*
X035478D03*
X035734D03*
X035990D03*
X036246D03*
X036502D03*
X034198Y034322D03*
X034454D03*
X034710D03*
X034966D03*
X035222D03*
X035478D03*
X035734D03*
X035990D03*
X036246D03*
X036502D03*
G54D98*
X030833Y026350D03*
Y026850D03*
Y027350D03*
Y027850D03*
Y028350D03*
Y028850D03*
Y029350D03*
X032767D03*
Y028850D03*
Y028350D03*
Y027850D03*
Y027350D03*
Y026850D03*
Y026350D03*
G54D99*
X029695Y013927D03*
X011978Y014714D03*
Y012746D03*
X020837Y025082D03*
Y030331D03*
Y035581D03*
Y019833D03*
G54D100*
X011307Y022750D03*
X037300Y029850D03*
Y028850D03*
G54D101*
X015893Y022750D03*
G54D102*
X018000Y020816D03*
Y022784D03*
Y028750D03*
Y026750D03*
Y024750D03*
G54D103*
X037300Y030850D03*
G54D104*
X011050Y036750D03*
X037200Y036500D03*
G54D105*
X033800Y029500D03*
X037400Y035250D03*
X032550Y019950D03*
Y020700D03*
Y021400D03*
X016600Y033550D03*
X018500D03*
X030150Y029350D03*
X032350Y032575D03*
X014150Y028300D03*
X032350Y033100D03*
X038400Y021750D03*
X037600Y020700D03*
X038100D03*
X032350Y034350D03*
Y032050D03*
X035883Y028417D03*
X035300Y027150D03*
X030700Y030750D03*
X035300Y029500D03*
X033650Y028100D03*
G54D106*
X033622Y018328D03*
X020200Y013900D03*
X028709Y019850D03*
Y025100D03*
Y030350D03*
Y035591D03*
X028100Y027350D03*
M02*