%FSDAX24Y24*%
%MOIN*%
%SFA1B1*%

%IPPOS*%
%AMD14*
4,1,8,-0.056100,-0.021600,0.056100,-0.021600,0.066900,-0.010800,0.066900,0.010800,0.056100,0.021600,-0.056100,0.021600,-0.066900,0.010800,-0.066900,-0.010800,-0.056100,-0.021600,0.0*
1,1,0.021600,-0.056100,-0.010800*
1,1,0.021600,0.056100,-0.010800*
1,1,0.021600,0.056100,0.010800*
1,1,0.021600,-0.056100,0.010800*
%
%AMD20*
4,1,8,-0.034400,-0.011800,0.034400,-0.011800,0.037400,-0.008800,0.037400,0.008800,0.034400,0.011800,-0.034400,0.011800,-0.037400,0.008800,-0.037400,-0.008800,-0.034400,-0.011800,0.0*
1,1,0.006000,-0.034400,-0.008800*
1,1,0.006000,0.034400,-0.008800*
1,1,0.006000,0.034400,0.008800*
1,1,0.006000,-0.034400,0.008800*
%
%ADD10R,0.080700X0.114200*%
%ADD11R,0.035400X0.045300*%
%ADD12R,0.043300X0.039400*%
%ADD13R,0.039400X0.043300*%
G04~CAMADD=14~8~0.0~0.0~1339.0~433.0~108.0~0.0~15~0.0~0.0~0.0~0.0~0~0.0~0.0~0.0~0.0~0~0.0~0.0~0.0~180.0~1338.0~432.0*
%ADD14D14*%
%ADD15R,0.051200X0.059100*%
%ADD16R,0.039400X0.027600*%
%ADD17R,0.023600X0.051200*%
%ADD18R,0.033500X0.015700*%
%ADD19O,0.013800X0.070900*%
G04~CAMADD=20~8~0.0~0.0~748.0~236.0~30.0~0.0~15~0.0~0.0~0.0~0.0~0~0.0~0.0~0.0~0.0~0~0.0~0.0~0.0~180.0~748.0~236.0*
%ADD20D20*%
%ADD21C,0.020000*%
%ADD22C,0.050000*%
%ADD23C,0.040000*%
%ADD24C,0.030000*%
%ADD25C,0.039400*%
%ADD26C,0.010000*%
%ADD27R,0.265000X0.180000*%
%ADD28R,0.232600X0.415000*%
%ADD29R,0.060000X0.330000*%
%ADD30R,0.205000X0.595000*%
%ADD31R,0.141500X0.115000*%
%ADD32R,0.065000X0.297000*%
%ADD33C,0.059100*%
%ADD34R,0.059100X0.059100*%
%ADD35C,0.098400*%
%ADD36R,0.059100X0.059100*%
%ADD37C,0.060000*%
%ADD38C,0.030000*%
%ADD39C,0.050000*%
%LNde-250624-1*%
%LPD*%
G54D10*
X012649Y037250D03*
X015051D03*
X011899Y031750D03*
X014301D03*
G54D11*
X030375Y013937D03*
X029015D03*
X012658Y014724D03*
X011299D03*
X012658Y012756D03*
X011299D03*
X021517Y025092D03*
X020157D03*
X021517Y030341D03*
X020157D03*
X021517Y035591D03*
X020157D03*
X021517Y019843D03*
X020157D03*
G54D12*
X032915Y034350D03*
X033585D03*
X032915Y032050D03*
X033585D03*
X012865Y039000D03*
X013535D03*
X013485Y033650D03*
X012815D03*
X011615Y028300D03*
X012285D03*
X012965D03*
X013635D03*
X013015Y026500D03*
X013685D03*
X013715Y027700D03*
X014385D03*
X012285Y026500D03*
X011615D03*
Y027100D03*
X012285D03*
X011615Y027700D03*
X012285D03*
X033115Y030050D03*
X033785D03*
X033115Y030700D03*
X033785D03*
X019185Y033000D03*
X018515D03*
X017285Y033050D03*
X016615D03*
X034615Y029950D03*
X035285D03*
X032865Y033100D03*
X033535D03*
X013015Y027100D03*
X013685D03*
G54D13*
X034250Y036935D03*
Y036265D03*
X033650Y036935D03*
Y036265D03*
X034850Y036935D03*
Y036265D03*
X035450Y036935D03*
Y036265D03*
X014200Y034565D03*
Y035235D03*
X032400Y030785D03*
Y030115D03*
X031200Y030785D03*
Y030115D03*
X031800Y030785D03*
Y030115D03*
X035400Y027765D03*
Y028435D03*
X013700Y025215D03*
Y025885D03*
X037100Y033185D03*
Y032515D03*
X037700Y034485D03*
Y033815D03*
X037100Y034485D03*
Y033815D03*
G54D14*
X015400Y036158D03*
Y034642D03*
X014950Y026808D03*
Y025292D03*
G54D15*
X012826Y038300D03*
X013574D03*
X013524Y032950D03*
X012776D03*
X012926Y030650D03*
X013674D03*
X012926Y029850D03*
X013674D03*
X012926Y029050D03*
X013674D03*
X011974D03*
X011226D03*
X010626Y025200D03*
X011374D03*
X010626Y024300D03*
X011374D03*
X012924D03*
X012176D03*
X034626Y030650D03*
X035374D03*
X011374Y021700D03*
X010626D03*
X011374Y020740D03*
X010626D03*
X011374Y019780D03*
X010626D03*
X011374Y018820D03*
X010626D03*
X011374Y017860D03*
X010626D03*
X011374Y016900D03*
X010626D03*
G54D16*
X013624Y034252D03*
Y034626D03*
Y035000D03*
X012600Y034252D03*
Y034626D03*
Y035000D03*
X013100Y025026D03*
Y025400D03*
Y025774D03*
X012076Y025026D03*
Y025400D03*
Y025774D03*
G54D17*
X016950Y031387D03*
X016576Y032213D03*
X017324D03*
X018824Y031373D03*
X018450Y032200D03*
X019198D03*
G54D18*
X034824Y028356D03*
Y027844D03*
X034076D03*
Y028100D03*
Y028356D03*
G54D19*
X034198Y032078D03*
X034454D03*
X034710D03*
X034966D03*
X035222D03*
X035478D03*
X035734D03*
X035990D03*
X036246D03*
X036502D03*
X034198Y034322D03*
X034454D03*
X034710D03*
X034966D03*
X035222D03*
X035478D03*
X035734D03*
X035990D03*
X036246D03*
X036502D03*
G54D20*
X030833Y026350D03*
Y026850D03*
Y027350D03*
Y027850D03*
Y028350D03*
Y028850D03*
Y029350D03*
X032767D03*
Y028850D03*
Y028350D03*
Y027850D03*
Y027350D03*
Y026850D03*
Y026350D03*
G54D21*
X013624Y034626D02*
X014934D01*
X013735Y035235D02*
X014200D01*
X013624Y035124D02*
X013735Y035235D01*
X013624Y035000D02*
Y035124D01*
X029950Y015900D02*
X030375Y015475D01*
Y013937D02*
Y015475D01*
X030150Y029350D02*
X030833D01*
X035300Y027150D02*
Y027350D01*
X035400Y027450*
Y027765*
X035865Y028435D02*
X035883Y028417D01*
X035400Y028435D02*
X035865D01*
X035321Y027844D02*
X035400Y027765D01*
X034824Y027844D02*
X035321D01*
Y028356D02*
X035400Y028435D01*
X034824Y028356D02*
X035321D01*
X035285Y029950D02*
X035300Y029935D01*
Y029500D02*
Y029935D01*
X031165Y030750D02*
X031200Y030785D01*
X030700Y030750D02*
X031165D01*
X033115Y029665D02*
Y030050D01*
X032800Y029350D02*
X033115Y029665D01*
X032767Y029350D02*
X032800D01*
X033500Y028850D02*
X033785Y029135D01*
X032767Y028850D02*
X033500D01*
X033785Y030700D02*
X034555D01*
X033785Y030050D02*
Y030700D01*
X030833Y028850D02*
Y029350D01*
X013485Y033650D02*
Y033885D01*
X013624Y034024*
Y034252*
X014934Y034626D02*
X014950Y034642D01*
X012776Y032950D02*
X012815Y032989D01*
Y033650*
Y034037*
X012600Y034252D02*
X012815Y034037D01*
X012600Y034252D02*
Y034626D01*
X012924Y024300D02*
Y024624D01*
X013100Y024800*
X011374Y025200D02*
X011548Y025026D01*
X011000Y028824D02*
X011226Y029050D01*
X011000Y027900D02*
Y028824D01*
Y027900D02*
X011200Y027700D01*
X011615*
Y027100D02*
Y027700D01*
X012285Y026085D02*
Y026500D01*
X012076Y025876D02*
X012285Y026085D01*
X012076Y025774D02*
Y025876D01*
X012285Y026500D02*
D01*
Y027100D01*
Y028300D02*
D01*
Y027700D02*
Y028300D01*
X012965D01*
X013777Y025292D02*
X014950D01*
X013700Y025215D02*
X013777Y025292D01*
X013515Y025400D02*
X013700Y025215D01*
X013485Y025885D02*
X013700D01*
X013374Y025774D02*
X013485Y025885D01*
X013100Y024800D02*
Y025026D01*
X012076D02*
Y025400D01*
X013100Y025774D02*
X013374D01*
X013100Y025400D02*
X013515D01*
X011548Y025026D02*
X012076D01*
X012600Y035000D02*
Y035350D01*
X014385Y027700D02*
X014900D01*
X014950Y027750*
X013715Y027131D02*
Y027700D01*
X013685Y027100D02*
X013715Y027131D01*
X012285Y026500D02*
X013015D01*
Y027100*
X013685Y026500D02*
X013900D01*
X014208Y026808*
X014950*
X033785Y029135D02*
Y030050D01*
G54D22*
X014950Y027350D02*
X015550Y026750D01*
X013674Y030650D02*
Y031926D01*
X011950Y035750D02*
X012500Y036300D01*
X011950Y034150D02*
Y035750D01*
X015550Y026750D02*
X018000D01*
X014950Y026900D02*
Y027350D01*
X012776Y032374D02*
Y032950D01*
Y032374D02*
X012950Y032200D01*
X013400*
X013674Y031926*
X010380Y026500D02*
Y029480D01*
Y025446D02*
Y026500D01*
Y025446D02*
X010626Y025200D01*
X010380Y029480D02*
X010750Y029850D01*
X012926*
X011974Y029050D02*
X012926D01*
Y029850D02*
Y030650D01*
Y029050D02*
Y029850D01*
X011374Y024300D02*
X012176D01*
X014400Y029050D02*
X014950Y028500D01*
X013674Y029050D02*
X014400D01*
X013674Y029850D02*
Y030650D01*
Y029050D02*
Y029850D01*
X011374Y024300D02*
Y025200D01*
Y022783D02*
Y024300D01*
X014950Y027350D02*
Y027750D01*
Y028500*
X012500Y036300D02*
Y038950D01*
X015993Y022750D02*
X018100D01*
G54D23*
X011374Y021700D02*
Y022783D01*
Y016900D02*
Y017860D01*
Y018820*
Y019780*
Y020740*
Y021700*
G54D24*
X037000Y039200D02*
X038250Y037950D01*
Y033150D02*
Y037950D01*
X037615Y032515D02*
X038250Y033150D01*
X037100Y032515D02*
X037615D01*
X037100Y034485D02*
X037400D01*
X012600Y020816D02*
X012658Y020757D01*
X018000Y018900D02*
Y020816D01*
Y018900D02*
X018500Y018400D01*
X020850*
X021517Y019067*
Y019843*
Y030341D02*
Y035591D01*
Y025092D02*
Y030341D01*
Y019843D02*
Y025092D01*
X013624Y033050D02*
X016600D01*
X016576Y033011D02*
X016600Y033035D01*
X016576Y032213D02*
Y033011D01*
X013524Y032950D02*
X013624Y033050D01*
X018500Y033015D02*
X018515Y033000D01*
X018500Y033015D02*
Y033550D01*
X018450Y032935D02*
X018515Y033000D01*
X018450Y032200D02*
Y032935D01*
X018000Y024750D02*
X019000Y025750D01*
Y029850*
X018824Y030026D02*
X019000Y029850D01*
X018824Y030026D02*
Y031373D01*
X016950Y029800D02*
X018000Y028750D01*
X016950Y029800D02*
Y031387D01*
X035374Y030274D02*
Y030650D01*
X035285Y030185D02*
X035374Y030274D01*
X035285Y029950D02*
Y030185D01*
X034615Y029950D02*
Y030639D01*
X033115Y030050D02*
Y030700D01*
X032400Y030785D02*
X033031D01*
X031800D02*
X032400D01*
X031200D02*
X031800D01*
X033031D02*
X033115Y030700D01*
X013485Y032989D02*
X013524Y032950D01*
X013485Y032989D02*
Y033650D01*
X013408Y036158D02*
X014950D01*
X010380Y026500D02*
X011615D01*
X011974Y028774D02*
Y029050D01*
X011615Y028415D02*
X011974Y028774D01*
X011615Y028300D02*
Y028415D01*
X013535Y039000D02*
X013735Y039200D01*
X012600Y035350D02*
X013408Y036158D01*
X015400D02*
Y036300D01*
X015051Y036649D02*
X015400Y036300D01*
X015051Y036649D02*
Y037250D01*
Y039199*
X015050Y039200D02*
X015051Y039199D01*
X013735Y039200D02*
X015050D01*
X037000*
X012776Y037100D02*
X012865Y037189D01*
X016600Y033035D02*
Y033050D01*
Y033550*
X037400Y034485D02*
Y035250D01*
G54D25*
X028950Y015900D02*
X029950D01*
X032550Y018500D02*
Y019950D01*
X029950Y015900D02*
X032550Y018500D01*
X027950Y014900D02*
X028950Y015900D01*
X025857Y010957D02*
X027950Y013050D01*
X013343Y010957D02*
X025857D01*
X032550Y019950D02*
Y020700D01*
Y021400*
X012658Y012756D02*
Y014724D01*
Y011641D02*
Y012756D01*
X027950Y013050D02*
Y014900D01*
X012658Y011641D02*
X013343Y010957D01*
X012900Y020816D02*
Y024276D01*
X012600Y020816D02*
X012900D01*
X018000*
X012900Y024276D02*
X012924Y024300D01*
X010626Y016900D02*
Y017860D01*
Y018820*
Y019780*
Y020740*
Y021700*
Y024300*
Y025200*
Y016074D02*
Y016900D01*
Y016074D02*
X010800Y015900D01*
X012658*
Y014724D02*
Y015900D01*
Y020757*
G54D26*
X028709Y035591D02*
X029700Y034600D01*
Y028950D02*
Y034600D01*
Y028950D02*
X030300Y028350D01*
X030385Y030115D02*
X031200D01*
X030100Y030400D02*
X030385Y030115D01*
X030100Y030400D02*
Y031150D01*
X030350Y031400*
X034500*
X034710Y031610*
Y032078*
X032350Y032575D02*
X033725D01*
X033850Y032700*
X034300*
X034454Y032546*
Y032078D02*
Y032546D01*
X013635Y028300D02*
X014150D01*
X038100Y011495D02*
Y020700D01*
X037055Y010450D02*
X038100Y011495D01*
X011600Y010450D02*
X037055D01*
X037740Y011645D02*
Y019910D01*
X036905Y010810D02*
X037740Y011645D01*
X029490Y010810D02*
X036905D01*
X037920Y011570D02*
Y020080D01*
X036980Y010630D02*
X037920Y011570D01*
X011675Y010630D02*
X036980D01*
X029015Y011285D02*
X029490Y010810D01*
X029015Y011285D02*
Y013937D01*
X010630Y011675D02*
X011675Y010630D01*
X010450Y011600D02*
X011600Y010450D01*
X032350Y033100D02*
X032865D01*
X038100Y021450D02*
X038400Y021750D01*
X037550Y021450D02*
X038100D01*
X037200Y021100D02*
X037550Y021450D01*
X037200Y020450D02*
Y021100D01*
Y020450D02*
X037740Y019910D01*
X037600Y020400D02*
X037920Y020080D01*
X037600Y020400D02*
Y020700D01*
X010856Y012756D02*
X011299D01*
X010630Y012530D02*
X010856Y012756D01*
X010630Y011675D02*
Y012530D01*
X032450Y034350D02*
X032915D01*
X010724Y014724D02*
X011299D01*
X010450Y014450D02*
X010724Y014724D01*
X010450Y011600D02*
Y014450D01*
X032350Y032050D02*
X032915D01*
X034170D02*
X034198Y032078D01*
X033585Y032050D02*
X034170D01*
X034966Y032078D02*
Y032784D01*
X034650Y033100D02*
X034966Y032784D01*
X033535Y033100D02*
X034650D01*
X034170Y034350D02*
X034198Y034322D01*
X033585Y034350D02*
X034170D01*
X033622Y018328D02*
Y025494D01*
X032767Y026350D02*
X033622Y025494D01*
X032050Y026850D02*
X032767D01*
X020200Y013900D02*
X025100D01*
X031600Y020400*
Y026400*
X032050Y026850*
X035990Y034322D02*
Y037460D01*
X034730Y038720D02*
X035990Y037460D01*
X021006Y038720D02*
X034730D01*
X036246Y034322D02*
Y037704D01*
X035050Y038900D02*
X036246Y037704D01*
X020932Y038900D02*
X035050D01*
X033520Y038180D02*
X034250Y037450D01*
X021230Y038180D02*
X033520D01*
X034360Y038540D02*
X035450Y037450D01*
X021081Y038540D02*
X034360D01*
X019005Y036973D02*
X020932Y038900D01*
X019185Y036898D02*
X021006Y038720D01*
X019365Y036824D02*
X021081Y038540D01*
X033940Y038360D02*
X034850Y037450D01*
X021155Y038360D02*
X033940D01*
X019545Y036749D02*
X021155Y038360D01*
X019725Y036675D02*
X021230Y038180D01*
X033100Y038000D02*
X033650Y037450D01*
X021305Y038000D02*
X033100D01*
X020150Y036845D02*
X021305Y038000D01*
X034198Y032078D02*
Y032302D01*
X019600Y024250D02*
X020150Y023700D01*
X019780Y029470D02*
X020150Y029100D01*
X019725Y034675D02*
X020150Y034250D01*
X019780Y029470D02*
Y034365D01*
X019545Y034601D02*
X019780Y034365D01*
X019365Y034526D02*
X019600Y034291D01*
Y024250D02*
Y034291D01*
X019725Y034675D02*
Y036675D01*
X019545Y034601D02*
Y036749D01*
X019365Y034526D02*
Y036824D01*
X019005Y035155D02*
Y036973D01*
X017285Y033435D02*
X019005Y035155D01*
X017285Y033050D02*
Y033435D01*
Y033050D02*
X017324Y033011D01*
Y032213D02*
Y033011D01*
X019185Y033000D02*
X019198Y032987D01*
Y032200D02*
Y032987D01*
X019185Y033000D02*
Y036898D01*
X035450Y036935D02*
Y037450D01*
X034850Y036935D02*
Y037450D01*
X028709Y019850D02*
X029950Y021091D01*
Y026050*
X030250Y026350*
X030833*
X028709Y025100D02*
X029300Y025691D01*
Y026400*
X029750Y026850*
X030833*
X028709Y030350D02*
X029200Y029859D01*
Y028450D02*
Y029859D01*
Y028450D02*
X029800Y027850D01*
X030833*
X030300Y028350D02*
X030833D01*
X035450Y035600D02*
Y036265D01*
X035222Y035372D02*
X035450Y035600D01*
X035222Y034322D02*
Y035372D01*
X034850Y035550D02*
Y036265D01*
Y035550D02*
X034966Y035434D01*
Y034322D02*
Y035434D01*
X034250Y035650D02*
Y036265D01*
Y035650D02*
X034710Y035190D01*
Y034322D02*
Y035190D01*
X033650Y035850D02*
Y036265D01*
Y035850D02*
X034454Y035046D01*
Y034322D02*
Y035046D01*
X034250Y036935D02*
Y037450D01*
X033650Y036935D02*
Y037450D01*
X035500Y029150D02*
X035950Y029600D01*
X034500Y029150D02*
X035500D01*
X034076Y028726D02*
X034500Y029150D01*
X035555Y028950D02*
X036130Y029525D01*
X034650Y028950D02*
X035555D01*
X034450Y028750D02*
X034650Y028950D01*
X036685Y034485D02*
X037100D01*
X036522Y034322D02*
X036685Y034485D01*
X036502Y034322D02*
X036522D01*
X035734Y033666D02*
Y034322D01*
Y033666D02*
X035900Y033500D01*
X036650*
X036965Y033815*
X037100*
X035478Y033522D02*
Y034322D01*
Y033522D02*
X035815Y033185D01*
X037100*
X037535*
X037700Y033350*
Y033815*
X036835Y032515D02*
X037100D01*
X036650Y032700D02*
X036835Y032515D01*
X035650Y032700D02*
X036650D01*
X035478Y032528D02*
X035650Y032700D01*
X035478Y032078D02*
Y032528D01*
X036600Y029550D02*
X037300Y028850D01*
X036600Y029550D02*
Y031300D01*
X036246Y031654D02*
X036600Y031300D01*
X036246Y031654D02*
Y032078D01*
X037300Y030850D02*
Y031280D01*
X036502Y032078D02*
X037300Y031280D01*
X035374Y030650D02*
Y031274D01*
X035478Y031378*
Y032078*
X034615Y030965D02*
X035222Y031572D01*
Y032078*
X033650Y028100D02*
X034076D01*
X033450Y028500D02*
X033850D01*
X033306Y028356D02*
X033450Y028500D01*
X032772Y028356D02*
X033306D01*
X033850Y028500D02*
X033994Y028356D01*
X034076*
X033950Y027850D02*
X034070D01*
X033850Y027750D02*
X033950Y027850D01*
X033450Y027750D02*
X033850D01*
X033350Y027850D02*
X033450Y027750D01*
X032767Y027850D02*
X033350D01*
X032767Y028350D02*
X032772Y028356D01*
X035990Y031415D02*
Y032078D01*
Y031415D02*
X036130Y031275D01*
Y029525D02*
Y031275D01*
X034450Y027950D02*
Y028750D01*
X034344Y027844D02*
X034450Y027950D01*
X034076Y027844D02*
X034344D01*
X034076Y028356D02*
Y028726D01*
X035950Y029600D02*
Y031200D01*
X035734Y031416D02*
X035950Y031200D01*
X035734Y031416D02*
Y032078D01*
X032250Y027350D02*
X032767D01*
X031500Y028100D02*
X032250Y027350D01*
X031500Y028100D02*
Y029550D01*
X031200Y029850D02*
X031500Y029550D01*
X031200Y029850D02*
Y030115D01*
X034070Y027850D02*
X034076Y027844D01*
X032300Y027850D02*
X032767D01*
X031800Y028350D02*
X032300Y027850D01*
X031800Y028350D02*
Y030115D01*
X032300Y028350D02*
X032767D01*
X032100Y028550D02*
X032300Y028350D01*
X032100Y028550D02*
Y029550D01*
X032400Y029850*
Y030115*
X028100Y027350D02*
X030833D01*
X020150Y019843D02*
Y023700D01*
Y025092D02*
Y029100D01*
Y035591D02*
Y036845D01*
Y030341D02*
Y034250D01*
X034615Y030639D02*
Y030965D01*
G54D27*
X018125Y018900D03*
G54D28*
X014087Y022325D03*
G54D29*
X012450Y037700D03*
G54D30*
X011175Y032625D03*
G54D31*
X014392Y038575D03*
G54D32*
X015075Y037714D03*
G54D33*
X011307Y022750D03*
X037300Y029850D03*
Y028850D03*
G54D34*
X015893Y022750D03*
G54D35*
X018000Y020816D03*
Y022784D03*
Y028750D03*
Y026750D03*
Y024750D03*
G54D36*
X037300Y030850D03*
G54D37*
X011050Y036750D03*
X037200Y036500D03*
G54D38*
X033800Y029500D03*
X037400Y035250D03*
X032550Y019950D03*
Y020700D03*
Y021400D03*
X016600Y033550D03*
X018500D03*
X030150Y029350D03*
X032350Y032575D03*
X014150Y028300D03*
X032350Y033100D03*
X038400Y021750D03*
X037600Y020700D03*
X038100D03*
X032350Y034350D03*
Y032050D03*
X035883Y028417D03*
X035300Y027150D03*
X030700Y030750D03*
X035300Y029500D03*
X033650Y028100D03*
G54D39*
X033622Y018328D03*
X020200Y013900D03*
X028709Y019850D03*
Y025100D03*
Y030350D03*
Y035591D03*
X028100Y027350D03*
M02*