%FSDAX24Y24*%
%MOIN*%
%SFA1B1*%

%IPPOS*%
%AMD14*
4,1,8,-0.056100,-0.021600,0.056100,-0.021600,0.066900,-0.010800,0.066900,0.010800,0.056100,0.021600,-0.056100,0.021600,-0.066900,0.010800,-0.066900,-0.010800,-0.056100,-0.021600,0.0*
1,1,0.021600,-0.056100,-0.010800*
1,1,0.021600,0.056100,-0.010800*
1,1,0.021600,0.056100,0.010800*
1,1,0.021600,-0.056100,0.010800*
%
%AMD20*
4,1,8,-0.034400,-0.011800,0.034400,-0.011800,0.037400,-0.008800,0.037400,0.008800,0.034400,0.011800,-0.034400,0.011800,-0.037400,0.008800,-0.037400,-0.008800,-0.034400,-0.011800,0.0*
1,1,0.006000,-0.034400,-0.008800*
1,1,0.006000,0.034400,-0.008800*
1,1,0.006000,0.034400,0.008800*
1,1,0.006000,-0.034400,0.008800*
%
%ADD10R,0.080700X0.114200*%
%ADD11R,0.035400X0.045300*%
%ADD12R,0.043300X0.039400*%
%ADD13R,0.039400X0.043300*%
G04~CAMADD=14~8~0.0~0.0~1339.0~433.0~108.0~0.0~15~0.0~0.0~0.0~0.0~0~0.0~0.0~0.0~0.0~0~0.0~0.0~0.0~180.0~1338.0~432.0*
%ADD14D14*%
%ADD15R,0.051200X0.059100*%
%ADD16R,0.039400X0.027600*%
%ADD17R,0.023600X0.051200*%
%ADD18R,0.033500X0.015700*%
%ADD19O,0.013800X0.070900*%
G04~CAMADD=20~8~0.0~0.0~748.0~236.0~30.0~0.0~15~0.0~0.0~0.0~0.0~0~0.0~0.0~0.0~0.0~0~0.0~0.0~0.0~180.0~748.0~236.0*
%ADD20D20*%
%ADD33C,0.059100*%
%ADD34R,0.059100X0.059100*%
%ADD35C,0.098400*%
%ADD36R,0.059100X0.059100*%
%ADD37C,0.060000*%
%LNde-250624-1*%
%LPD*%
G54D10*
X012649Y037250D03*
X015051D03*
X011899Y031750D03*
X014301D03*
G54D11*
X030375Y013937D03*
X029015D03*
X012658Y014724D03*
X011299D03*
X012658Y012756D03*
X011299D03*
X021517Y025092D03*
X020157D03*
X021517Y030341D03*
X020157D03*
X021517Y035591D03*
X020157D03*
X021517Y019843D03*
X020157D03*
G54D12*
X032915Y034350D03*
X033585D03*
X032915Y032050D03*
X033585D03*
X012865Y039000D03*
X013535D03*
X013485Y033650D03*
X012815D03*
X011615Y028300D03*
X012285D03*
X012965D03*
X013635D03*
X013015Y026500D03*
X013685D03*
X013715Y027700D03*
X014385D03*
X012285Y026500D03*
X011615D03*
Y027100D03*
X012285D03*
X011615Y027700D03*
X012285D03*
X033115Y030050D03*
X033785D03*
X033115Y030700D03*
X033785D03*
X019185Y033000D03*
X018515D03*
X017285Y033050D03*
X016615D03*
X034615Y029950D03*
X035285D03*
X032865Y033100D03*
X033535D03*
X013015Y027100D03*
X013685D03*
G54D13*
X034250Y036935D03*
Y036265D03*
X033650Y036935D03*
Y036265D03*
X034850Y036935D03*
Y036265D03*
X035450Y036935D03*
Y036265D03*
X014200Y034565D03*
Y035235D03*
X032400Y030785D03*
Y030115D03*
X031200Y030785D03*
Y030115D03*
X031800Y030785D03*
Y030115D03*
X035400Y027765D03*
Y028435D03*
X013700Y025215D03*
Y025885D03*
X037100Y033185D03*
Y032515D03*
X037700Y034485D03*
Y033815D03*
X037100Y034485D03*
Y033815D03*
G54D14*
X015400Y036158D03*
Y034642D03*
X014950Y026808D03*
Y025292D03*
G54D15*
X012826Y038300D03*
X013574D03*
X013524Y032950D03*
X012776D03*
X012926Y030650D03*
X013674D03*
X012926Y029850D03*
X013674D03*
X012926Y029050D03*
X013674D03*
X011974D03*
X011226D03*
X010626Y025200D03*
X011374D03*
X010626Y024300D03*
X011374D03*
X012924D03*
X012176D03*
X034626Y030650D03*
X035374D03*
X011374Y021700D03*
X010626D03*
X011374Y020740D03*
X010626D03*
X011374Y019780D03*
X010626D03*
X011374Y018820D03*
X010626D03*
X011374Y017860D03*
X010626D03*
X011374Y016900D03*
X010626D03*
G54D16*
X013624Y034252D03*
Y034626D03*
Y035000D03*
X012600Y034252D03*
Y034626D03*
Y035000D03*
X013100Y025026D03*
Y025400D03*
Y025774D03*
X012076Y025026D03*
Y025400D03*
Y025774D03*
G54D17*
X016950Y031387D03*
X016576Y032213D03*
X017324D03*
X018824Y031373D03*
X018450Y032200D03*
X019198D03*
G54D18*
X034824Y028356D03*
Y027844D03*
X034076D03*
Y028100D03*
Y028356D03*
G54D19*
X034198Y032078D03*
X034454D03*
X034710D03*
X034966D03*
X035222D03*
X035478D03*
X035734D03*
X035990D03*
X036246D03*
X036502D03*
X034198Y034322D03*
X034454D03*
X034710D03*
X034966D03*
X035222D03*
X035478D03*
X035734D03*
X035990D03*
X036246D03*
X036502D03*
G54D20*
X030833Y026350D03*
Y026850D03*
Y027350D03*
Y027850D03*
Y028350D03*
Y028850D03*
Y029350D03*
X032767D03*
Y028850D03*
Y028350D03*
Y027850D03*
Y027350D03*
Y026850D03*
Y026350D03*
G54D33*
X011307Y022750D03*
X037300Y029850D03*
Y028850D03*
G54D34*
X015893Y022750D03*
G54D35*
X018000Y020816D03*
Y022784D03*
Y028750D03*
Y026750D03*
Y024750D03*
G54D36*
X037300Y030850D03*
G54D37*
X011050Y036750D03*
X037200Y036500D03*
M02*