%FSLAX24Y24*%
%MOIN*%
%SFA1B1*%

%IPPOS*%
%AMD36*
4,1,8,0.098400,0.196800,-0.098400,0.196800,-0.196800,0.098400,-0.196800,-0.098400,-0.098400,-0.196800,0.098400,-0.196800,0.196800,-0.098400,0.196800,0.098400,0.098400,0.196800,0.0*
1,1,0.196800,0.098400,0.098400*
1,1,0.196800,-0.098400,0.098400*
1,1,0.196800,-0.098400,-0.098400*
1,1,0.196800,0.098400,-0.098400*
%
%ADD20C,0.059100*%
%ADD21C,0.030000*%
%ADD22C,0.010000*%
%ADD23C,0.020000*%
%ADD25C,0.039400*%
%ADD31R,0.059100X0.059100*%
%ADD32C,0.098400*%
%ADD33R,0.059100X0.059100*%
%ADD34C,0.050000*%
%ADD35C,0.030000*%
G04~CAMADD=36~8~0.0~0.0~3937.0~3937.0~984.0~0.0~15~0.0~0.0~0.0~0.0~0~0.0~0.0~0.0~0.0~0~0.0~0.0~0.0~0.0~3937.0~3937.0*
%ADD36D36*%
%ADD37C,0.100000*%
%ADD38R,0.320000X0.180000*%
%ADD39R,0.165000X0.165000*%
%ADD40R,0.245000X0.215000*%
%ADD41R,0.350000X0.190000*%
%ADD42R,0.430000X0.650000*%
%ADD43R,0.070000X2.525000*%
%ADD44R,0.340000X0.425000*%
%ADD45R,0.500000X0.410000*%
%ADD46R,0.925000X0.210000*%
%ADD47R,0.090000X1.910000*%
%ADD48R,0.190000X0.410000*%
%ADD49R,0.110000X0.695000*%
%ADD50R,0.435000X0.085000*%
%ADD51R,0.800000X0.160000*%
%ADD52R,0.065000X0.100000*%
%ADD53R,0.150000X0.250000*%
%ADD54R,0.130000X0.340000*%
%ADD55R,0.150000X0.400000*%
%ADD56R,0.085000X0.900000*%
%ADD57R,0.770000X0.545000*%
%ADD58R,0.360000X0.360000*%
%ADD59R,0.139700X0.956100*%
%ADD60R,0.615000X0.225000*%
%ADD61R,0.049900X0.153500*%
%ADD62R,0.455000X0.380000*%
%ADD63R,0.450000X0.140000*%
%ADD64R,0.110000X0.585000*%
%ADD65R,0.260700X0.165400*%
%ADD66R,0.145000X0.115000*%
%ADD67R,0.065000X2.845000*%
%ADD68R,0.080000X0.095000*%
%ADD69R,0.455000X0.170000*%
%ADD70R,0.485000X0.580000*%
%ADD71R,0.125000X0.270000*%
%ADD72R,0.300000X0.355000*%
%ADD73R,0.615000X0.080000*%
%ADD74R,0.300000X0.370000*%
%ADD75R,0.345000X0.155000*%
%ADD76R,0.100000X0.280000*%
%ADD77R,0.365000X0.290000*%
%ADD78R,0.190000X0.145000*%
%LNde-250624-1*%
%LPD*%
G54D20*
X37300Y28850D03*
Y29850D03*
X11307Y22750D03*
G54D21*
X10600Y10450D02*
X39200D01*
X16600Y33550D02*
X18500D01*
G54D22*
X28200Y36365D02*
D01*
X28164Y36336*
X28130Y36306*
X28125Y36300*
Y34881D02*
D01*
X28158Y34850*
X28193Y34821*
X28200Y34816*
Y31124D02*
D01*
X28164Y31095*
X28130Y31065*
X28125Y31060*
Y29640D02*
D01*
X28158Y29609*
X28193Y29580*
X28200Y29576*
X27975Y27750D02*
D01*
X27964Y27749*
X27954Y27748*
X27943Y27746*
X27933Y27744*
X27923Y27740*
X27913Y27737*
X27904Y27732*
X27895Y27727*
X27886Y27721*
X27878Y27714*
X27870Y27707*
X27869Y27706*
X28125Y24390D02*
D01*
X28158Y24359*
X28193Y24330*
X28200Y24326*
Y25874D02*
D01*
X28164Y25845*
X28130Y25815*
X28125Y25810*
X25748Y32972D02*
D01*
X25861Y32975*
X25975Y32987*
X26087Y33007*
X26198Y33035*
X26306Y33070*
X26412Y33113*
X26515Y33163*
X26613Y33220*
X26708Y33284*
X26798Y33354*
X26883Y33430*
X26962Y33512*
X27035Y33600*
X27102Y33692*
X27163Y33789*
X27216Y33889*
X27263Y33993*
X27302Y34101*
X27333Y34210*
X27357Y34322*
X27373Y34435*
X27381Y34548*
X27382Y34606*
Y36575D02*
D01*
X27378Y36688*
X27366Y36802*
X27346Y36914*
X27318Y37025*
X27283Y37133*
X27240Y37239*
X27190Y37342*
X27133Y37440*
X27069Y37535*
X26999Y37625*
X26923Y37710*
X26841Y37789*
X26753Y37862*
X26661Y37929*
X26565Y37990*
X26464Y38043*
X26360Y38090*
X26252Y38129*
X26143Y38160*
X26031Y38184*
X25918Y38200*
X25805Y38208*
X25748Y38209*
X27382Y31325D02*
D01*
X27378Y31438*
X27366Y31552*
X27346Y31664*
X27318Y31775*
X27283Y31883*
X27240Y31989*
X27190Y32092*
X27133Y32190*
X27069Y32285*
X26999Y32375*
X26923Y32460*
X26841Y32539*
X26753Y32612*
X26661Y32679*
X26565Y32740*
X26464Y32793*
X26360Y32840*
X26252Y32879*
X26143Y32910*
X26031Y32934*
X25918Y32950*
X25805Y32958*
X25748Y32960*
X27744Y27581D02*
D01*
X27736Y27573*
X27730Y27565*
X27724Y27556*
X27718Y27547*
X27714Y27538*
X27710Y27528*
X27706Y27518*
X27703Y27508*
X27701Y27498*
X27700Y27488*
X27700Y27477*
X27700Y27475*
Y27225D02*
D01*
X27700Y27214*
X27701Y27204*
X27703Y27193*
X27705Y27183*
X27709Y27173*
X27712Y27163*
X27717Y27154*
X27722Y27145*
X27728Y27136*
X27735Y27128*
X27742Y27120*
X27744Y27119*
X27869Y26994D02*
D01*
X27876Y26986*
X27884Y26980*
X27893Y26974*
X27902Y26968*
X27911Y26964*
X27921Y26960*
X27931Y26956*
X27941Y26953*
X27951Y26951*
X27961Y26950*
X27972Y26950*
X27975Y26950*
X25748Y27723D02*
D01*
X25861Y27726*
X25975Y27738*
X26087Y27758*
X26198Y27786*
X26306Y27821*
X26412Y27864*
X26515Y27914*
X26613Y27971*
X26708Y28035*
X26798Y28105*
X26883Y28181*
X26962Y28263*
X27035Y28351*
X27102Y28443*
X27163Y28540*
X27216Y28640*
X27263Y28744*
X27302Y28852*
X27333Y28961*
X27357Y29073*
X27373Y29186*
X27381Y29299*
X27382Y29357*
X25748Y22473D02*
D01*
X25861Y22476*
X25975Y22488*
X26087Y22508*
X26198Y22536*
X26306Y22571*
X26412Y22614*
X26515Y22664*
X26613Y22721*
X26708Y22785*
X26798Y22855*
X26883Y22931*
X26962Y23013*
X27035Y23101*
X27102Y23193*
X27163Y23290*
X27216Y23390*
X27263Y23494*
X27302Y23602*
X27333Y23711*
X27357Y23823*
X27373Y23936*
X27381Y24049*
X27382Y24108*
Y26076D02*
D01*
X27378Y26189*
X27366Y26303*
X27346Y26415*
X27318Y26526*
X27283Y26634*
X27240Y26740*
X27190Y26843*
X27133Y26941*
X27069Y27036*
X26999Y27126*
X26923Y27211*
X26841Y27290*
X26753Y27363*
X26661Y27430*
X26565Y27491*
X26464Y27544*
X26360Y27591*
X26252Y27630*
X26143Y27661*
X26031Y27685*
X25918Y27701*
X25805Y27709*
X25748Y27710*
X36241Y14921D02*
D01*
X36237Y15034*
X36225Y15148*
X36205Y15260*
X36177Y15371*
X36142Y15479*
X36099Y15585*
X36049Y15688*
X35992Y15786*
X35928Y15881*
X35858Y15971*
X35782Y16056*
X35700Y16135*
X35612Y16208*
X35520Y16275*
X35424Y16336*
X35323Y16389*
X35219Y16436*
X35111Y16475*
X35002Y16506*
X34890Y16530*
X34777Y16546*
X34664Y16554*
X34606Y16556*
X32638D02*
D01*
X32524Y16552*
X32410Y16540*
X32298Y16520*
X32187Y16492*
X32079Y16457*
X31973Y16414*
X31870Y16364*
X31772Y16307*
X31677Y16243*
X31587Y16173*
X31502Y16097*
X31423Y16015*
X31350Y15927*
X31283Y15835*
X31222Y15738*
X31169Y15638*
X31122Y15534*
X31083Y15426*
X31052Y15317*
X31028Y15205*
X31012Y15092*
X31004Y14979*
X31004Y14921*
X34606Y11319D02*
D01*
X34719Y11322*
X34833Y11334*
X34945Y11354*
X35056Y11382*
X35164Y11417*
X35270Y11460*
X35373Y11510*
X35471Y11567*
X35566Y11631*
X35656Y11701*
X35741Y11777*
X35820Y11859*
X35893Y11947*
X35960Y12039*
X36021Y12136*
X36074Y12236*
X36121Y12340*
X36160Y12448*
X36191Y12557*
X36215Y12669*
X36231Y12782*
X36239Y12895*
X36241Y12953*
X31004D02*
D01*
X31007Y12839*
X31019Y12725*
X31039Y12613*
X31067Y12502*
X31102Y12394*
X31145Y12288*
X31195Y12185*
X31252Y12087*
X31316Y11992*
X31386Y11902*
X31462Y11817*
X31544Y11738*
X31632Y11665*
X31724Y11598*
X31821Y11537*
X31921Y11484*
X32025Y11437*
X32133Y11398*
X32242Y11367*
X32354Y11343*
X32467Y11327*
X32580Y11319*
X32638Y11319*
X28200Y20624D02*
D01*
X28164Y20595*
X28130Y20565*
X28125Y20560*
Y19140D02*
D01*
X28158Y19109*
X28193Y19080*
X28200Y19076*
X25748Y17224D02*
D01*
X25861Y17227*
X25975Y17239*
X26087Y17259*
X26198Y17287*
X26306Y17322*
X26412Y17365*
X26515Y17415*
X26613Y17472*
X26708Y17536*
X26798Y17606*
X26883Y17682*
X26962Y17764*
X27035Y17852*
X27102Y17944*
X27163Y18041*
X27216Y18141*
X27263Y18245*
X27302Y18353*
X27333Y18462*
X27357Y18574*
X27373Y18687*
X27381Y18800*
X27382Y18858*
Y20827D02*
D01*
X27378Y20940*
X27366Y21054*
X27346Y21166*
X27318Y21277*
X27283Y21385*
X27240Y21491*
X27190Y21594*
X27133Y21692*
X27069Y21787*
X26999Y21877*
X26923Y21962*
X26841Y22041*
X26753Y22114*
X26661Y22181*
X26565Y22242*
X26464Y22295*
X26360Y22342*
X26252Y22381*
X26143Y22412*
X26031Y22436*
X25918Y22452*
X25805Y22460*
X25748Y22461*
X30739Y13927D02*
D01*
X30736Y13999*
X30728Y14072*
X30716Y14144*
X30698Y14214*
X30676Y14284*
X30648Y14351*
X30616Y14417*
X30580Y14480*
X30539Y14540*
X30494Y14598*
X30445Y14652*
X30393Y14702*
X30337Y14749*
X30278Y14792*
X30217Y14831*
X30152Y14865*
X30086Y14894*
X30017Y14919*
X29947Y14939*
X29876Y14955*
X29804Y14965*
X29731Y14970*
X29658*
X29585Y14965*
X29513Y14955*
X29442Y14939*
X29372Y14919*
X29303Y14894*
X29237Y14865*
X29173Y14831*
X29111Y14792*
X29052Y14749*
X28996Y14702*
X28944Y14652*
X28895Y14598*
X28850Y14540*
X28809Y14480*
X28773Y14417*
X28741Y14351*
X28713Y14284*
X28691Y14214*
X28673Y14144*
X28661Y14072*
X28653Y13999*
X28651Y13927*
X28653Y13854*
X28661Y13781*
X28673Y13709*
X28691Y13639*
X28713Y13569*
X28741Y13502*
X28773Y13436*
X28809Y13373*
X28850Y13313*
X28895Y13255*
X28944Y13201*
X28996Y13151*
X29052Y13104*
X29111Y13061*
X29173Y13022*
X29237Y12988*
X29303Y12959*
X29372Y12934*
X29442Y12914*
X29513Y12898*
X29585Y12888*
X29658Y12883*
X29731*
X29804Y12888*
X29876Y12898*
X29947Y12914*
X30017Y12934*
X30086Y12959*
X30152Y12988*
X30217Y13022*
X30278Y13061*
X30337Y13104*
X30393Y13151*
X30445Y13201*
X30494Y13255*
X30539Y13313*
X30580Y13373*
X30616Y13436*
X30648Y13502*
X30676Y13569*
X30698Y13639*
X30716Y13709*
X30728Y13781*
X30736Y13854*
X30739Y13927*
X23780Y38209D02*
D01*
X23666Y38205*
X23552Y38193*
X23440Y38173*
X23329Y38145*
X23221Y38110*
X23115Y38067*
X23012Y38017*
X22914Y37960*
X22819Y37896*
X22729Y37826*
X22644Y37750*
X22565Y37668*
X22492Y37580*
X22425Y37488*
X22364Y37392*
X22311Y37291*
X22264Y37187*
X22225Y37079*
X22194Y36970*
X22170Y36858*
X22154Y36745*
X22146Y36632*
X22145Y36575*
Y34606D02*
D01*
X22148Y34492*
X22160Y34378*
X22180Y34266*
X22208Y34155*
X22243Y34047*
X22286Y33941*
X22336Y33838*
X22393Y33740*
X22457Y33645*
X22527Y33555*
X22603Y33470*
X22685Y33391*
X22773Y33318*
X22865Y33251*
X22962Y33190*
X23062Y33137*
X23166Y33090*
X23274Y33051*
X23383Y33020*
X23495Y32996*
X23608Y32980*
X23721Y32972*
X23780Y32972*
X22145Y29357D02*
D01*
X22148Y29243*
X22160Y29129*
X22180Y29017*
X22208Y28906*
X22243Y28798*
X22286Y28692*
X22336Y28589*
X22393Y28491*
X22457Y28396*
X22527Y28306*
X22603Y28221*
X22685Y28142*
X22773Y28069*
X22865Y28002*
X22962Y27941*
X23062Y27888*
X23166Y27841*
X23274Y27802*
X23383Y27771*
X23495Y27747*
X23608Y27731*
X23721Y27723*
X23780Y27723*
Y32960D02*
D01*
X23666Y32956*
X23552Y32944*
X23440Y32924*
X23329Y32896*
X23221Y32861*
X23115Y32818*
X23012Y32768*
X22914Y32711*
X22819Y32647*
X22729Y32577*
X22644Y32501*
X22565Y32419*
X22492Y32331*
X22425Y32239*
X22364Y32142*
X22311Y32042*
X22264Y31938*
X22225Y31830*
X22194Y31721*
X22170Y31609*
X22154Y31496*
X22146Y31383*
X22145Y31325*
X23780Y27710D02*
D01*
X23666Y27706*
X23552Y27694*
X23440Y27674*
X23329Y27646*
X23221Y27611*
X23115Y27568*
X23012Y27518*
X22914Y27461*
X22819Y27397*
X22729Y27327*
X22644Y27251*
X22565Y27169*
X22492Y27081*
X22425Y26989*
X22364Y26892*
X22311Y26792*
X22264Y26688*
X22225Y26580*
X22194Y26471*
X22170Y26359*
X22154Y26246*
X22146Y26133*
X22145Y26076*
Y24108D02*
D01*
X22148Y23994*
X22160Y23880*
X22180Y23768*
X22208Y23657*
X22243Y23549*
X22286Y23443*
X22336Y23340*
X22393Y23242*
X22457Y23147*
X22527Y23057*
X22603Y22972*
X22685Y22893*
X22773Y22820*
X22865Y22753*
X22962Y22692*
X23062Y22639*
X23166Y22592*
X23274Y22553*
X23383Y22522*
X23495Y22498*
X23608Y22482*
X23721Y22474*
X23780Y22473*
X22145Y18858D02*
D01*
X22148Y18744*
X22160Y18630*
X22180Y18518*
X22208Y18407*
X22243Y18299*
X22286Y18193*
X22336Y18090*
X22393Y17992*
X22457Y17897*
X22527Y17807*
X22603Y17722*
X22685Y17643*
X22773Y17570*
X22865Y17503*
X22962Y17442*
X23062Y17389*
X23166Y17342*
X23274Y17303*
X23383Y17272*
X23495Y17248*
X23608Y17232*
X23721Y17224*
X23780Y17224*
Y22461D02*
D01*
X23666Y22457*
X23552Y22445*
X23440Y22425*
X23329Y22397*
X23221Y22362*
X23115Y22319*
X23012Y22269*
X22914Y22212*
X22819Y22148*
X22729Y22078*
X22644Y22002*
X22565Y21920*
X22492Y21832*
X22425Y21740*
X22364Y21643*
X22311Y21543*
X22264Y21439*
X22225Y21331*
X22194Y21222*
X22170Y21110*
X22154Y20997*
X22146Y20884*
X22145Y20827*
X21880Y35581D02*
D01*
X21877Y35653*
X21869Y35726*
X21857Y35798*
X21839Y35868*
X21817Y35938*
X21789Y36005*
X21757Y36071*
X21721Y36134*
X21700Y36167*
Y34994D02*
D01*
X21738Y35055*
X21773Y35119*
X21803Y35186*
X21828Y35254*
X21848Y35324*
X21864Y35395*
X21874Y35467*
X21879Y35540*
X21880Y35581*
Y30331D02*
D01*
X21877Y30403*
X21869Y30476*
X21857Y30548*
X21839Y30618*
X21817Y30688*
X21789Y30755*
X21757Y30821*
X21721Y30884*
X21700Y30918*
Y29745D02*
D01*
X21738Y29806*
X21773Y29870*
X21803Y29937*
X21828Y30005*
X21848Y30075*
X21864Y30146*
X21874Y30218*
X21879Y30291*
X21880Y30331*
X21700Y24495D02*
D01*
X21738Y24556*
X21773Y24620*
X21803Y24687*
X21828Y24755*
X21848Y24825*
X21864Y24896*
X21874Y24968*
X21879Y25041*
X21880Y25082*
D01*
X21877Y25154*
X21869Y25227*
X21857Y25299*
X21839Y25369*
X21817Y25439*
X21789Y25506*
X21757Y25572*
X21721Y25635*
X21700Y25668*
Y19246D02*
D01*
X21738Y19307*
X21773Y19371*
X21803Y19438*
X21828Y19506*
X21848Y19576*
X21864Y19647*
X21874Y19719*
X21879Y19792*
X21880Y19833*
D01*
X21877Y19905*
X21869Y19978*
X21857Y20050*
X21839Y20120*
X21817Y20190*
X21789Y20257*
X21757Y20323*
X21721Y20386*
X21700Y20419*
X20785Y14610D02*
D01*
X20751Y14640*
X20716Y14669*
X20679Y14695*
X20640Y14718*
X20599Y14739*
X20558Y14757*
X20515Y14772*
X20471Y14783*
X20426Y14792*
X20381Y14798*
X20336Y14800*
X20325Y14800*
X20075D02*
D01*
X20029Y14798*
X19984Y14793*
X19939Y14785*
X19895Y14774*
X19852Y14760*
X19810Y14743*
X19769Y14723*
X19730Y14701*
X19692Y14675*
X19657Y14647*
X19645Y14637*
X21100Y14025D02*
D01*
X21098Y14070*
X21093Y14115*
X21085Y14160*
X21074Y14204*
X21060Y14247*
X21043Y14289*
X21023Y14330*
X21001Y14369*
X20975Y14407*
X20947Y14442*
X20917Y14476*
X20910Y14485*
Y13315D02*
D01*
X20940Y13348*
X20969Y13383*
X20995Y13420*
X21018Y13459*
X21039Y13500*
X21057Y13541*
X21072Y13584*
X21083Y13628*
X21092Y13673*
X21098Y13718*
X21100Y13763*
X21100Y13775*
X20325Y13000D02*
D01*
X20370Y13001*
X20415Y13006*
X20460Y13014*
X20504Y13025*
X20547Y13039*
X20589Y13056*
X20630Y13076*
X20669Y13098*
X20707Y13124*
X20742Y13152*
X20776Y13182*
X20785Y13190*
X19615D02*
D01*
X19648Y13159*
X19683Y13130*
X19720Y13104*
X19759Y13081*
X19800Y13060*
X19841Y13042*
X19884Y13027*
X19928Y13016*
X19973Y13007*
X20018Y13001*
X20063Y12999*
X20075Y13000*
X18524Y14921D02*
D01*
X18520Y15034*
X18508Y15148*
X18488Y15260*
X18460Y15371*
X18425Y15479*
X18382Y15585*
X18332Y15688*
X18275Y15786*
X18211Y15881*
X18141Y15971*
X18065Y16056*
X17983Y16135*
X17895Y16208*
X17803Y16275*
X17707Y16336*
X17606Y16389*
X17502Y16436*
X17394Y16475*
X17285Y16506*
X17173Y16530*
X17060Y16546*
X16947Y16554*
X16890Y16556*
X14921D02*
D01*
X14807Y16552*
X14693Y16540*
X14581Y16520*
X14470Y16492*
X14362Y16457*
X14256Y16414*
X14153Y16364*
X14055Y16307*
X13960Y16243*
X13870Y16173*
X13785Y16097*
X13706Y16015*
X13633Y15927*
X13566Y15835*
X13505Y15738*
X13452Y15638*
X13405Y15534*
X13366Y15426*
X13335Y15317*
X13311Y15205*
X13295Y15092*
X13287Y14979*
X13287Y14921*
X13022Y14714D02*
D01*
X13019Y14786*
X13011Y14859*
X13000Y14929*
Y14500D02*
D01*
X13012Y14571*
X13019Y14644*
X13022Y14714*
X16890Y11319D02*
D01*
X17003Y11322*
X17117Y11334*
X17229Y11354*
X17340Y11382*
X17448Y11417*
X17554Y11460*
X17657Y11510*
X17755Y11567*
X17850Y11631*
X17940Y11701*
X18025Y11777*
X18104Y11859*
X18177Y11947*
X18244Y12039*
X18305Y12136*
X18358Y12236*
X18405Y12340*
X18444Y12448*
X18475Y12557*
X18499Y12669*
X18515Y12782*
X18523Y12895*
X18524Y12953*
X13022Y12746D02*
D01*
X13019Y12818*
X13011Y12891*
X13000Y12960*
Y12532D02*
D01*
X13012Y12603*
X13019Y12676*
X13022Y12746*
X13287Y12953D02*
D01*
X13290Y12839*
X13302Y12725*
X13322Y12613*
X13350Y12502*
X13385Y12394*
X13428Y12288*
X13478Y12185*
X13535Y12087*
X13599Y11992*
X13669Y11902*
X13745Y11817*
X13827Y11738*
X13915Y11665*
X14007Y11598*
X14104Y11537*
X14204Y11484*
X14308Y11437*
X14416Y11398*
X14525Y11367*
X14637Y11343*
X14750Y11327*
X14863Y11319*
X14921Y11319*
X25182Y30341D02*
X28901D01*
X25331Y25092D02*
X28901D01*
X25381Y19843D02*
X28902D01*
X28200Y36365D02*
Y38400D01*
X27382Y36600D02*
X28200D01*
X27382Y34800D02*
X28200D01*
X27382Y36291D02*
X28115D01*
X27382Y36300D02*
X28125D01*
X27382Y34891D02*
X28115D01*
X28200Y31124D02*
Y34816D01*
X27382Y31200D02*
X28200D01*
Y27750D02*
Y29576D01*
X27382Y29641D02*
X28124D01*
X27382Y31041D02*
X28106D01*
X27382Y29400D02*
X28200D01*
X27379Y34500D02*
X28200D01*
X27350Y36900D02*
X28200D01*
X27331Y34200D02*
X28200D01*
X27222Y33900D02*
X28200D01*
X26830Y37800D02*
X28200D01*
X26335Y38100D02*
X28200D01*
X27258Y37200D02*
X28200D01*
X27095Y37500D02*
X28200D01*
X27187Y32100D02*
X28200D01*
X26979Y32400D02*
X28200D01*
X27373Y31500D02*
X28200D01*
X27312Y31800D02*
X28200D01*
X27036Y33600D02*
X28200D01*
X26730Y33300D02*
X28200D01*
X26632Y32700D02*
X28200D01*
X26049Y33000D02*
X28200D01*
X27975Y26950D02*
X28200D01*
X27975Y27750D02*
X28200D01*
Y25874D02*
Y26950D01*
X27382Y26100D02*
X28200D01*
X28100Y27350D02*
Y27700D01*
Y27000D02*
Y27350D01*
X27750D02*
X28100D01*
X27382Y24300D02*
X28200D01*
X27373Y21000D02*
X28200D01*
X27382Y25792D02*
X28107D01*
X27382Y25800D02*
X28115D01*
X27382Y24392D02*
X28123D01*
X27379Y24000D02*
X28200D01*
X27259Y26700D02*
X28200D01*
X26488Y27900D02*
X28200D01*
X27350Y26400D02*
X28200D01*
X27331Y23700D02*
X28200D01*
X27362Y29100D02*
X28200D01*
X27284Y28800D02*
X28200D01*
X27140Y28500D02*
X28200D01*
X26902Y28200D02*
X28200D01*
X26980Y21900D02*
X28200D01*
X26634Y22200D02*
X28200D01*
X27312Y21300D02*
X28200D01*
X27188Y21600D02*
X28200D01*
X27221Y23400D02*
X28200D01*
X27035Y23100D02*
X28200D01*
X26728Y22800D02*
X28200D01*
X26042Y22500D02*
X28200D01*
X27900Y36291D02*
Y38400D01*
X27600Y36291D02*
Y38400D01*
X27382Y34606D02*
Y34891D01*
Y36291D02*
Y36575D01*
X26700Y37903D02*
Y38400D01*
X26400Y38073D02*
Y38400D01*
X27300Y37087D02*
Y38400D01*
X27000Y37625D02*
Y38400D01*
X27900Y31041D02*
Y34891D01*
X27600Y31041D02*
Y34891D01*
Y25792D02*
Y29641D01*
X27382Y31041D02*
Y31325D01*
X27300Y31837D02*
Y34094D01*
X27000Y32376D02*
Y33556D01*
X26700Y32654D02*
Y33278D01*
X26400Y32824D02*
Y33108D01*
X25800Y38208D02*
Y38400D01*
X25500Y38209D02*
Y38400D01*
X25200Y38209D02*
Y38400D01*
X23780Y38209D02*
X25748D01*
X24300D02*
Y38400D01*
X24000Y38209D02*
Y38400D01*
X24900Y38209D02*
Y38400D01*
X24600Y38209D02*
Y38400D01*
X26100Y32921D02*
Y33010D01*
Y38171D02*
Y38400D01*
X23700Y38207D02*
Y38400D01*
X23780Y32960D02*
X25748D01*
X23780Y32972D02*
X25748D01*
X27900Y27730D02*
Y29641D01*
X27744Y27581D02*
X27869Y27706D01*
X27096Y27000D02*
X27863D01*
X27382Y29357D02*
Y29641D01*
X27000Y27127D02*
Y28307D01*
X27700Y27225D02*
Y27475D01*
X27744Y27119D02*
X27869Y26994D01*
X27900Y25792D02*
Y26970D01*
X27382Y24108D02*
Y24392D01*
Y25792D02*
Y26076D01*
X27300Y26588D02*
Y28845D01*
Y21339D02*
Y23596D01*
X27000Y21877D02*
Y23057D01*
X26700Y27404D02*
Y28029D01*
X26831Y27300D02*
X27700D01*
X26338Y27600D02*
X27763D01*
X26400Y27575D02*
Y27858D01*
X26100Y27672D02*
Y27761D01*
X23780Y27710D02*
X25748D01*
X23780Y27723D02*
X25748D01*
X26700Y22155D02*
Y22779D01*
X26400Y22325D02*
Y22609D01*
X26100Y22423D02*
Y22512D01*
X23780Y22473D02*
X25748D01*
X23780Y22461D02*
X25748D01*
X35624Y16200D02*
X37300D01*
X35029Y16500D02*
X37300D01*
X36093Y15600D02*
X37300D01*
X35915Y15900D02*
X37300D01*
X35400Y16350D02*
Y17150D01*
X35100Y16479D02*
Y17150D01*
X36000Y15775D02*
Y17150D01*
X35700Y16136D02*
Y17150D01*
X37300Y11250D02*
Y17150D01*
X37200Y11250D02*
Y17150D01*
X36239Y15000D02*
X37300D01*
X36196Y15300D02*
X37300D01*
X36900Y11250D02*
Y17150D01*
X36600Y11250D02*
Y17150D01*
X36300Y11250D02*
Y17150D01*
X36241Y12953D02*
Y14921D01*
X34322Y17100D02*
X37300D01*
X34322Y17150D02*
X37300D01*
X34322Y16556D02*
X34606D01*
X34322Y16800D02*
X37300D01*
X32922Y16556D02*
Y17150D01*
X28200D02*
X32922D01*
X34500Y16556D02*
Y17150D01*
X34322Y16556D02*
Y17150D01*
X34800Y16544D02*
Y17150D01*
X32700Y16556D02*
Y17150D01*
X32638Y16556D02*
X32922D01*
X32100Y16464D02*
Y17150D01*
X31800Y16324D02*
Y17150D01*
X32400Y16538D02*
Y17150D01*
X36241Y13200D02*
X37300D01*
X36241Y13500D02*
X37300D01*
X36240Y12900D02*
X37300D01*
X36202Y12600D02*
X37300D01*
X36241Y14400D02*
X37300D01*
X36241Y14700D02*
X37300D01*
X36241Y13800D02*
X37300D01*
X36241Y14100D02*
X37300D01*
X36105Y12300D02*
X37300D01*
X35934Y12000D02*
X37300D01*
X35656Y11700D02*
X37300D01*
X35116Y11400D02*
X37300D01*
X36000Y11250D02*
Y12099D01*
X35700Y11250D02*
Y11738D01*
X35400Y11250D02*
Y11524D01*
X35100Y11250D02*
Y11395D01*
X34800Y11250D02*
Y11330D01*
X34500Y11250D02*
Y11319D01*
X32638D02*
X34606D01*
X33600Y11250D02*
Y11319D01*
X34200Y11250D02*
Y11319D01*
X33900Y11250D02*
Y11319D01*
X32700Y11250D02*
Y11319D01*
X32400Y11250D02*
Y11336D01*
X33300Y11250D02*
Y11319D01*
X33000Y11250D02*
Y11319D01*
X31800Y11250D02*
Y11550D01*
X31500Y11250D02*
Y11780D01*
X32100Y11250D02*
Y11410D01*
X28200Y20624D02*
Y24326D01*
X27382Y20700D02*
X28200D01*
X27382Y19143D02*
X28123D01*
X27900Y20543D02*
Y24392D01*
X27600Y20543D02*
Y24392D01*
X27382Y20543D02*
X28108D01*
X27382D02*
Y20827D01*
X28200Y17150D02*
Y19076D01*
X27382Y18900D02*
X28200D01*
X27362Y18600D02*
X28200D01*
X27900Y11250D02*
Y19143D01*
X27600Y11250D02*
Y19143D01*
X27382Y18858D02*
Y19143D01*
X27300Y11250D02*
Y18346D01*
X27284Y18300D02*
X28200D01*
X27139Y18000D02*
X28200D01*
X26901Y17700D02*
X28200D01*
X26486Y17400D02*
X28200D01*
X27000Y11250D02*
Y17808D01*
X23780Y17224D02*
X25748D01*
X26700Y11250D02*
Y17530D01*
X26400Y11250D02*
Y17360D01*
X26100Y11250D02*
Y17262D01*
X25800Y11250D02*
Y17225D01*
X24300Y11250D02*
Y17224D01*
X24000Y11250D02*
Y17224D01*
X25200Y11250D02*
Y17224D01*
X24600Y11250D02*
Y17224D01*
X31500Y16094D02*
Y17150D01*
X31200Y15698D02*
Y17150D01*
X30724Y14100D02*
X31004D01*
X30396Y14700D02*
X31004D01*
X30300Y14777D02*
Y17150D01*
X30000Y14925D02*
Y17150D01*
X30625Y14400D02*
X31004D01*
X30600Y14447D02*
Y17150D01*
X30731Y13800D02*
X31004D01*
X30647Y13500D02*
X31004D01*
X31200Y11250D02*
Y12176D01*
X30444Y13200D02*
X31004D01*
Y12953D02*
Y14921D01*
X30900Y11250D02*
Y17150D01*
X30600Y11250D02*
Y13407D01*
X30300Y11250D02*
Y13077D01*
X29700Y14971D02*
Y17150D01*
X29400Y14928D02*
Y17150D01*
X29881Y12900D02*
X31004D01*
X25500Y11250D02*
Y17224D01*
X24900Y11250D02*
Y17224D01*
X29100Y14784D02*
Y17150D01*
X28800Y14464D02*
Y17150D01*
X30000Y11250D02*
Y12929D01*
X29100Y11250D02*
Y13070D01*
X29700Y11250D02*
Y12883D01*
X29400Y11250D02*
Y12926D01*
X28500Y11250D02*
Y17150D01*
X28200Y11250D02*
Y17150D01*
X28800Y11250D02*
Y13390D01*
X23400Y38164D02*
Y38400D01*
Y32915D02*
Y33017D01*
X22500Y37591D02*
Y38400D01*
X22200Y36994D02*
Y38400D01*
X23100Y38061D02*
Y38400D01*
X22800Y37883D02*
Y38400D01*
X23100Y32812D02*
Y33120D01*
X22800Y32634D02*
Y33298D01*
X22500Y32342D02*
Y33590D01*
X22200Y31745D02*
Y34187D01*
X22500Y27093D02*
Y28340D01*
X22200Y26495D02*
Y28938D01*
X21700Y38400D02*
X28200D01*
X21700D02*
X28200D01*
X21700Y37800D02*
X22698D01*
X21700Y38100D02*
X23193D01*
X21700Y37200D02*
X22270D01*
X21700Y37500D02*
X22432D01*
X21700Y33600D02*
X22492D01*
X21700Y33900D02*
X22306D01*
X21700Y33000D02*
X23479D01*
X21700Y33300D02*
X22798D01*
X21700Y32400D02*
X22548D01*
X21700Y32700D02*
X22896D01*
X21700Y31800D02*
X22216D01*
X21700Y32100D02*
X22340D01*
X21700Y28500D02*
X22388D01*
X21700Y28800D02*
X22243D01*
X23400Y27666D02*
Y27767D01*
X23100Y27562D02*
Y27871D01*
X21700Y27600D02*
X23189D01*
X22800Y27384D02*
Y28049D01*
X21700Y28200D02*
X22625D01*
X21700Y23400D02*
X22306D01*
X21700Y27900D02*
X23039D01*
X23400Y22416D02*
Y22518D01*
X22500Y21843D02*
Y23091D01*
X22200Y21246D02*
Y23688D01*
X23100Y22313D02*
Y22621D01*
X22800Y22135D02*
Y22799D01*
X21700Y22800D02*
X22799D01*
X21700Y27300D02*
X22697D01*
X21700Y22200D02*
X22894D01*
X21700Y22500D02*
X23486D01*
X21700Y26700D02*
X22269D01*
X21700Y27000D02*
X22431D01*
X21700Y21900D02*
X22547D01*
X21700Y23100D02*
X22493D01*
X21700Y17400D02*
X23042D01*
X21700Y17700D02*
X22627D01*
X21700Y17100D02*
X32922D01*
X13000Y16800D02*
X32922D01*
X21700Y21300D02*
X22215D01*
X21700Y21600D02*
X22340D01*
X21700Y18000D02*
X22389D01*
X21700Y18300D02*
X22244D01*
X21792Y36000D02*
X22145D01*
X21700Y36600D02*
X22145D01*
X21874Y35700D02*
X22145D01*
X21763Y35100D02*
X22145D01*
X21700Y36167D02*
Y38400D01*
X21865Y35400D02*
X22145D01*
X21700Y34800D02*
X22145D01*
Y34606D02*
Y36575D01*
X21712Y30900D02*
X22145D01*
X21880Y30300D02*
X22145D01*
X21845Y30600D02*
X22145D01*
Y29357D02*
Y31325D01*
X21700Y30918D02*
Y34994D01*
X22145Y24108D02*
Y26076D01*
X21826Y30000D02*
X22145D01*
X21700Y34500D02*
X22149D01*
X21700Y36900D02*
X22178D01*
X21700Y31500D02*
X22155D01*
X21700Y34200D02*
X22197D01*
X21700Y36300D02*
X22145D01*
X21700Y31200D02*
X22145D01*
X21700Y29100D02*
X22166D01*
X21700Y29400D02*
X22145D01*
X21700Y26100D02*
X22145D01*
X21700Y26400D02*
X22178D01*
X21700Y25668D02*
Y29745D01*
Y25800D02*
X22145D01*
X21700Y29700D02*
X22145D01*
X21874Y25200D02*
X22145D01*
X21793Y25500D02*
X22145D01*
X21700Y23700D02*
X22197D01*
X21700Y24000D02*
X22149D01*
X21865Y24900D02*
X22145D01*
X21763Y24600D02*
X22145D01*
X21700Y20700D02*
X22145D01*
X21700Y21000D02*
X22154D01*
X21846Y20100D02*
X22145D01*
X21713Y20400D02*
X22145D01*
Y18858D02*
Y20827D01*
X21700Y20419D02*
Y24495D01*
X21880Y19800D02*
X22145D01*
X21826Y19500D02*
X22145D01*
X21700Y19200D02*
X22145D01*
X21700Y24300D02*
X22145D01*
X21700Y18600D02*
X22166D01*
X21700Y18900D02*
X22145D01*
X21700Y17800D02*
Y19246D01*
X13000Y17100D02*
X17350D01*
X21700Y17050D02*
Y17800D01*
X13000Y17150D02*
X21700Y17050D01*
X16800Y16556D02*
Y17106D01*
X16200Y16556D02*
Y17113D01*
X15600Y16556D02*
Y17120D01*
X15300Y16556D02*
Y17124D01*
X15900Y16556D02*
Y17117D01*
X23100Y11250D02*
Y17372D01*
X21000Y14371D02*
Y17058D01*
X20785Y14610D02*
X20910Y14485D01*
X20671Y14700D02*
X28994D01*
X20400Y14796D02*
Y17065D01*
X20100Y14800D02*
Y17068D01*
X20700Y14681D02*
Y17061D01*
X22800Y11250D02*
Y17550D01*
X22500Y11250D02*
Y17842D01*
X23700Y11250D02*
Y17226D01*
X23400Y11250D02*
Y17269D01*
X22200Y11250D02*
Y18439D01*
X21900Y11250D02*
Y38400D01*
X21600Y11250D02*
Y17051D01*
X21300Y11250D02*
Y17055D01*
X17907Y16200D02*
X31620D01*
X17312Y16500D02*
X32215D01*
X18376Y15600D02*
X31151D01*
X18199Y15900D02*
X31329D01*
X19800Y14739D02*
Y17072D01*
X18480Y15300D02*
X31048D01*
X20075Y14800D02*
X20325D01*
X18522Y15000D02*
X31005D01*
X19500Y14637D02*
Y17075D01*
X18524Y14637D02*
X19645D01*
X18524Y14700D02*
X19729D01*
X18900Y14637D02*
Y17082D01*
X18600Y14637D02*
Y17086D01*
X19200Y14637D02*
Y17079D01*
X18524Y14637D02*
Y14921D01*
X21096Y14100D02*
X28666D01*
X20981Y14400D02*
X28765D01*
X21039Y13500D02*
X28743D01*
X20794Y13200D02*
X28946D01*
X21100Y13775D02*
Y14025D01*
Y13800D02*
X28659D01*
X21000Y11250D02*
Y13429D01*
X20785Y13190D02*
X20910Y13315D01*
X20700Y11250D02*
Y13119D01*
X20400Y11250D02*
Y13004D01*
X19800Y11250D02*
Y13061D01*
X20100Y11250D02*
Y13000D01*
X20075D02*
X20325D01*
X18523Y12900D02*
X29509D01*
X18485Y12600D02*
X31042D01*
X18388Y12300D02*
X31140D01*
X18218Y12000D02*
X31310D01*
X19569Y13237D02*
X19615Y13190D01*
X18524Y13237D02*
X19569D01*
X18524Y13200D02*
X19606D01*
X19500Y11250D02*
Y13237D01*
X17939Y11700D02*
X31588D01*
X17399Y11400D02*
X32128D01*
X13000Y11250D02*
X37300D01*
X18900D02*
Y13237D01*
X18600Y11250D02*
Y13237D01*
X19200Y11250D02*
Y13237D01*
X17400Y16474D02*
Y17099D01*
X17100Y16542D02*
Y17103D01*
X17700Y16341D02*
Y17096D01*
X14921Y16556D02*
X16890D01*
X14700Y16540D02*
Y17130D01*
X14400Y16470D02*
Y17134D01*
X16500Y16556D02*
Y17110D01*
X15000Y16556D02*
Y17127D01*
X18300Y15747D02*
Y17089D01*
X18000Y16120D02*
Y17093D01*
X13800Y16110D02*
Y17141D01*
X13500Y15728D02*
Y17144D01*
X14100Y16334D02*
Y17137D01*
X13287Y12953D02*
Y14921D01*
X13000Y16200D02*
X13904D01*
X13000Y16500D02*
X14499D01*
X13000Y15600D02*
X13435D01*
X13000Y15900D02*
X13613D01*
X13000Y15300D02*
X13332D01*
X13000Y14929D02*
Y17150D01*
Y15000D02*
X13289D01*
X13022Y14700D02*
X13287D01*
X13000Y14400D02*
X13287D01*
X13000Y13800D02*
X13287D01*
X13000Y14100D02*
X13287D01*
X13200Y11250D02*
Y17148D01*
X13000Y13500D02*
X13287D01*
X13000Y12960D02*
Y14500D01*
X18524Y12953D02*
Y13237D01*
X18300Y11250D02*
Y12127D01*
X18000Y11250D02*
Y11754D01*
X17700Y11250D02*
Y11533D01*
X17400Y11250D02*
Y11400D01*
X17100Y11250D02*
Y11332D01*
X14921Y11319D02*
X16890D01*
X16200Y11250D02*
Y11319D01*
X15900Y11250D02*
Y11319D01*
X16800Y11250D02*
Y11319D01*
X16500Y11250D02*
Y11319D01*
X15000Y11250D02*
Y11319D01*
X14700Y11250D02*
Y11334D01*
X15600Y11250D02*
Y11319D01*
X15300Y11250D02*
Y11319D01*
X13012Y12600D02*
X13326D01*
X13000Y12300D02*
X13423D01*
X13000Y11700D02*
X13872D01*
X13000Y12000D02*
X13593D01*
X13000Y13200D02*
X13287D01*
X13011Y12900D02*
X13288D01*
X14100Y11250D02*
Y11540D01*
X14400Y11250D02*
Y11404D01*
X13000Y11400D02*
X14412D01*
X13500Y11250D02*
Y12146D01*
X13000Y11250D02*
Y12532D01*
X13800Y11250D02*
Y11764D01*
X32950Y34400D02*
Y37850D01*
X31900Y33350D02*
X32950Y34400D01*
X31700Y39100D02*
X32950Y37850D01*
X15400Y28750D02*
Y33750D01*
X14950Y28300D02*
X15400Y28750D01*
X14150Y28300D02*
X14950D01*
X15906Y13937D02*
X20163D01*
X28869Y35591D02*
X28909Y35550D01*
X28901Y30341D02*
X28909Y30350D01*
X28901Y25092D02*
X28909Y25100D01*
X28902Y19843D02*
X28909Y19850D01*
X28902Y19843D02*
X28909D01*
X24964Y35591D02*
X28709D01*
X28869*
X28909*
X28901Y30341D02*
X28909D01*
X28901Y25092D02*
X28909D01*
X20163Y13937D02*
X20200Y13900D01*
X33622Y13937D02*
Y18328D01*
X32350Y32050D02*
X37600D01*
X32200Y31650D02*
X37450D01*
X37850Y31250*
Y20950D02*
Y31250D01*
X37600Y20700D02*
X37850Y20950D01*
X38400Y21750D02*
Y31800D01*
X37100Y33100D02*
X38400Y31800D01*
X32350Y33100D02*
X37100D01*
X32350Y34350D02*
X32450D01*
X38100Y20700D02*
Y31550D01*
X37600Y32050D02*
X38100Y31550D01*
X15400Y33750D02*
X20750Y39100D01*
X31650Y32200D02*
X32200Y31650D01*
X31650Y32200D02*
Y33650D01*
X32350Y34350*
X31900Y32750D02*
Y33350D01*
Y32750D02*
X32075Y32575D01*
X32350*
X20750Y39100D02*
X31700D01*
G54D23*
X30700Y30750D02*
X34500D01*
X35300Y29950*
Y29500D02*
Y29950D01*
Y27150D02*
Y29500D01*
X36050Y29850D02*
X37300D01*
G54D25*
X19584Y20816D02*
X19600Y20800D01*
X18000Y20816D02*
X19584D01*
X18000Y19450D02*
X18050Y19400D01*
X18000Y19450D02*
Y20816D01*
X16934D02*
X18000D01*
G54D31*
X37300Y30850D03*
G54D32*
X18000Y24750D03*
Y26750D03*
Y28750D03*
Y22784D03*
Y20816D03*
G54D33*
X15893Y22750D03*
G54D34*
X28100Y27350D03*
X28709Y35591D03*
Y30350D03*
Y25100D03*
Y19850D03*
X20200Y13900D03*
X33622Y18328D03*
G54D35*
X33650Y28100D03*
X35300Y29500D03*
X30700Y30750D03*
X35300Y27150D03*
X35883Y28417D03*
X32350Y32050D03*
Y34350D03*
X38100Y20700D03*
X37600D03*
X38400Y21750D03*
X32350Y33100D03*
X14150Y28300D03*
X32350Y32575D03*
X30150Y29350D03*
X18500Y33550D03*
X16600D03*
X32550Y21400D03*
Y20700D03*
Y19950D03*
X37400Y35250D03*
X33800Y29500D03*
G54D36*
X15906Y13937D03*
X24764Y35591D03*
Y30341D03*
Y25092D03*
Y19843D03*
X33622Y13937D03*
G54D37*
X18100Y34150D02*
X19050D01*
X16450Y33500D02*
X19350Y36400D01*
X31150Y34500D02*
X32150Y35500D01*
Y37450*
X31350Y38250D02*
X32150Y37450D01*
X29900Y38250D02*
X31350D01*
X18100Y34150D02*
X19350Y35400D01*
X19050Y34150D02*
X19450Y34550D01*
X19350Y35400D02*
Y36400D01*
X16450Y28000D02*
Y33500D01*
X15500Y27050D02*
X16450Y28000D01*
X14700Y27050D02*
X15500D01*
X11800Y16150D02*
Y20250D01*
X11000Y18400D02*
X11150Y18550D01*
X11000Y15900D02*
Y18400D01*
Y15900D02*
X11550D01*
X11800Y16150*
X11450Y19900D02*
X11800Y20250D01*
X11250Y19900D02*
X11450D01*
X11250D02*
Y21550D01*
X11300Y21600*
X12900*
X14700Y34750D02*
X18750Y38800D01*
X14700Y35700D02*
X15650Y36650D01*
X14700Y34750D02*
Y35700D01*
X17050Y38800D02*
X18750D01*
G54D38*
X31100Y19100D03*
G54D39*
X11375Y11175D03*
G54D40*
X15875Y20625D03*
G54D41*
X12100Y28350D03*
G54D42*
X12950Y32350D03*
G54D43*
X10500Y22975D03*
G54D44*
X13550Y21675D03*
G54D45*
X12650Y25700D03*
G54D46*
X14825Y18850D03*
G54D47*
X19700Y27350D03*
G54D48*
X15700Y25700D03*
G54D49*
X16650Y27175D03*
G54D50*
X14925Y37025D03*
G54D51*
X14150Y38550D03*
G54D52*
X31975Y37550D03*
G54D53*
X31900Y36100D03*
G54D54*
X30500Y32950D03*
G54D55*
X30950Y36550D03*
G54D56*
X29875Y34050D03*
G54D57*
X33350Y21775D03*
G54D58*
X17850Y32050D03*
G54D59*
X38651Y15180D03*
G54D60*
X36275Y34425D03*
G54D61*
X29701Y29167D03*
G54D62*
X32025Y28500D03*
G54D63*
X34700Y26100D03*
G54D64*
X36150Y28425D03*
G54D65*
X18246Y33477D03*
G54D66*
X16775Y33275D03*
G54D67*
X39025Y24675D03*
G54D68*
X38600Y34225D03*
G54D69*
X36825Y19150D03*
G54D70*
X31925Y26950D03*
G54D71*
X29525Y27300D03*
G54D72*
X35700Y25025D03*
G54D73*
X36275Y38950D03*
G54D74*
X34700Y37250D03*
G54D75*
X37275Y38125D03*
G54D76*
X38550Y36350D03*
G54D77*
X14075Y36950D03*
G54D78*
X16400Y37875D03*
M02*