%FSLAX24Y24*%
%MOIN*%
%SFA1B1*%

%IPPOS*%
%ADD22C,0.010000*%
%ADD79C,0.007900*%
%ADD80C,0.009800*%
%ADD81C,0.023600*%
%ADD82C,0.005000*%
%LNde-250624-1*%
%LPD*%
G54D22*
X12495Y25961D02*
D01*
X12495Y25954*
X12495Y25948*
X12497Y25941*
X12498Y25935*
X12500Y25929*
X12503Y25923*
X12505Y25917*
X12509Y25911*
X12512Y25906*
X12516Y25901*
X12521Y25896*
X12525Y25891*
X12530Y25887*
X12535Y25883*
X12541Y25880*
X12547Y25877*
X12553Y25874*
X12559Y25872*
X12565Y25870*
X12571Y25869*
X12578Y25868*
X12584Y25868*
X12591*
X12597Y25868*
X12604Y25869*
X12610Y25870*
X12616Y25872*
X12622Y25874*
X12628Y25877*
X12634Y25880*
X12640Y25883*
X12645Y25887*
X12650Y25891*
X12654Y25896*
X12659Y25901*
X12663Y25906*
X12666Y25911*
X12670Y25917*
X12672Y25923*
X12675Y25929*
X12677Y25935*
X12678Y25941*
X12680Y25948*
X12680Y25954*
X12682Y25961*
X13018Y35187D02*
D01*
X13018Y35180*
X13018Y35174*
X13020Y35167*
X13021Y35161*
X13023Y35155*
X13026Y35149*
X13028Y35143*
X13032Y35137*
X13035Y35132*
X13039Y35127*
X13044Y35122*
X13048Y35117*
X13053Y35113*
X13058Y35109*
X13064Y35106*
X13070Y35103*
X13076Y35100*
X13082Y35098*
X13088Y35096*
X13094Y35095*
X13101Y35094*
X13107Y35094*
X13114*
X13120Y35094*
X13127Y35095*
X13133Y35096*
X13139Y35098*
X13145Y35100*
X13151Y35103*
X13157Y35106*
X13163Y35109*
X13168Y35113*
X13173Y35117*
X13177Y35122*
X13182Y35127*
X13186Y35132*
X13189Y35137*
X13193Y35143*
X13195Y35149*
X13198Y35155*
X13200Y35161*
X13201Y35167*
X13203Y35174*
X13203Y35180*
X13205Y35187*
X16425Y23797D02*
X19575D01*
X16425Y29703D02*
X19575D01*
Y23797D02*
Y29703D01*
X16425Y23797D02*
Y29703D01*
Y19832D02*
Y23768D01*
Y19832D02*
X19625D01*
X16425Y23768D02*
X19625D01*
Y19832D02*
Y23768D01*
X12495Y25961D02*
X12826D01*
X12346D02*
X12682D01*
X12346Y24839D02*
Y25961D01*
Y24839D02*
X12826D01*
Y25961*
X14180Y25250D02*
X15730D01*
X14170Y26840D02*
X15740D01*
X14163Y25263D02*
Y26837D01*
X15737Y25263D02*
Y26837D01*
X13018Y35187D02*
X13350D01*
X12870D02*
X13205D01*
X12870Y34065D02*
Y35187D01*
Y34065D02*
X13350D01*
Y35187*
X14180Y34600D02*
X15730D01*
X14170Y36190D02*
X15740D01*
X14163Y34613D02*
Y36187D01*
X15737Y34613D02*
Y36187D01*
X13150Y21900D02*
X12750D01*
Y21600*
X12950*
X12750*
Y21300*
X13350D02*
X13550D01*
X13450*
Y21900*
X13350Y21800*
X10617Y37850D02*
X10350D01*
Y37650*
X10483*
X10350*
Y37450*
X10750Y37850D02*
Y37450D01*
X10950*
X11016Y37517*
Y37783*
X10950Y37850*
X10750*
X11150Y37450D02*
X11283D01*
X11216*
Y37850*
X11150Y37783*
X36867Y37800D02*
X36600D01*
Y37600*
X36733*
X36600*
Y37400*
X37000Y37800D02*
Y37400D01*
X37200*
X37266Y37467*
Y37733*
X37200Y37800*
X37000*
X37666Y37400D02*
X37400D01*
X37666Y37667*
Y37733*
X37600Y37800*
X37466*
X37400Y37733*
X20250Y21100D02*
X20150Y21200D01*
X19950*
X19850Y21100*
Y20700*
X19950Y20600*
X20150*
X20250Y20700*
Y20900*
X20050*
X20450Y20600D02*
Y21200D01*
X20850Y20600*
Y21200*
X21050D02*
Y20600D01*
X21350*
X21449Y20700*
Y21100*
X21350Y21200*
X21050*
X20250Y22500D02*
X19850D01*
X20250Y22900*
Y23000*
X20150Y23100*
X19950*
X19850Y23000*
X20750Y22500D02*
Y23100D01*
X20450Y22800*
X20850*
X21050Y23100D02*
Y22700D01*
X21250Y22500*
X21449Y22700*
Y23100*
X22049D02*
Y22500D01*
X21749*
X21649Y22600*
Y22800*
X21749Y22900*
X22049*
X22649D02*
X22349D01*
X22249Y22800*
Y22600*
X22349Y22500*
X22649*
X19850Y24500D02*
Y23900D01*
X20150*
X20250Y24000*
Y24400*
X20150Y24500*
X19850*
X20450D02*
X20650D01*
X20550*
Y23900*
X20450*
X20650*
X20950D02*
Y24500D01*
X21250*
X21350Y24400*
Y24200*
X21250Y24100*
X20950*
X21150D02*
X21350Y23900D01*
X22549D02*
X22149D01*
X22549Y24300*
Y24400*
X22449Y24500*
X22249*
X22149Y24400*
X19850Y27000D02*
Y26600D01*
X20050Y26400*
X20250Y26600*
Y27000*
X20850D02*
X20450D01*
Y26400*
X20850*
X20450Y26700D02*
X20650D01*
X21050Y26400D02*
Y27000D01*
X21449Y26400*
Y27000*
X21649D02*
X22049D01*
X21849*
Y26400*
X19850Y29050D02*
Y28450D01*
X20150*
X20250Y28550*
Y28950*
X20150Y29050*
X19850*
X20450D02*
X20650D01*
X20550*
Y28450*
X20450*
X20650*
X20950D02*
Y29050D01*
X21250*
X21350Y28950*
Y28750*
X21250Y28650*
X20950*
X21150D02*
X21350Y28450D01*
X22149D02*
X22349D01*
X22249*
Y29050*
X22149Y28950*
G54D79*
X33554Y26114D02*
D01*
X33553Y26116*
X33553Y26119*
X33553Y26122*
X33552Y26124*
X33551Y26127*
X33550Y26129*
X33549Y26132*
X33548Y26134*
X33546Y26136*
X33544Y26139*
X33543Y26141*
X33541Y26142*
X33539Y26144*
X33536Y26146*
X33534Y26147*
X33532Y26149*
X33529Y26150*
X33527Y26151*
X33524Y26151*
X33521Y26152*
X33519Y26152*
X33516Y26152*
X33513*
X33510Y26152*
X33508Y26152*
X33505Y26151*
X33502Y26151*
X33500Y26150*
X33497Y26149*
X33495Y26147*
X33493Y26146*
X33490Y26144*
X33488Y26142*
X33486Y26141*
X33485Y26139*
X33483Y26136*
X33481Y26134*
X33480Y26132*
X33479Y26129*
X33478Y26127*
X33477Y26124*
X33476Y26122*
X33476Y26119*
X33476Y26116*
X33476Y26114*
X33476Y26111*
X33476Y26108*
X33476Y26105*
X33477Y26103*
X33478Y26100*
X33479Y26098*
X33480Y26095*
X33481Y26093*
X33483Y26091*
X33485Y26088*
X33486Y26086*
X33488Y26085*
X33490Y26083*
X33493Y26081*
X33495Y26080*
X33497Y26078*
X33500Y26077*
X33502Y26076*
X33505Y26076*
X33508Y26075*
X33510Y26075*
X33513Y26075*
X33516*
X33519Y26075*
X33521Y26075*
X33524Y26076*
X33527Y26076*
X33529Y26077*
X33532Y26078*
X33534Y26080*
X33536Y26081*
X33539Y26083*
X33541Y26085*
X33543Y26086*
X33544Y26088*
X33546Y26091*
X33548Y26093*
X33549Y26095*
X33550Y26098*
X33551Y26100*
X33552Y26103*
X33553Y26105*
X33553Y26108*
X33553Y26111*
X33554Y26114*
X34051Y33810D02*
X36649D01*
X34051Y32590D02*
X36649D01*
Y33810*
X34051Y32590D02*
Y33810D01*
X36943Y34819D02*
X37257D01*
X37543D02*
X37857D01*
X36800Y31350D02*
X37800D01*
Y28350D02*
Y31350D01*
X36800Y28350D02*
X37800D01*
X36800D02*
Y31350D01*
X34252Y30394D02*
Y30906D01*
X34281Y29793D02*
Y30107D01*
X34391Y28533D02*
X34509D01*
X34391Y27667D02*
X34509D01*
X34391D02*
Y28533D01*
X34509Y27667D02*
Y28533D01*
X19415Y31511D02*
Y31787D01*
X19100Y31511D02*
X19415D01*
X18233D02*
Y31787D01*
Y31511D02*
X18548D01*
X17541Y31524D02*
Y31800D01*
X17226Y31524D02*
X17541D01*
X16359D02*
Y31800D01*
Y31524D02*
X16674D01*
X13543Y24881D02*
X13857D01*
X13298Y24044D02*
Y24556D01*
X35243Y27431D02*
X35557D01*
X32781Y30543D02*
Y30857D01*
Y29893D02*
Y30207D01*
X12557Y22199D02*
Y23301D01*
X14643Y22199D02*
Y23301D01*
X12557Y22199D02*
X14643D01*
X12557Y23301D02*
X14643D01*
X10252Y24044D02*
Y24556D01*
Y24944D02*
Y25456D01*
X12681Y26943D02*
Y27257D01*
X11281Y28143D02*
Y28457D01*
X12348Y28794D02*
Y29306D01*
X12552Y28794D02*
Y29306D01*
Y29594D02*
Y30106D01*
Y30394D02*
Y30906D01*
Y31194D02*
Y31706D01*
X13898Y32694D02*
Y33206D01*
X13819Y33493D02*
Y33807D01*
X12531Y35443D02*
Y35757D01*
X12402Y36094D02*
Y36606D01*
X12452Y36894D02*
Y37406D01*
X12531Y37693D02*
Y38007D01*
X21134Y35981D02*
X21624D01*
Y35201D02*
X21765Y35349D01*
X21624Y35981D02*
X21765Y35833D01*
X21124Y35201D02*
X21624D01*
X21765Y35349D02*
Y35833D01*
X19937Y35207D02*
Y35974D01*
X20618*
X19937Y35207D02*
X20618D01*
X21134Y30731D02*
X21624D01*
Y29951D02*
X21765Y30100D01*
X21624Y30731D02*
X21765Y30583D01*
X21124Y29951D02*
X21624D01*
X21765Y30100D02*
Y30583D01*
X19937Y29957D02*
Y30725D01*
X20618*
X19937Y29957D02*
X20618D01*
X21134Y25482D02*
X21624D01*
Y24702D02*
X21765Y24850D01*
X21624Y25482D02*
X21765Y25334D01*
X21124Y24702D02*
X21624D01*
X21765Y24850D02*
Y25334D01*
X19937Y24708D02*
Y25476D01*
X20618*
X19937Y24708D02*
X20618D01*
X21134Y20233D02*
X21624D01*
Y19453D02*
X21765Y19601D01*
X21624Y20233D02*
X21765Y20085D01*
X21124Y19453D02*
X21624D01*
X21765Y19601D02*
Y20085D01*
X19937Y19459D02*
Y20226D01*
X20618*
X19937Y19459D02*
X20618D01*
X12275Y13146D02*
X12766D01*
Y12366D02*
X12907Y12514D01*
X12766Y13146D02*
X12907Y12998D01*
X12265Y12366D02*
X12766D01*
X12907Y12514D02*
Y12998D01*
X11078Y12372D02*
Y13140D01*
X11760*
X11078Y12372D02*
X11760D01*
X12275Y15114D02*
X12766D01*
Y14334D02*
X12907Y14483D01*
X12766Y15114D02*
X12907Y14966D01*
X12265Y14334D02*
X12766D01*
X12907Y14483D02*
Y14966D01*
X11078Y14341D02*
Y15108D01*
X11760*
X11078Y14341D02*
X11760D01*
X29992Y14327D02*
X30483D01*
X30482Y13547D02*
X30624Y13696D01*
X30483Y14327D02*
X30624Y14179D01*
X29982Y13547D02*
X30482D01*
X30624Y13696D02*
Y14179D01*
X28795Y13553D02*
Y14321D01*
X29476*
X28795Y13553D02*
X29476D01*
G54D80*
X36836Y34322D02*
D01*
X36835Y34325*
X36835Y34328*
X36834Y34332*
X36834Y34335*
X36833Y34338*
X36831Y34341*
X36830Y34345*
X36828Y34347*
X36826Y34350*
X36824Y34353*
X36822Y34356*
X36819Y34358*
X36817Y34360*
X36814Y34362*
X36811Y34364*
X36808Y34366*
X36805Y34367*
X36802Y34368*
X36798Y34369*
X36795Y34370*
X36792Y34370*
X36788Y34370*
X36785*
X36781Y34370*
X36778Y34370*
X36775Y34369*
X36771Y34368*
X36768Y34367*
X36765Y34366*
X36762Y34364*
X36759Y34362*
X36756Y34360*
X36754Y34358*
X36751Y34356*
X36749Y34353*
X36747Y34350*
X36745Y34347*
X36743Y34345*
X36742Y34341*
X36740Y34338*
X36739Y34335*
X36739Y34332*
X36738Y34328*
X36738Y34325*
X36738Y34322*
X36738Y34318*
X36738Y34315*
X36739Y34311*
X36739Y34308*
X36740Y34305*
X36742Y34302*
X36743Y34298*
X36745Y34296*
X36747Y34293*
X36749Y34290*
X36751Y34287*
X36754Y34285*
X36756Y34283*
X36759Y34281*
X36762Y34279*
X36765Y34277*
X36768Y34276*
X36771Y34275*
X36775Y34274*
X36778Y34273*
X36781Y34273*
X36785Y34273*
X36788*
X36792Y34273*
X36795Y34273*
X36798Y34274*
X36802Y34275*
X36805Y34276*
X36808Y34277*
X36811Y34279*
X36814Y34281*
X36817Y34283*
X36819Y34285*
X36822Y34287*
X36824Y34290*
X36826Y34293*
X36828Y34296*
X36830Y34298*
X36831Y34302*
X36833Y34305*
X36834Y34308*
X36834Y34311*
X36835Y34315*
X36835Y34318*
X36836Y34322*
X34125Y28651D02*
D01*
X34124Y28654*
X34124Y28657*
X34123Y28661*
X34123Y28664*
X34122Y28667*
X34120Y28670*
X34119Y28674*
X34117Y28676*
X34115Y28679*
X34113Y28682*
X34111Y28685*
X34108Y28687*
X34106Y28689*
X34103Y28691*
X34100Y28693*
X34097Y28695*
X34094Y28696*
X34091Y28697*
X34087Y28698*
X34084Y28699*
X34081Y28699*
X34077Y28699*
X34074*
X34070Y28699*
X34067Y28699*
X34064Y28698*
X34060Y28697*
X34057Y28696*
X34054Y28695*
X34051Y28693*
X34048Y28691*
X34045Y28689*
X34043Y28687*
X34040Y28685*
X34038Y28682*
X34036Y28679*
X34034Y28676*
X34032Y28674*
X34031Y28670*
X34029Y28667*
X34028Y28664*
X34028Y28661*
X34027Y28657*
X34027Y28654*
X34027Y28651*
X34027Y28647*
X34027Y28644*
X34028Y28640*
X34028Y28637*
X34029Y28634*
X34031Y28631*
X34032Y28627*
X34034Y28625*
X34036Y28622*
X34038Y28619*
X34040Y28616*
X34043Y28614*
X34045Y28612*
X34048Y28610*
X34051Y28608*
X34054Y28606*
X34057Y28605*
X34060Y28604*
X34064Y28603*
X34067Y28602*
X34070Y28602*
X34074Y28602*
X34077*
X34081Y28602*
X34084Y28602*
X34087Y28603*
X34091Y28604*
X34094Y28605*
X34097Y28606*
X34100Y28608*
X34103Y28610*
X34106Y28612*
X34108Y28614*
X34111Y28616*
X34113Y28619*
X34115Y28622*
X34117Y28625*
X34119Y28627*
X34120Y28631*
X34122Y28634*
X34123Y28637*
X34123Y28640*
X34124Y28644*
X34124Y28647*
X34125Y28651*
X19582Y32200D02*
D01*
X19581Y32203*
X19581Y32206*
X19580Y32210*
X19580Y32213*
X19579Y32216*
X19577Y32219*
X19576Y32223*
X19574Y32225*
X19572Y32228*
X19570Y32231*
X19568Y32234*
X19565Y32236*
X19563Y32238*
X19560Y32240*
X19557Y32242*
X19554Y32244*
X19551Y32245*
X19548Y32246*
X19544Y32247*
X19541Y32248*
X19538Y32248*
X19534Y32248*
X19531*
X19527Y32248*
X19524Y32248*
X19521Y32247*
X19517Y32246*
X19514Y32245*
X19511Y32244*
X19508Y32242*
X19505Y32240*
X19502Y32238*
X19500Y32236*
X19497Y32234*
X19495Y32231*
X19493Y32228*
X19491Y32225*
X19489Y32223*
X19488Y32219*
X19486Y32216*
X19485Y32213*
X19485Y32210*
X19484Y32206*
X19484Y32203*
X19484Y32200*
X19484Y32196*
X19484Y32193*
X19485Y32189*
X19485Y32186*
X19486Y32183*
X19488Y32180*
X19489Y32176*
X19491Y32174*
X19493Y32171*
X19495Y32168*
X19497Y32165*
X19500Y32163*
X19502Y32161*
X19505Y32159*
X19508Y32157*
X19511Y32155*
X19514Y32154*
X19517Y32153*
X19521Y32152*
X19524Y32151*
X19527Y32151*
X19531Y32151*
X19534*
X19538Y32151*
X19541Y32151*
X19544Y32152*
X19548Y32153*
X19551Y32154*
X19554Y32155*
X19557Y32157*
X19560Y32159*
X19563Y32161*
X19565Y32163*
X19568Y32165*
X19570Y32168*
X19572Y32171*
X19574Y32174*
X19576Y32176*
X19577Y32180*
X19579Y32183*
X19580Y32186*
X19580Y32189*
X19581Y32193*
X19581Y32196*
X19582Y32200*
X17708Y32213D02*
D01*
X17707Y32216*
X17707Y32219*
X17706Y32223*
X17706Y32226*
X17705Y32229*
X17703Y32232*
X17702Y32236*
X17700Y32238*
X17698Y32241*
X17696Y32244*
X17694Y32247*
X17691Y32249*
X17689Y32251*
X17686Y32253*
X17683Y32255*
X17680Y32257*
X17677Y32258*
X17674Y32259*
X17670Y32260*
X17667Y32261*
X17664Y32261*
X17660Y32261*
X17657*
X17653Y32261*
X17650Y32261*
X17647Y32260*
X17643Y32259*
X17640Y32258*
X17637Y32257*
X17634Y32255*
X17631Y32253*
X17628Y32251*
X17626Y32249*
X17623Y32247*
X17621Y32244*
X17619Y32241*
X17617Y32238*
X17615Y32236*
X17614Y32232*
X17612Y32229*
X17611Y32226*
X17611Y32223*
X17610Y32219*
X17610Y32216*
X17610Y32213*
X17610Y32209*
X17610Y32206*
X17611Y32202*
X17611Y32199*
X17612Y32196*
X17614Y32193*
X17615Y32189*
X17617Y32187*
X17619Y32184*
X17621Y32181*
X17623Y32178*
X17626Y32176*
X17628Y32174*
X17631Y32172*
X17634Y32170*
X17637Y32168*
X17640Y32167*
X17643Y32166*
X17647Y32165*
X17650Y32164*
X17653Y32164*
X17657Y32164*
X17660*
X17664Y32164*
X17667Y32164*
X17670Y32165*
X17674Y32166*
X17677Y32167*
X17680Y32168*
X17683Y32170*
X17686Y32172*
X17689Y32174*
X17691Y32176*
X17694Y32178*
X17696Y32181*
X17698Y32184*
X17700Y32187*
X17702Y32189*
X17703Y32193*
X17705Y32196*
X17706Y32199*
X17706Y32202*
X17707Y32206*
X17707Y32209*
X17708Y32213*
G54D81*
X36374Y33417D02*
D01*
X36373Y33425*
X36372Y33433*
X36371Y33441*
X36369Y33449*
X36366Y33457*
X36363Y33464*
X36360Y33472*
X36356Y33479*
X36351Y33486*
X36346Y33492*
X36340Y33498*
X36334Y33504*
X36328Y33509*
X36321Y33514*
X36315Y33519*
X36307Y33523*
X36300Y33526*
X36292Y33529*
X36284Y33531*
X36276Y33533*
X36268Y33534*
X36260Y33534*
X36251*
X36243Y33534*
X36235Y33533*
X36227Y33531*
X36219Y33529*
X36211Y33526*
X36204Y33523*
X36197Y33519*
X36190Y33514*
X36183Y33509*
X36177Y33504*
X36171Y33498*
X36165Y33492*
X36160Y33486*
X36155Y33479*
X36151Y33472*
X36148Y33464*
X36145Y33457*
X36142Y33449*
X36140Y33441*
X36139Y33433*
X36138Y33425*
X36138Y33417*
X36138Y33408*
X36139Y33400*
X36140Y33392*
X36142Y33384*
X36145Y33376*
X36148Y33369*
X36151Y33361*
X36155Y33354*
X36160Y33347*
X36165Y33341*
X36171Y33335*
X36177Y33329*
X36183Y33324*
X36190Y33319*
X36197Y33314*
X36204Y33310*
X36211Y33307*
X36219Y33304*
X36227Y33302*
X36235Y33300*
X36243Y33299*
X36251Y33299*
X36260*
X36268Y33299*
X36276Y33300*
X36284Y33302*
X36292Y33304*
X36300Y33307*
X36307Y33310*
X36315Y33314*
X36321Y33319*
X36328Y33324*
X36334Y33329*
X36340Y33335*
X36346Y33341*
X36351Y33347*
X36356Y33354*
X36360Y33361*
X36363Y33369*
X36366Y33376*
X36369Y33384*
X36371Y33392*
X36372Y33400*
X36373Y33408*
X36374Y33417*
G54D82*
X31032Y26106D02*
X32568D01*
X31032Y29594D02*
X32568D01*
X14583Y16617D02*
X14550Y16650D01*
X14483*
X14450Y16617*
Y16583*
X14483Y16550*
X14550*
X14583Y16517*
Y16483*
X14550Y16450*
X14483*
X14450Y16483*
X14650Y16650D02*
X14783D01*
Y16617*
X14650Y16483*
Y16450*
X36933Y35167D02*
X36900Y35200D01*
X36833*
X36800Y35167*
Y35033*
X36833Y35000*
X36900*
X36933Y35033*
X37000Y35000D02*
X37067D01*
X37033*
Y35200*
X37000Y35167*
X35883Y30567D02*
X35850Y30600D01*
X35783*
X35750Y30567*
Y30433*
X35783Y30400*
X35850*
X35883Y30433*
X36083Y30400D02*
X35950D01*
X36083Y30533*
Y30567*
X36050Y30600*
X35983*
X35950Y30567*
X35883Y29967D02*
X35850Y30000D01*
X35783*
X35750Y29967*
Y29833*
X35783Y29800*
X35850*
X35883Y29833*
X35950Y29967D02*
X35983Y30000D01*
X36050*
X36083Y29967*
Y29933*
X36050Y29900*
X36017*
X36050*
X36083Y29867*
Y29833*
X36050Y29800*
X35983*
X35950Y29833*
X37683Y33317D02*
X37650Y33350D01*
X37583*
X37550Y33317*
Y33183*
X37583Y33150*
X37650*
X37683Y33183*
X37850Y33150D02*
Y33350D01*
X37750Y33250*
X37883*
X33083Y31217D02*
X33050Y31250D01*
X32983*
X32950Y31217*
Y31083*
X32983Y31050*
X33050*
X33083Y31083*
X33283Y31250D02*
X33150D01*
Y31150*
X33217Y31183*
X33250*
X33283Y31150*
Y31083*
X33250Y31050*
X33183*
X33150Y31083*
X33083Y31517D02*
X33050Y31550D01*
X32983*
X32950Y31517*
Y31383*
X32983Y31350*
X33050*
X33083Y31383*
X33283Y31550D02*
X33217Y31517D01*
X33150Y31450*
Y31383*
X33183Y31350*
X33250*
X33283Y31383*
Y31417*
X33250Y31450*
X33150*
X35343Y29107D02*
X35310Y29140D01*
X35243*
X35210Y29107*
Y28973*
X35243Y28940*
X35310*
X35343Y28973*
X35410Y29140D02*
X35543D01*
Y29107*
X35410Y28973*
Y28940*
X13683Y24667D02*
X13650Y24700D01*
X13583*
X13550Y24667*
Y24533*
X13583Y24500*
X13650*
X13683Y24533*
X13750Y24667D02*
X13783Y24700D01*
X13850*
X13883Y24667*
Y24633*
X13850Y24600*
X13883Y24567*
Y24533*
X13850Y24500*
X13783*
X13750Y24533*
Y24567*
X13783Y24600*
X13750Y24633*
Y24667*
X13783Y24600D02*
X13850D01*
X11883Y35667D02*
X11850Y35700D01*
X11783*
X11750Y35667*
Y35533*
X11783Y35500*
X11850*
X11883Y35533*
X11950D02*
X11983Y35500D01*
X12050*
X12083Y35533*
Y35667*
X12050Y35700*
X11983*
X11950Y35667*
Y35633*
X11983Y35600*
X12083*
X10383Y25867D02*
X10350Y25900D01*
X10283*
X10250Y25867*
Y25733*
X10283Y25700*
X10350*
X10383Y25733*
X10450Y25700D02*
X10517D01*
X10483*
Y25900*
X10450Y25867*
X10617D02*
X10650Y25900D01*
X10717*
X10750Y25867*
Y25733*
X10717Y25700*
X10650*
X10617Y25733*
Y25867*
X10433Y23767D02*
X10400Y23800D01*
X10333*
X10300Y23767*
Y23633*
X10333Y23600*
X10400*
X10433Y23633*
X10500Y23600D02*
X10567D01*
X10533*
Y23800*
X10500Y23767*
X10667Y23600D02*
X10733D01*
X10700*
Y23800*
X10667Y23767*
X13633Y24317D02*
X13600Y24350D01*
X13533*
X13500Y24317*
Y24183*
X13533Y24150*
X13600*
X13633Y24183*
X13700Y24150D02*
X13767D01*
X13733*
Y24350*
X13700Y24317*
X14000Y24150D02*
X13867D01*
X14000Y24283*
Y24317*
X13967Y24350*
X13900*
X13867Y24317*
X12933Y27617D02*
X12900Y27650D01*
X12833*
X12800Y27617*
Y27483*
X12833Y27450*
X12900*
X12933Y27483*
X13000Y27450D02*
X13067D01*
X13033*
Y27650*
X13000Y27617*
X13167D02*
X13200Y27650D01*
X13267*
X13300Y27617*
Y27583*
X13267Y27550*
X13233*
X13267*
X13300Y27517*
Y27483*
X13267Y27450*
X13200*
X13167Y27483*
X11983Y31517D02*
X11950Y31550D01*
X11883*
X11850Y31517*
Y31383*
X11883Y31350*
X11950*
X11983Y31383*
X12050Y31350D02*
X12117D01*
X12083*
Y31550*
X12050Y31517*
X12317Y31350D02*
Y31550D01*
X12217Y31450*
X12350*
X11983Y30717D02*
X11950Y30750D01*
X11883*
X11850Y30717*
Y30583*
X11883Y30550*
X11950*
X11983Y30583*
X12050Y30550D02*
X12117D01*
X12083*
Y30750*
X12050Y30717*
X12350Y30750D02*
X12217D01*
Y30650*
X12283Y30683*
X12317*
X12350Y30650*
Y30583*
X12317Y30550*
X12250*
X12217Y30583*
X11983Y30067D02*
X11950Y30100D01*
X11883*
X11850Y30067*
Y29933*
X11883Y29900*
X11950*
X11983Y29933*
X12050Y29900D02*
X12117D01*
X12083*
Y30100*
X12050Y30067*
X12350Y30100D02*
X12283Y30067D01*
X12217Y30000*
Y29933*
X12250Y29900*
X12317*
X12350Y29933*
Y29967*
X12317Y30000*
X12217*
X11983Y29667D02*
X11950Y29700D01*
X11883*
X11850Y29667*
Y29533*
X11883Y29500*
X11950*
X11983Y29533*
X12050Y29500D02*
X12117D01*
X12083*
Y29700*
X12050Y29667*
X12217Y29700D02*
X12350D01*
Y29667*
X12217Y29533*
Y29500*
X14183Y33017D02*
X14150Y33050D01*
X14083*
X14050Y33017*
Y32883*
X14083Y32850*
X14150*
X14183Y32883*
X14250Y32850D02*
X14317D01*
X14283*
Y33050*
X14250Y33017*
X14417D02*
X14450Y33050D01*
X14517*
X14550Y33017*
Y32983*
X14517Y32950*
X14550Y32917*
Y32883*
X14517Y32850*
X14450*
X14417Y32883*
Y32917*
X14450Y32950*
X14417Y32983*
Y33017*
X14450Y32950D02*
X14517D01*
X14233Y33717D02*
X14200Y33750D01*
X14133*
X14100Y33717*
Y33583*
X14133Y33550*
X14200*
X14233Y33583*
X14300Y33550D02*
X14367D01*
X14333*
Y33750*
X14300Y33717*
X14467Y33583D02*
X14500Y33550D01*
X14567*
X14600Y33583*
Y33717*
X14567Y33750*
X14500*
X14467Y33717*
Y33683*
X14500Y33650*
X14600*
X11883Y37167D02*
X11850Y37200D01*
X11783*
X11750Y37167*
Y37033*
X11783Y37000*
X11850*
X11883Y37033*
X12083Y37000D02*
X11950D01*
X12083Y37133*
Y37167*
X12050Y37200*
X11983*
X11950Y37167*
X12150D02*
X12183Y37200D01*
X12250*
X12283Y37167*
Y37033*
X12250Y37000*
X12183*
X12150Y37033*
Y37167*
X11883Y36367D02*
X11850Y36400D01*
X11783*
X11750Y36367*
Y36233*
X11783Y36200*
X11850*
X11883Y36233*
X12083Y36200D02*
X11950D01*
X12083Y36333*
Y36367*
X12050Y36400*
X11983*
X11950Y36367*
X12150Y36200D02*
X12217D01*
X12183*
Y36400*
X12150Y36367*
X11883Y37917D02*
X11850Y37950D01*
X11783*
X11750Y37917*
Y37783*
X11783Y37750*
X11850*
X11883Y37783*
X12083Y37750D02*
X11950D01*
X12083Y37883*
Y37917*
X12050Y37950*
X11983*
X11950Y37917*
X12283Y37750D02*
X12150D01*
X12283Y37883*
Y37917*
X12250Y37950*
X12183*
X12150Y37917*
X10733Y28367D02*
X10700Y28400D01*
X10633*
X10600Y28367*
Y28233*
X10633Y28200*
X10700*
X10733Y28233*
X10933Y28200D02*
X10800D01*
X10933Y28333*
Y28367*
X10900Y28400*
X10833*
X10800Y28367*
X11000D02*
X11033Y28400D01*
X11100*
X11133Y28367*
Y28333*
X11100Y28300*
X11067*
X11100*
X11133Y28267*
Y28233*
X11100Y28200*
X11033*
X11000Y28233*
X10433Y29067D02*
X10400Y29100D01*
X10333*
X10300Y29067*
Y28933*
X10333Y28900*
X10400*
X10433Y28933*
X10633Y28900D02*
X10500D01*
X10633Y29033*
Y29067*
X10600Y29100*
X10533*
X10500Y29067*
X10800Y28900D02*
Y29100D01*
X10700Y29000*
X10833*
X11260Y13630D02*
Y13430D01*
X11360*
X11393Y13463*
Y13597*
X11360Y13630*
X11260*
X11593Y13430D02*
X11460D01*
X11593Y13563*
Y13597*
X11560Y13630*
X11493*
X11460Y13597*
X11260Y15600D02*
Y15400D01*
X11360*
X11393Y15433*
Y15567*
X11360Y15600*
X11260*
X11460Y15567D02*
X11493Y15600D01*
X11560*
X11593Y15567*
Y15533*
X11560Y15500*
X11527*
X11560*
X11593Y15467*
Y15433*
X11560Y15400*
X11493*
X11460Y15433*
X20120Y20720D02*
Y20520D01*
X20220*
X20253Y20553*
Y20687*
X20220Y20720*
X20120*
X20420Y20520D02*
Y20720D01*
X20320Y20620*
X20453*
X20120Y25960D02*
Y25760D01*
X20220*
X20253Y25793*
Y25927*
X20220Y25960*
X20120*
X20453D02*
X20320D01*
Y25860*
X20387Y25893*
X20420*
X20453Y25860*
Y25793*
X20420Y25760*
X20353*
X20320Y25793*
X20120Y31210D02*
Y31010D01*
X20220*
X20253Y31043*
Y31177*
X20220Y31210*
X20120*
X20453D02*
X20387Y31177D01*
X20320Y31110*
Y31043*
X20353Y31010*
X20420*
X20453Y31043*
Y31077*
X20420Y31110*
X20320*
X20120Y36460D02*
Y36260D01*
X20220*
X20253Y36293*
Y36427*
X20220Y36460*
X20120*
X20320D02*
X20453D01*
Y36427*
X20320Y36293*
Y36260*
X14250Y27450D02*
Y27250D01*
X14383*
X14450D02*
X14517D01*
X14483*
Y27450*
X14450Y27417*
X14100Y36800D02*
Y36600D01*
X14233*
X14433D02*
X14300D01*
X14433Y36733*
Y36767*
X14400Y36800*
X14333*
X14300Y36767*
X38000Y31100D02*
Y31300D01*
X38100*
X38133Y31267*
Y31200*
X38100Y31167*
X38000*
X38200Y31100D02*
X38267D01*
X38233*
Y31300*
X38200Y31267*
X15850Y29500D02*
Y29700D01*
X15950*
X15983Y29667*
Y29600*
X15950Y29567*
X15850*
X16183Y29500D02*
X16050D01*
X16183Y29633*
Y29667*
X16150Y29700*
X16083*
X16050Y29667*
X15800Y19850D02*
Y20050D01*
X15900*
X15933Y20017*
Y19950*
X15900Y19917*
X15800*
X16000Y20017D02*
X16033Y20050D01*
X16100*
X16133Y20017*
Y19983*
X16100Y19950*
X16067*
X16100*
X16133Y19917*
Y19883*
X16100Y19850*
X16033*
X16000Y19883*
X19783Y31583D02*
Y31717D01*
X19750Y31750*
X19683*
X19650Y31717*
Y31583*
X19683Y31550*
X19750*
X19717Y31617D02*
X19783Y31550D01*
X19750D02*
X19783Y31583D01*
X19850Y31550D02*
X19917D01*
X19883*
Y31750*
X19850Y31717*
X15933Y31583D02*
Y31717D01*
X15900Y31750*
X15833*
X15800Y31717*
Y31583*
X15833Y31550*
X15900*
X15867Y31617D02*
X15933Y31550D01*
X15900D02*
X15933Y31583D01*
X16133Y31550D02*
X16000D01*
X16133Y31683*
Y31717*
X16100Y31750*
X16033*
X16000Y31717*
X19600Y32900D02*
Y33100D01*
X19700*
X19733Y33067*
Y33000*
X19700Y32967*
X19600*
X19667D02*
X19733Y32900D01*
X19933D02*
X19800D01*
X19933Y33033*
Y33067*
X19900Y33100*
X19833*
X19800Y33067*
X32650Y34700D02*
Y34900D01*
X32750*
X32783Y34867*
Y34800*
X32750Y34767*
X32650*
X32717D02*
X32783Y34700D01*
X32850Y34867D02*
X32883Y34900D01*
X32950*
X32983Y34867*
Y34833*
X32950Y34800*
X32917*
X32950*
X32983Y34767*
Y34733*
X32950Y34700*
X32883*
X32850Y34733*
X32650Y32400D02*
Y32600D01*
X32750*
X32783Y32567*
Y32500*
X32750Y32467*
X32650*
X32717D02*
X32783Y32400D01*
X32950D02*
Y32600D01*
X32850Y32500*
X32983*
X36950Y31900D02*
Y32100D01*
X37050*
X37083Y32067*
Y32000*
X37050Y31967*
X36950*
X37017D02*
X37083Y31900D01*
X37283Y32100D02*
X37150D01*
Y32000*
X37217Y32033*
X37250*
X37283Y32000*
Y31933*
X37250Y31900*
X37183*
X37150Y31933*
X15850Y32950D02*
Y33150D01*
X15950*
X15983Y33117*
Y33050*
X15950Y33017*
X15850*
X15917D02*
X15983Y32950D01*
X16183Y33150D02*
X16117Y33117D01*
X16050Y33050*
Y32983*
X16083Y32950*
X16150*
X16183Y32983*
Y33017*
X16150Y33050*
X16050*
X35300Y37350D02*
Y37550D01*
X35400*
X35433Y37517*
Y37450*
X35400Y37417*
X35300*
X35367D02*
X35433Y37350D01*
X35500Y37550D02*
X35633D01*
Y37517*
X35500Y37383*
Y37350*
X34700D02*
Y37550D01*
X34800*
X34833Y37517*
Y37450*
X34800Y37417*
X34700*
X34767D02*
X34833Y37350D01*
X34900Y37517D02*
X34933Y37550D01*
X35000*
X35033Y37517*
Y37483*
X35000Y37450*
X35033Y37417*
Y37383*
X35000Y37350*
X34933*
X34900Y37383*
Y37417*
X34933Y37450*
X34900Y37483*
Y37517*
X34933Y37450D02*
X35000D01*
X34100Y37350D02*
Y37550D01*
X34200*
X34233Y37517*
Y37450*
X34200Y37417*
X34100*
X34167D02*
X34233Y37350D01*
X34300Y37383D02*
X34333Y37350D01*
X34400*
X34433Y37383*
Y37517*
X34400Y37550*
X34333*
X34300Y37517*
Y37483*
X34333Y37450*
X34433*
X30950Y31150D02*
Y31350D01*
X31050*
X31083Y31317*
Y31250*
X31050Y31217*
X30950*
X31017D02*
X31083Y31150D01*
X31150D02*
X31217D01*
X31183*
Y31350*
X31150Y31317*
X31317D02*
X31350Y31350D01*
X31417*
X31450Y31317*
Y31183*
X31417Y31150*
X31350*
X31317Y31183*
Y31317*
X31600Y31150D02*
Y31350D01*
X31700*
X31733Y31317*
Y31250*
X31700Y31217*
X31600*
X31667D02*
X31733Y31150D01*
X31800D02*
X31867D01*
X31833*
Y31350*
X31800Y31317*
X31967Y31150D02*
X32033D01*
X32000*
Y31350*
X31967Y31317*
X32200Y31150D02*
Y31350D01*
X32300*
X32333Y31317*
Y31250*
X32300Y31217*
X32200*
X32267D02*
X32333Y31150D01*
X32400D02*
X32467D01*
X32433*
Y31350*
X32400Y31317*
X32700Y31150D02*
X32567D01*
X32700Y31283*
Y31317*
X32667Y31350*
X32600*
X32567Y31317*
X33400Y37350D02*
Y37550D01*
X33500*
X33533Y37517*
Y37450*
X33500Y37417*
X33400*
X33467D02*
X33533Y37350D01*
X33600D02*
X33667D01*
X33633*
Y37550*
X33600Y37517*
X33767D02*
X33800Y37550D01*
X33867*
X33900Y37517*
Y37483*
X33867Y37450*
X33833*
X33867*
X33900Y37417*
Y37383*
X33867Y37350*
X33800*
X33767Y37383*
X12900Y26000D02*
Y26200D01*
X13000*
X13033Y26167*
Y26100*
X13000Y26067*
X12900*
X12967D02*
X13033Y26000D01*
X13100D02*
X13167D01*
X13133*
Y26200*
X13100Y26167*
X13367Y26000D02*
Y26200D01*
X13267Y26100*
X13400*
X10600Y27000D02*
Y27200D01*
X10700*
X10733Y27167*
Y27100*
X10700Y27067*
X10600*
X10667D02*
X10733Y27000D01*
X10800D02*
X10867D01*
X10833*
Y27200*
X10800Y27167*
X11100Y27200D02*
X10967D01*
Y27100*
X11033Y27133*
X11067*
X11100Y27100*
Y27033*
X11067Y27000*
X11000*
X10967Y27033*
X10600Y26350D02*
Y26550D01*
X10700*
X10733Y26517*
Y26450*
X10700Y26417*
X10600*
X10667D02*
X10733Y26350D01*
X10800D02*
X10867D01*
X10833*
Y26550*
X10800Y26517*
X11100Y26550D02*
X11033Y26517D01*
X10967Y26450*
Y26383*
X11000Y26350*
X11067*
X11100Y26383*
Y26417*
X11067Y26450*
X10967*
X12800Y27750D02*
Y27950D01*
X12900*
X12933Y27917*
Y27850*
X12900Y27817*
X12800*
X12867D02*
X12933Y27750D01*
X13000D02*
X13067D01*
X13033*
Y27950*
X13000Y27917*
X13167Y27950D02*
X13300D01*
Y27917*
X13167Y27783*
Y27750*
X10600Y27550D02*
Y27750D01*
X10700*
X10733Y27717*
Y27650*
X10700Y27617*
X10600*
X10667D02*
X10733Y27550D01*
X10800D02*
X10867D01*
X10833*
Y27750*
X10800Y27717*
X10967D02*
X11000Y27750D01*
X11067*
X11100Y27717*
Y27683*
X11067Y27650*
X11100Y27617*
Y27583*
X11067Y27550*
X11000*
X10967Y27583*
Y27617*
X11000Y27650*
X10967Y27683*
Y27717*
X11000Y27650D02*
X11067D01*
X33550Y33750D02*
Y33583D01*
X33583Y33550*
X33650*
X33683Y33583*
Y33750*
X33750Y33550D02*
X33817D01*
X33783*
Y33750*
X33750Y33717*
X31100Y25850D02*
Y25683D01*
X31133Y25650*
X31200*
X31233Y25683*
Y25850*
X31433Y25650D02*
X31300D01*
X31433Y25783*
Y25817*
X31400Y25850*
X31333*
X31300Y25817*
X34350Y29050D02*
Y28883D01*
X34383Y28850*
X34450*
X34483Y28883*
Y29050*
X34550Y29017D02*
X34583Y29050D01*
X34650*
X34683Y29017*
Y28983*
X34650Y28950*
X34617*
X34650*
X34683Y28917*
Y28883*
X34650Y28850*
X34583*
X34550Y28883*
X11300Y25900D02*
Y25733D01*
X11333Y25700*
X11400*
X11433Y25733*
Y25900*
X11600Y25700D02*
Y25900D01*
X11500Y25800*
X11633*
X11800Y35150D02*
Y34983D01*
X11833Y34950*
X11900*
X11933Y34983*
Y35150*
X12133D02*
X12000D01*
Y35050*
X12067Y35083*
X12100*
X12133Y35050*
Y34983*
X12100Y34950*
X12033*
X12000Y34983*
X22943Y22177D02*
X22910Y22210D01*
X22843*
X22810Y22177*
Y22143*
X22843Y22110*
X22910*
X22943Y22077*
Y22043*
X22910Y22010*
X22843*
X22810Y22043*
X23010Y22010D02*
X23077D01*
X23043*
Y22210*
X23010Y22177*
X22943Y27522D02*
X22910Y27555D01*
X22843*
X22810Y27522*
Y27488*
X22843Y27455*
X22910*
X22943Y27422*
Y27389*
X22910Y27355*
X22843*
X22810Y27389*
X23143Y27355D02*
X23010D01*
X23143Y27488*
Y27522*
X23110Y27555*
X23043*
X23010Y27522*
X22943Y32764D02*
X22910Y32798D01*
X22843*
X22810Y32764*
Y32731*
X22843Y32698*
X22910*
X22943Y32665*
Y32631*
X22910Y32598*
X22843*
X22810Y32631*
X23010Y32764D02*
X23043Y32798D01*
X23110*
X23143Y32764*
Y32731*
X23110Y32698*
X23077*
X23110*
X23143Y32665*
Y32631*
X23110Y32598*
X23043*
X23010Y32631*
X22943Y37527D02*
X22910Y37560D01*
X22843*
X22810Y37527*
Y37493*
X22843Y37460*
X22910*
X22943Y37427*
Y37393*
X22910Y37360*
X22843*
X22810Y37393*
X23110Y37360D02*
Y37560D01*
X23010Y37460*
X23143*
X28980Y14810D02*
Y14610D01*
X29080*
X29113Y14643*
Y14777*
X29080Y14810*
X28980*
X29180Y14610D02*
X29247D01*
X29213*
Y14810*
X29180Y14777*
X32650Y33550D02*
Y33750D01*
X32750*
X32783Y33717*
Y33650*
X32750Y33617*
X32650*
X32717D02*
X32783Y33550D01*
X32850D02*
X32917D01*
X32883*
Y33750*
X32850Y33717*
X32433Y16517D02*
X32400Y16550D01*
X32333*
X32300Y16517*
Y16483*
X32333Y16450*
X32400*
X32433Y16417*
Y16383*
X32400Y16350*
X32333*
X32300Y16383*
X32633Y16550D02*
X32567Y16517D01*
X32500Y16450*
Y16383*
X32533Y16350*
X32600*
X32633Y16383*
Y16417*
X32600Y16450*
X32500*
M02*