%FSDAX24Y24*%
%MOIN*%
%SFA1B1*%

%IPPOS*%
%AMD40*
4,1,8,0.098400,0.196800,-0.098400,0.196800,-0.196800,0.098400,-0.196800,-0.098400,-0.098400,-0.196800,0.098400,-0.196800,0.196800,-0.098400,0.196800,0.098400,0.098400,0.196800,0.0*
1,1,0.196800,0.098400,0.098400*
1,1,0.196800,-0.098400,0.098400*
1,1,0.196800,-0.098400,-0.098400*
1,1,0.196800,0.098400,-0.098400*
%
%ADD21C,0.020000*%
%ADD24C,0.030000*%
%ADD25C,0.039400*%
%ADD26C,0.010000*%
%ADD33C,0.059100*%
%ADD34R,0.059100X0.059100*%
%ADD35C,0.098400*%
%ADD36R,0.059100X0.059100*%
%ADD37C,0.060000*%
%ADD38C,0.030000*%
%ADD39C,0.050000*%
G04~CAMADD=40~8~0.0~0.0~3937.0~3937.0~984.0~0.0~15~0.0~0.0~0.0~0.0~0~0.0~0.0~0.0~0.0~0~0.0~0.0~0.0~0.0~3937.0~3937.0*
%ADD40D40*%
%ADD41C,0.100000*%
%ADD42R,0.190000X0.145000*%
%ADD43R,0.365000X0.290000*%
%ADD44R,0.100000X0.280000*%
%ADD45R,0.345000X0.155000*%
%ADD46R,0.300000X0.370000*%
%ADD47R,0.615000X0.080000*%
%ADD48R,0.300000X0.355000*%
%ADD49R,0.125000X0.270000*%
%ADD50R,0.485000X0.580000*%
%ADD51R,0.455000X0.170000*%
%ADD52R,0.080000X0.095000*%
%ADD53R,0.065000X2.845000*%
%ADD54R,0.145000X0.115000*%
%ADD55R,0.260700X0.165400*%
%ADD56R,0.110000X0.585000*%
%ADD57R,0.450000X0.140000*%
%ADD58R,0.455000X0.380000*%
%ADD59R,0.049900X0.153500*%
%ADD60R,0.615000X0.225000*%
%ADD61R,0.139700X0.956100*%
%ADD62R,0.360000X0.360000*%
%ADD63R,0.770000X0.545000*%
%ADD64R,0.085000X0.900000*%
%ADD65R,0.150000X0.400000*%
%ADD66R,0.130000X0.340000*%
%ADD67R,0.150000X0.250000*%
%ADD68R,0.065000X0.100000*%
%ADD69R,0.800000X0.160000*%
%ADD70R,0.435000X0.085000*%
%ADD71R,0.110000X0.695000*%
%ADD72R,0.190000X0.410000*%
%ADD73R,0.090000X1.910000*%
%ADD74R,0.925000X0.210000*%
%ADD75R,0.500000X0.410000*%
%ADD76R,0.340000X0.425000*%
%ADD77R,0.070000X2.525000*%
%ADD78R,0.430000X0.650000*%
%ADD79R,0.350000X0.190000*%
%ADD80R,0.245000X0.215000*%
%ADD81R,0.165000X0.165000*%
%ADD82R,0.320000X0.180000*%
%LNde-250624-1*%
%LPD*%
G54D21*
X036050Y029850D02*
X037300D01*
X035300Y027150D02*
Y029500D01*
Y029950*
X034500Y030750D02*
X035300Y029950D01*
X030700Y030750D02*
X034500D01*
G54D24*
X016600Y033550D02*
X018500D01*
X010600Y010450D02*
X039200D01*
G54D25*
X016934Y020816D02*
X018000D01*
Y019450D02*
Y020816D01*
Y019450D02*
X018050Y019400D01*
X018000Y020816D02*
X019584D01*
X019600Y020800*
G54D26*
X028200Y036365D02*
D01*
X028164Y036336*
X028130Y036306*
X028125Y036300*
Y034881D02*
D01*
X028158Y034850*
X028193Y034821*
X028200Y034816*
Y031124D02*
D01*
X028164Y031095*
X028130Y031065*
X028125Y031060*
Y029640D02*
D01*
X028158Y029609*
X028193Y029580*
X028200Y029576*
X027975Y027750D02*
D01*
X027964Y027749*
X027954Y027748*
X027943Y027746*
X027933Y027744*
X027923Y027740*
X027913Y027737*
X027904Y027732*
X027895Y027727*
X027886Y027721*
X027878Y027714*
X027870Y027707*
X027869Y027706*
X028125Y024390D02*
D01*
X028158Y024359*
X028193Y024330*
X028200Y024326*
Y025874D02*
D01*
X028164Y025845*
X028130Y025815*
X028125Y025810*
X025748Y032972D02*
D01*
X025861Y032975*
X025975Y032987*
X026087Y033007*
X026198Y033035*
X026306Y033070*
X026412Y033113*
X026515Y033163*
X026613Y033220*
X026708Y033284*
X026798Y033354*
X026883Y033430*
X026962Y033512*
X027035Y033600*
X027102Y033692*
X027163Y033789*
X027216Y033889*
X027263Y033993*
X027302Y034101*
X027333Y034210*
X027357Y034322*
X027373Y034435*
X027381Y034548*
X027382Y034606*
Y036575D02*
D01*
X027378Y036688*
X027366Y036802*
X027346Y036914*
X027318Y037025*
X027283Y037133*
X027240Y037239*
X027190Y037342*
X027133Y037440*
X027069Y037535*
X026999Y037625*
X026923Y037710*
X026841Y037789*
X026753Y037862*
X026661Y037929*
X026565Y037990*
X026464Y038043*
X026360Y038090*
X026252Y038129*
X026143Y038160*
X026031Y038184*
X025918Y038200*
X025805Y038208*
X025748Y038209*
X027382Y031325D02*
D01*
X027378Y031438*
X027366Y031552*
X027346Y031664*
X027318Y031775*
X027283Y031883*
X027240Y031989*
X027190Y032092*
X027133Y032190*
X027069Y032285*
X026999Y032375*
X026923Y032460*
X026841Y032539*
X026753Y032612*
X026661Y032679*
X026565Y032740*
X026464Y032793*
X026360Y032840*
X026252Y032879*
X026143Y032910*
X026031Y032934*
X025918Y032950*
X025805Y032958*
X025748Y032960*
X027744Y027581D02*
D01*
X027736Y027573*
X027730Y027565*
X027724Y027556*
X027718Y027547*
X027714Y027538*
X027710Y027528*
X027706Y027518*
X027703Y027508*
X027701Y027498*
X027700Y027488*
X027700Y027477*
X027700Y027475*
Y027225D02*
D01*
X027700Y027214*
X027701Y027204*
X027703Y027193*
X027705Y027183*
X027709Y027173*
X027712Y027163*
X027717Y027154*
X027722Y027145*
X027728Y027136*
X027735Y027128*
X027742Y027120*
X027744Y027119*
X027869Y026994D02*
D01*
X027876Y026986*
X027884Y026980*
X027893Y026974*
X027902Y026968*
X027911Y026964*
X027921Y026960*
X027931Y026956*
X027941Y026953*
X027951Y026951*
X027961Y026950*
X027972Y026950*
X027975Y026950*
X025748Y027723D02*
D01*
X025861Y027726*
X025975Y027738*
X026087Y027758*
X026198Y027786*
X026306Y027821*
X026412Y027864*
X026515Y027914*
X026613Y027971*
X026708Y028035*
X026798Y028105*
X026883Y028181*
X026962Y028263*
X027035Y028351*
X027102Y028443*
X027163Y028540*
X027216Y028640*
X027263Y028744*
X027302Y028852*
X027333Y028961*
X027357Y029073*
X027373Y029186*
X027381Y029299*
X027382Y029357*
Y026076D02*
D01*
X027378Y026189*
X027366Y026303*
X027346Y026415*
X027318Y026526*
X027283Y026634*
X027240Y026740*
X027190Y026843*
X027133Y026941*
X027069Y027036*
X026999Y027126*
X026923Y027211*
X026841Y027290*
X026753Y027363*
X026661Y027430*
X026565Y027491*
X026464Y027544*
X026360Y027591*
X026252Y027630*
X026143Y027661*
X026031Y027685*
X025918Y027701*
X025805Y027709*
X025748Y027710*
Y022473D02*
D01*
X025861Y022476*
X025975Y022488*
X026087Y022508*
X026198Y022536*
X026306Y022571*
X026412Y022614*
X026515Y022664*
X026613Y022721*
X026708Y022785*
X026798Y022855*
X026883Y022931*
X026962Y023013*
X027035Y023101*
X027102Y023193*
X027163Y023290*
X027216Y023390*
X027263Y023494*
X027302Y023602*
X027333Y023711*
X027357Y023823*
X027373Y023936*
X027381Y024049*
X027382Y024108*
Y020827D02*
D01*
X027378Y020940*
X027366Y021054*
X027346Y021166*
X027318Y021277*
X027283Y021385*
X027240Y021491*
X027190Y021594*
X027133Y021692*
X027069Y021787*
X026999Y021877*
X026923Y021962*
X026841Y022041*
X026753Y022114*
X026661Y022181*
X026565Y022242*
X026464Y022295*
X026360Y022342*
X026252Y022381*
X026143Y022412*
X026031Y022436*
X025918Y022452*
X025805Y022460*
X025748Y022461*
X036241Y014921D02*
D01*
X036237Y015034*
X036225Y015148*
X036205Y015260*
X036177Y015371*
X036142Y015479*
X036099Y015585*
X036049Y015688*
X035992Y015786*
X035928Y015881*
X035858Y015971*
X035782Y016056*
X035700Y016135*
X035612Y016208*
X035520Y016275*
X035424Y016336*
X035323Y016389*
X035219Y016436*
X035111Y016475*
X035002Y016506*
X034890Y016530*
X034777Y016546*
X034664Y016554*
X034606Y016556*
X032638D02*
D01*
X032524Y016552*
X032410Y016540*
X032298Y016520*
X032187Y016492*
X032079Y016457*
X031973Y016414*
X031870Y016364*
X031772Y016307*
X031677Y016243*
X031587Y016173*
X031502Y016097*
X031423Y016015*
X031350Y015927*
X031283Y015835*
X031222Y015738*
X031169Y015638*
X031122Y015534*
X031083Y015426*
X031052Y015317*
X031028Y015205*
X031012Y015092*
X031004Y014979*
X031004Y014921*
X034606Y011319D02*
D01*
X034719Y011322*
X034833Y011334*
X034945Y011354*
X035056Y011382*
X035164Y011417*
X035270Y011460*
X035373Y011510*
X035471Y011567*
X035566Y011631*
X035656Y011701*
X035741Y011777*
X035820Y011859*
X035893Y011947*
X035960Y012039*
X036021Y012136*
X036074Y012236*
X036121Y012340*
X036160Y012448*
X036191Y012557*
X036215Y012669*
X036231Y012782*
X036239Y012895*
X036241Y012953*
X031004D02*
D01*
X031007Y012839*
X031019Y012725*
X031039Y012613*
X031067Y012502*
X031102Y012394*
X031145Y012288*
X031195Y012185*
X031252Y012087*
X031316Y011992*
X031386Y011902*
X031462Y011817*
X031544Y011738*
X031632Y011665*
X031724Y011598*
X031821Y011537*
X031921Y011484*
X032025Y011437*
X032133Y011398*
X032242Y011367*
X032354Y011343*
X032467Y011327*
X032580Y011319*
X032638Y011319*
X028200Y020624D02*
D01*
X028164Y020595*
X028130Y020565*
X028125Y020560*
Y019140D02*
D01*
X028158Y019109*
X028193Y019080*
X028200Y019076*
X025748Y017224D02*
D01*
X025861Y017227*
X025975Y017239*
X026087Y017259*
X026198Y017287*
X026306Y017322*
X026412Y017365*
X026515Y017415*
X026613Y017472*
X026708Y017536*
X026798Y017606*
X026883Y017682*
X026962Y017764*
X027035Y017852*
X027102Y017944*
X027163Y018041*
X027216Y018141*
X027263Y018245*
X027302Y018353*
X027333Y018462*
X027357Y018574*
X027373Y018687*
X027381Y018800*
X027382Y018858*
X030739Y013927D02*
D01*
X030736Y013999*
X030728Y014072*
X030716Y014144*
X030698Y014214*
X030676Y014284*
X030648Y014351*
X030616Y014417*
X030580Y014480*
X030539Y014540*
X030494Y014598*
X030445Y014652*
X030393Y014702*
X030337Y014749*
X030278Y014792*
X030217Y014831*
X030152Y014865*
X030086Y014894*
X030017Y014919*
X029947Y014939*
X029876Y014955*
X029804Y014965*
X029731Y014970*
X029658*
X029585Y014965*
X029513Y014955*
X029442Y014939*
X029372Y014919*
X029303Y014894*
X029237Y014865*
X029173Y014831*
X029111Y014792*
X029052Y014749*
X028996Y014702*
X028944Y014652*
X028895Y014598*
X028850Y014540*
X028809Y014480*
X028773Y014417*
X028741Y014351*
X028713Y014284*
X028691Y014214*
X028673Y014144*
X028661Y014072*
X028653Y013999*
X028651Y013927*
X028653Y013854*
X028661Y013781*
X028673Y013709*
X028691Y013639*
X028713Y013569*
X028741Y013502*
X028773Y013436*
X028809Y013373*
X028850Y013313*
X028895Y013255*
X028944Y013201*
X028996Y013151*
X029052Y013104*
X029111Y013061*
X029173Y013022*
X029237Y012988*
X029303Y012959*
X029372Y012934*
X029442Y012914*
X029513Y012898*
X029585Y012888*
X029658Y012883*
X029731*
X029804Y012888*
X029876Y012898*
X029947Y012914*
X030017Y012934*
X030086Y012959*
X030152Y012988*
X030217Y013022*
X030278Y013061*
X030337Y013104*
X030393Y013151*
X030445Y013201*
X030494Y013255*
X030539Y013313*
X030580Y013373*
X030616Y013436*
X030648Y013502*
X030676Y013569*
X030698Y013639*
X030716Y013709*
X030728Y013781*
X030736Y013854*
X030739Y013927*
X022145Y034606D02*
D01*
X022148Y034492*
X022160Y034378*
X022180Y034266*
X022208Y034155*
X022243Y034047*
X022286Y033941*
X022336Y033838*
X022393Y033740*
X022457Y033645*
X022527Y033555*
X022603Y033470*
X022685Y033391*
X022773Y033318*
X022865Y033251*
X022962Y033190*
X023062Y033137*
X023166Y033090*
X023274Y033051*
X023383Y033020*
X023495Y032996*
X023608Y032980*
X023721Y032972*
X023780Y032972*
Y038209D02*
D01*
X023666Y038205*
X023552Y038193*
X023440Y038173*
X023329Y038145*
X023221Y038110*
X023115Y038067*
X023012Y038017*
X022914Y037960*
X022819Y037896*
X022729Y037826*
X022644Y037750*
X022565Y037668*
X022492Y037580*
X022425Y037488*
X022364Y037392*
X022311Y037291*
X022264Y037187*
X022225Y037079*
X022194Y036970*
X022170Y036858*
X022154Y036745*
X022146Y036632*
X022145Y036575*
Y029357D02*
D01*
X022148Y029243*
X022160Y029129*
X022180Y029017*
X022208Y028906*
X022243Y028798*
X022286Y028692*
X022336Y028589*
X022393Y028491*
X022457Y028396*
X022527Y028306*
X022603Y028221*
X022685Y028142*
X022773Y028069*
X022865Y028002*
X022962Y027941*
X023062Y027888*
X023166Y027841*
X023274Y027802*
X023383Y027771*
X023495Y027747*
X023608Y027731*
X023721Y027723*
X023780Y027723*
Y032960D02*
D01*
X023666Y032956*
X023552Y032944*
X023440Y032924*
X023329Y032896*
X023221Y032861*
X023115Y032818*
X023012Y032768*
X022914Y032711*
X022819Y032647*
X022729Y032577*
X022644Y032501*
X022565Y032419*
X022492Y032331*
X022425Y032239*
X022364Y032142*
X022311Y032042*
X022264Y031938*
X022225Y031830*
X022194Y031721*
X022170Y031609*
X022154Y031496*
X022146Y031383*
X022145Y031325*
X023780Y027710D02*
D01*
X023666Y027706*
X023552Y027694*
X023440Y027674*
X023329Y027646*
X023221Y027611*
X023115Y027568*
X023012Y027518*
X022914Y027461*
X022819Y027397*
X022729Y027327*
X022644Y027251*
X022565Y027169*
X022492Y027081*
X022425Y026989*
X022364Y026892*
X022311Y026792*
X022264Y026688*
X022225Y026580*
X022194Y026471*
X022170Y026359*
X022154Y026246*
X022146Y026133*
X022145Y026076*
Y024108D02*
D01*
X022148Y023994*
X022160Y023880*
X022180Y023768*
X022208Y023657*
X022243Y023549*
X022286Y023443*
X022336Y023340*
X022393Y023242*
X022457Y023147*
X022527Y023057*
X022603Y022972*
X022685Y022893*
X022773Y022820*
X022865Y022753*
X022962Y022692*
X023062Y022639*
X023166Y022592*
X023274Y022553*
X023383Y022522*
X023495Y022498*
X023608Y022482*
X023721Y022474*
X023780Y022473*
X022145Y018858D02*
D01*
X022148Y018744*
X022160Y018630*
X022180Y018518*
X022208Y018407*
X022243Y018299*
X022286Y018193*
X022336Y018090*
X022393Y017992*
X022457Y017897*
X022527Y017807*
X022603Y017722*
X022685Y017643*
X022773Y017570*
X022865Y017503*
X022962Y017442*
X023062Y017389*
X023166Y017342*
X023274Y017303*
X023383Y017272*
X023495Y017248*
X023608Y017232*
X023721Y017224*
X023780Y017224*
Y022461D02*
D01*
X023666Y022457*
X023552Y022445*
X023440Y022425*
X023329Y022397*
X023221Y022362*
X023115Y022319*
X023012Y022269*
X022914Y022212*
X022819Y022148*
X022729Y022078*
X022644Y022002*
X022565Y021920*
X022492Y021832*
X022425Y021740*
X022364Y021643*
X022311Y021543*
X022264Y021439*
X022225Y021331*
X022194Y021222*
X022170Y021110*
X022154Y020997*
X022146Y020884*
X022145Y020827*
X021880Y035581D02*
D01*
X021877Y035653*
X021869Y035726*
X021857Y035798*
X021839Y035868*
X021817Y035938*
X021789Y036005*
X021757Y036071*
X021721Y036134*
X021700Y036167*
Y034994D02*
D01*
X021738Y035055*
X021773Y035119*
X021803Y035186*
X021828Y035254*
X021848Y035324*
X021864Y035395*
X021874Y035467*
X021879Y035540*
X021880Y035581*
Y030331D02*
D01*
X021877Y030403*
X021869Y030476*
X021857Y030548*
X021839Y030618*
X021817Y030688*
X021789Y030755*
X021757Y030821*
X021721Y030884*
X021700Y030918*
Y029745D02*
D01*
X021738Y029806*
X021773Y029870*
X021803Y029937*
X021828Y030005*
X021848Y030075*
X021864Y030146*
X021874Y030218*
X021879Y030291*
X021880Y030331*
X021700Y024495D02*
D01*
X021738Y024556*
X021773Y024620*
X021803Y024687*
X021828Y024755*
X021848Y024825*
X021864Y024896*
X021874Y024968*
X021879Y025041*
X021880Y025082*
D01*
X021877Y025154*
X021869Y025227*
X021857Y025299*
X021839Y025369*
X021817Y025439*
X021789Y025506*
X021757Y025572*
X021721Y025635*
X021700Y025668*
Y019246D02*
D01*
X021738Y019307*
X021773Y019371*
X021803Y019438*
X021828Y019506*
X021848Y019576*
X021864Y019647*
X021874Y019719*
X021879Y019792*
X021880Y019833*
D01*
X021877Y019905*
X021869Y019978*
X021857Y020050*
X021839Y020120*
X021817Y020190*
X021789Y020257*
X021757Y020323*
X021721Y020386*
X021700Y020419*
X021100Y014025D02*
D01*
X021098Y014070*
X021093Y014115*
X021085Y014160*
X021074Y014204*
X021060Y014247*
X021043Y014289*
X021023Y014330*
X021001Y014369*
X020975Y014407*
X020947Y014442*
X020917Y014476*
X020910Y014485*
X020785Y014610D02*
D01*
X020751Y014640*
X020716Y014669*
X020679Y014695*
X020640Y014718*
X020599Y014739*
X020558Y014757*
X020515Y014772*
X020471Y014783*
X020426Y014792*
X020381Y014798*
X020336Y014800*
X020325Y014800*
X018524Y014921D02*
D01*
X018520Y015034*
X018508Y015148*
X018488Y015260*
X018460Y015371*
X018425Y015479*
X018382Y015585*
X018332Y015688*
X018275Y015786*
X018211Y015881*
X018141Y015971*
X018065Y016056*
X017983Y016135*
X017895Y016208*
X017803Y016275*
X017707Y016336*
X017606Y016389*
X017502Y016436*
X017394Y016475*
X017285Y016506*
X017173Y016530*
X017060Y016546*
X016947Y016554*
X016890Y016556*
X020075Y014800D02*
D01*
X020029Y014798*
X019984Y014793*
X019939Y014785*
X019895Y014774*
X019852Y014760*
X019810Y014743*
X019769Y014723*
X019730Y014701*
X019692Y014675*
X019657Y014647*
X019645Y014637*
X020910Y013315D02*
D01*
X020940Y013348*
X020969Y013383*
X020995Y013420*
X021018Y013459*
X021039Y013500*
X021057Y013541*
X021072Y013584*
X021083Y013628*
X021092Y013673*
X021098Y013718*
X021100Y013763*
X021100Y013775*
X020325Y013000D02*
D01*
X020370Y013001*
X020415Y013006*
X020460Y013014*
X020504Y013025*
X020547Y013039*
X020589Y013056*
X020630Y013076*
X020669Y013098*
X020707Y013124*
X020742Y013152*
X020776Y013182*
X020785Y013190*
X019615D02*
D01*
X019648Y013159*
X019683Y013130*
X019720Y013104*
X019759Y013081*
X019800Y013060*
X019841Y013042*
X019884Y013027*
X019928Y013016*
X019973Y013007*
X020018Y013001*
X020063Y012999*
X020075Y013000*
X014921Y016556D02*
D01*
X014807Y016552*
X014693Y016540*
X014581Y016520*
X014470Y016492*
X014362Y016457*
X014256Y016414*
X014153Y016364*
X014055Y016307*
X013960Y016243*
X013870Y016173*
X013785Y016097*
X013706Y016015*
X013633Y015927*
X013566Y015835*
X013505Y015738*
X013452Y015638*
X013405Y015534*
X013366Y015426*
X013335Y015317*
X013311Y015205*
X013295Y015092*
X013287Y014979*
X013287Y014921*
X013022Y014714D02*
D01*
X013019Y014786*
X013011Y014859*
X013000Y014929*
Y014500D02*
D01*
X013012Y014571*
X013019Y014644*
X013022Y014714*
X016890Y011319D02*
D01*
X017003Y011322*
X017117Y011334*
X017229Y011354*
X017340Y011382*
X017448Y011417*
X017554Y011460*
X017657Y011510*
X017755Y011567*
X017850Y011631*
X017940Y011701*
X018025Y011777*
X018104Y011859*
X018177Y011947*
X018244Y012039*
X018305Y012136*
X018358Y012236*
X018405Y012340*
X018444Y012448*
X018475Y012557*
X018499Y012669*
X018515Y012782*
X018523Y012895*
X018524Y012953*
X013000Y012532D02*
D01*
X013012Y012603*
X013019Y012676*
X013022Y012746*
D01*
X013019Y012818*
X013011Y012891*
X013000Y012960*
X013287Y012953D02*
D01*
X013290Y012839*
X013302Y012725*
X013322Y012613*
X013350Y012502*
X013385Y012394*
X013428Y012288*
X013478Y012185*
X013535Y012087*
X013599Y011992*
X013669Y011902*
X013745Y011817*
X013827Y011738*
X013915Y011665*
X014007Y011598*
X014104Y011537*
X014204Y011484*
X014308Y011437*
X014416Y011398*
X014525Y011367*
X014637Y011343*
X014750Y011327*
X014863Y011319*
X014921Y011319*
X025381Y019843D02*
X028902D01*
X025331Y025092D02*
X028901D01*
X025182Y030341D02*
X028901D01*
X028200Y036365D02*
Y038400D01*
X027382Y036600D02*
X028200D01*
X027382Y034800D02*
X028200D01*
X027382Y036291D02*
X028115D01*
X027382Y036300D02*
X028125D01*
X027382Y034891D02*
X028115D01*
X028200Y031124D02*
Y034816D01*
X027382Y031200D02*
X028200D01*
Y027750D02*
Y029576D01*
X027382Y029641D02*
X028124D01*
X027382Y031041D02*
X028106D01*
X027382Y029400D02*
X028200D01*
X027379Y034500D02*
X028200D01*
X027350Y036900D02*
X028200D01*
X027331Y034200D02*
X028200D01*
X027222Y033900D02*
X028200D01*
X026830Y037800D02*
X028200D01*
X026335Y038100D02*
X028200D01*
X027258Y037200D02*
X028200D01*
X027095Y037500D02*
X028200D01*
X027187Y032100D02*
X028200D01*
X026979Y032400D02*
X028200D01*
X027373Y031500D02*
X028200D01*
X027312Y031800D02*
X028200D01*
X027036Y033600D02*
X028200D01*
X026730Y033300D02*
X028200D01*
X026632Y032700D02*
X028200D01*
X026049Y033000D02*
X028200D01*
X027975Y026950D02*
X028200D01*
X027975Y027750D02*
X028200D01*
Y025874D02*
Y026950D01*
X027382Y026100D02*
X028200D01*
X028100Y027350D02*
Y027700D01*
Y027000D02*
Y027350D01*
X027750D02*
X028100D01*
X027382Y024300D02*
X028200D01*
X027373Y021000D02*
X028200D01*
X027382Y025792D02*
X028107D01*
X027382Y025800D02*
X028115D01*
X027382Y024392D02*
X028123D01*
X027379Y024000D02*
X028200D01*
X027259Y026700D02*
X028200D01*
X026488Y027900D02*
X028200D01*
X027350Y026400D02*
X028200D01*
X027331Y023700D02*
X028200D01*
X027362Y029100D02*
X028200D01*
X027284Y028800D02*
X028200D01*
X027140Y028500D02*
X028200D01*
X026902Y028200D02*
X028200D01*
X026980Y021900D02*
X028200D01*
X026634Y022200D02*
X028200D01*
X027312Y021300D02*
X028200D01*
X027188Y021600D02*
X028200D01*
X027221Y023400D02*
X028200D01*
X027035Y023100D02*
X028200D01*
X026728Y022800D02*
X028200D01*
X026042Y022500D02*
X028200D01*
X027900Y036291D02*
Y038400D01*
X027600Y036291D02*
Y038400D01*
X027382Y034606D02*
Y034891D01*
Y036291D02*
Y036575D01*
X026700Y037903D02*
Y038400D01*
X026400Y038073D02*
Y038400D01*
X027300Y037087D02*
Y038400D01*
X027000Y037625D02*
Y038400D01*
X027900Y031041D02*
Y034891D01*
X027600Y031041D02*
Y034891D01*
Y025792D02*
Y029641D01*
X027382Y029357D02*
Y029641D01*
X027300Y031837D02*
Y034094D01*
X027000Y032376D02*
Y033556D01*
X027382Y031041D02*
Y031325D01*
X026700Y032654D02*
Y033278D01*
X025800Y038208D02*
Y038400D01*
X025500Y038209D02*
Y038400D01*
X025200Y038209D02*
Y038400D01*
X023780Y038209D02*
X025748D01*
X024300D02*
Y038400D01*
X024000Y038209D02*
Y038400D01*
X024900Y038209D02*
Y038400D01*
X024600Y038209D02*
Y038400D01*
X026400Y032824D02*
Y033108D01*
X026100Y032921D02*
Y033010D01*
Y038171D02*
Y038400D01*
X023780Y032960D02*
X025748D01*
X023780Y032972D02*
X025748D01*
X027900Y027730D02*
Y029641D01*
X027744Y027581D02*
X027869Y027706D01*
X027096Y027000D02*
X027863D01*
X027700Y027225D02*
Y027475D01*
X027000Y027127D02*
Y028307D01*
X026831Y027300D02*
X027700D01*
X027744Y027119D02*
X027869Y026994D01*
X027900Y025792D02*
Y026970D01*
X027382Y025792D02*
Y026076D01*
Y024108D02*
Y024392D01*
X027300Y026588D02*
Y028845D01*
Y021339D02*
Y023596D01*
X027000Y021877D02*
Y023057D01*
X026700Y027404D02*
Y028029D01*
X026338Y027600D02*
X027763D01*
X026400Y027575D02*
Y027858D01*
X026100Y027672D02*
Y027761D01*
X023780Y027710D02*
X025748D01*
X023780Y027723D02*
X025748D01*
X026700Y022155D02*
Y022779D01*
X026400Y022325D02*
Y022609D01*
X026100Y022423D02*
Y022512D01*
X023780Y022473D02*
X025748D01*
X023780Y022461D02*
X025748D01*
X035624Y016200D02*
X037300D01*
X035029Y016500D02*
X037300D01*
X036093Y015600D02*
X037300D01*
X035915Y015900D02*
X037300D01*
X035400Y016350D02*
Y017150D01*
X035100Y016479D02*
Y017150D01*
X036000Y015775D02*
Y017150D01*
X035700Y016136D02*
Y017150D01*
X037300Y011250D02*
Y017150D01*
X037200Y011250D02*
Y017150D01*
X036239Y015000D02*
X037300D01*
X036196Y015300D02*
X037300D01*
X036900Y011250D02*
Y017150D01*
X036600Y011250D02*
Y017150D01*
X036300Y011250D02*
Y017150D01*
X036241Y012953D02*
Y014921D01*
X034322Y017100D02*
X037300D01*
X034322Y017150D02*
X037300D01*
X034322Y016556D02*
X034606D01*
X034322Y016800D02*
X037300D01*
X032922Y016556D02*
Y017150D01*
X028200D02*
X032922D01*
X034500Y016556D02*
Y017150D01*
X034322Y016556D02*
Y017150D01*
X034800Y016544D02*
Y017150D01*
X032700Y016556D02*
Y017150D01*
X032638Y016556D02*
X032922D01*
X032100Y016464D02*
Y017150D01*
X031800Y016324D02*
Y017150D01*
X032400Y016538D02*
Y017150D01*
X036241Y013200D02*
X037300D01*
X036241Y013500D02*
X037300D01*
X036240Y012900D02*
X037300D01*
X036202Y012600D02*
X037300D01*
X036241Y014400D02*
X037300D01*
X036241Y014700D02*
X037300D01*
X036241Y013800D02*
X037300D01*
X036241Y014100D02*
X037300D01*
X036105Y012300D02*
X037300D01*
X035934Y012000D02*
X037300D01*
X035656Y011700D02*
X037300D01*
X035116Y011400D02*
X037300D01*
X036000Y011250D02*
Y012099D01*
X035700Y011250D02*
Y011738D01*
X035400Y011250D02*
Y011524D01*
X035100Y011250D02*
Y011395D01*
X034800Y011250D02*
Y011330D01*
X034500Y011250D02*
Y011319D01*
X032638D02*
X034606D01*
X033600Y011250D02*
Y011319D01*
X034200Y011250D02*
Y011319D01*
X033900Y011250D02*
Y011319D01*
X032700Y011250D02*
Y011319D01*
X032400Y011250D02*
Y011336D01*
X033300Y011250D02*
Y011319D01*
X033000Y011250D02*
Y011319D01*
X031800Y011250D02*
Y011550D01*
X031500Y011250D02*
Y011780D01*
X032100Y011250D02*
Y011410D01*
X028200Y020624D02*
Y024326D01*
X027382Y020700D02*
X028200D01*
X027382Y019143D02*
X028123D01*
X027900Y020543D02*
Y024392D01*
X027600Y020543D02*
Y024392D01*
X027382Y020543D02*
X028108D01*
X027382D02*
Y020827D01*
X028200Y017150D02*
Y019076D01*
X027382Y018900D02*
X028200D01*
X027362Y018600D02*
X028200D01*
X027900Y011250D02*
Y019143D01*
X027600Y011250D02*
Y019143D01*
X027382Y018858D02*
Y019143D01*
X027300Y011250D02*
Y018346D01*
X027284Y018300D02*
X028200D01*
X027139Y018000D02*
X028200D01*
X026901Y017700D02*
X028200D01*
X026486Y017400D02*
X028200D01*
X027000Y011250D02*
Y017808D01*
X026400Y011250D02*
Y017360D01*
X023780Y017224D02*
X025748D01*
X026700Y011250D02*
Y017530D01*
X026100Y011250D02*
Y017262D01*
X025800Y011250D02*
Y017225D01*
X024900Y011250D02*
Y017224D01*
X024000Y011250D02*
Y017224D01*
X023700Y011250D02*
Y017226D01*
X024600Y011250D02*
Y017224D01*
X024300Y011250D02*
Y017224D01*
X031500Y016094D02*
Y017150D01*
X031200Y015698D02*
Y017150D01*
X030724Y014100D02*
X031004D01*
X030396Y014700D02*
X031004D01*
X030300Y014777D02*
Y017150D01*
X030000Y014925D02*
Y017150D01*
X030625Y014400D02*
X031004D01*
X030600Y014447D02*
Y017150D01*
X030731Y013800D02*
X031004D01*
X030647Y013500D02*
X031004D01*
X031200Y011250D02*
Y012176D01*
X030444Y013200D02*
X031004D01*
Y012953D02*
Y014921D01*
X030900Y011250D02*
Y017150D01*
X030600Y011250D02*
Y013407D01*
X030300Y011250D02*
Y013077D01*
X029700Y014971D02*
Y017150D01*
X030000Y011250D02*
Y012929D01*
X029881Y012900D02*
X031004D01*
X029400Y014928D02*
Y017150D01*
X029100Y014784D02*
Y017150D01*
X029400Y011250D02*
Y012926D01*
X028800Y014464D02*
Y017150D01*
Y011250D02*
Y013390D01*
X028500Y011250D02*
Y017150D01*
X029700Y011250D02*
Y012883D01*
X029100Y011250D02*
Y013070D01*
X025500Y011250D02*
Y017224D01*
X025200Y011250D02*
Y017224D01*
X028200Y011250D02*
Y017150D01*
X023700Y038207D02*
Y038400D01*
X023400Y038164D02*
Y038400D01*
X022500Y037591D02*
Y038400D01*
X022200Y036994D02*
Y038400D01*
X023100Y038061D02*
Y038400D01*
X022800Y037883D02*
Y038400D01*
X023400Y032915D02*
Y033017D01*
X023100Y032812D02*
Y033120D01*
X022500Y032342D02*
Y033590D01*
X022200Y031745D02*
Y034187D01*
X022800Y032634D02*
Y033298D01*
X022200Y026495D02*
Y028938D01*
X021700Y038400D02*
X028200D01*
X021700D02*
X028200D01*
X021700Y037800D02*
X022698D01*
X021700Y038100D02*
X023193D01*
X021700Y037200D02*
X022270D01*
X021700Y037500D02*
X022432D01*
X021700Y033600D02*
X022492D01*
X021700Y033900D02*
X022306D01*
X021700Y033000D02*
X023479D01*
X021700Y033300D02*
X022798D01*
X021700Y032400D02*
X022548D01*
X021700Y032700D02*
X022896D01*
X021700Y031800D02*
X022216D01*
X021700Y032100D02*
X022340D01*
X021700Y028500D02*
X022388D01*
X021700Y028800D02*
X022243D01*
X023400Y027666D02*
Y027767D01*
X023100Y027562D02*
Y027871D01*
X021700Y027600D02*
X023189D01*
X022500Y027093D02*
Y028340D01*
X021700Y028200D02*
X022625D01*
X022800Y027384D02*
Y028049D01*
X021700Y027900D02*
X023039D01*
X023400Y022416D02*
Y022518D01*
X022500Y021843D02*
Y023091D01*
X021700Y023400D02*
X022306D01*
X023100Y022313D02*
Y022621D01*
X022800Y022135D02*
Y022799D01*
X021700Y022800D02*
X022799D01*
X021700Y027300D02*
X022697D01*
X021700Y022200D02*
X022894D01*
X021700Y022500D02*
X023486D01*
X021700Y026700D02*
X022269D01*
X021700Y027000D02*
X022431D01*
X021700Y021900D02*
X022547D01*
X021700Y023100D02*
X022493D01*
X021700Y017400D02*
X023042D01*
X021700Y017700D02*
X022627D01*
X021700Y017100D02*
X032922D01*
X013000Y016800D02*
X032922D01*
X021700Y021300D02*
X022215D01*
X021700Y021600D02*
X022340D01*
X021700Y018000D02*
X022389D01*
X021700Y018300D02*
X022244D01*
X021792Y036000D02*
X022145D01*
X021700Y036600D02*
X022145D01*
X021874Y035700D02*
X022145D01*
X021763Y035100D02*
X022145D01*
X021700Y036167D02*
Y038400D01*
X021865Y035400D02*
X022145D01*
X021700Y034800D02*
X022145D01*
Y034606D02*
Y036575D01*
X021712Y030900D02*
X022145D01*
X021880Y030300D02*
X022145D01*
X021845Y030600D02*
X022145D01*
Y029357D02*
Y031325D01*
X021700Y030918D02*
Y034994D01*
X022145Y024108D02*
Y026076D01*
X021826Y030000D02*
X022145D01*
X021700Y034500D02*
X022149D01*
X021700Y036900D02*
X022178D01*
X021700Y031500D02*
X022155D01*
X021700Y034200D02*
X022197D01*
X021700Y036300D02*
X022145D01*
X021700Y031200D02*
X022145D01*
X021700Y029100D02*
X022166D01*
X021700Y029400D02*
X022145D01*
X021700Y026100D02*
X022145D01*
X021700Y026400D02*
X022178D01*
X021700Y025668D02*
Y029745D01*
Y025800D02*
X022145D01*
X021700Y029700D02*
X022145D01*
X021874Y025200D02*
X022145D01*
X021793Y025500D02*
X022145D01*
X021700Y023700D02*
X022197D01*
X021700Y024000D02*
X022149D01*
X021865Y024900D02*
X022145D01*
X021763Y024600D02*
X022145D01*
X022200Y021246D02*
Y023688D01*
X021700Y021000D02*
X022154D01*
X021846Y020100D02*
X022145D01*
X021713Y020400D02*
X022145D01*
Y018858D02*
Y020827D01*
X021700Y020419D02*
Y024495D01*
X021880Y019800D02*
X022145D01*
X021826Y019500D02*
X022145D01*
X021700Y020700D02*
X022145D01*
X021700Y024300D02*
X022145D01*
X021700Y018600D02*
X022166D01*
X021700Y019200D02*
X022145D01*
X021700Y018900D02*
X022145D01*
X021700Y017800D02*
Y019246D01*
Y017050D02*
Y017800D01*
X013000Y017150D02*
X021700Y017050D01*
X016800Y016556D02*
Y017106D01*
X013000Y017100D02*
X017350D01*
X016200Y016556D02*
Y017113D01*
X015000Y016556D02*
Y017127D01*
X016500Y016556D02*
Y017110D01*
X021000Y014371D02*
Y017058D01*
X020671Y014700D02*
X028994D01*
X020785Y014610D02*
X020910Y014485D01*
X020400Y014796D02*
Y017065D01*
X020100Y014800D02*
Y017068D01*
X020700Y014681D02*
Y017061D01*
X022800Y011250D02*
Y017550D01*
X022500Y011250D02*
Y017842D01*
X023400Y011250D02*
Y017269D01*
X023100Y011250D02*
Y017372D01*
X022200Y011250D02*
Y018439D01*
X021900Y011250D02*
Y038400D01*
X021600Y011250D02*
Y017051D01*
X021300Y011250D02*
Y017055D01*
X017907Y016200D02*
X031620D01*
X017312Y016500D02*
X032215D01*
X018376Y015600D02*
X031151D01*
X018199Y015900D02*
X031329D01*
X018480Y015300D02*
X031048D01*
X020075Y014800D02*
X020325D01*
X018522Y015000D02*
X031005D01*
X019800Y014739D02*
Y017072D01*
X018524Y014637D02*
X019645D01*
X018524Y014700D02*
X019729D01*
X018900Y014637D02*
Y017082D01*
X018600Y014637D02*
Y017086D01*
X019500Y014637D02*
Y017075D01*
X019200Y014637D02*
Y017079D01*
X021096Y014100D02*
X028666D01*
X020981Y014400D02*
X028765D01*
X021039Y013500D02*
X028743D01*
X020794Y013200D02*
X028946D01*
X021100Y013800D02*
X028659D01*
X021100Y013775D02*
Y014025D01*
X020785Y013190D02*
X020910Y013315D01*
X021000Y011250D02*
Y013429D01*
X020700Y011250D02*
Y013119D01*
X020400Y011250D02*
Y013004D01*
X019800Y011250D02*
Y013061D01*
X020100Y011250D02*
Y013000D01*
X020075D02*
X020325D01*
X018523Y012900D02*
X029509D01*
X018485Y012600D02*
X031042D01*
X018388Y012300D02*
X031140D01*
X018218Y012000D02*
X031310D01*
X019569Y013237D02*
X019615Y013190D01*
X018524Y013237D02*
X019569D01*
X018524Y013200D02*
X019606D01*
X018524Y012953D02*
Y013237D01*
X019500Y011250D02*
Y013237D01*
X017939Y011700D02*
X031588D01*
X017399Y011400D02*
X032128D01*
X013000Y011250D02*
X037300D01*
X018900D02*
Y013237D01*
X018600Y011250D02*
Y013237D01*
X019200Y011250D02*
Y013237D01*
X017100Y016542D02*
Y017103D01*
X015900Y016556D02*
Y017117D01*
X017400Y016474D02*
Y017099D01*
X014921Y016556D02*
X016890D01*
X014700Y016540D02*
Y017130D01*
X014400Y016470D02*
Y017134D01*
X015600Y016556D02*
Y017120D01*
X015300Y016556D02*
Y017124D01*
X018000Y016120D02*
Y017093D01*
X017700Y016341D02*
Y017096D01*
X018524Y014637D02*
Y014921D01*
X018300Y015747D02*
Y017089D01*
X013800Y016110D02*
Y017141D01*
X013500Y015728D02*
Y017144D01*
X014100Y016334D02*
Y017137D01*
X013000Y016200D02*
X013904D01*
X013000Y016500D02*
X014499D01*
X013000Y015600D02*
X013435D01*
X013000Y015900D02*
X013613D01*
X013000Y015300D02*
X013332D01*
X013000Y014929D02*
Y017150D01*
Y015000D02*
X013289D01*
X013022Y014700D02*
X013287D01*
X013000Y014400D02*
X013287D01*
X013000Y013800D02*
X013287D01*
X013000Y014100D02*
X013287D01*
Y012953D02*
Y014921D01*
X013200Y011250D02*
Y017148D01*
X013000Y012960D02*
Y014500D01*
X018300Y011250D02*
Y012127D01*
X018000Y011250D02*
Y011754D01*
X017700Y011250D02*
Y011533D01*
X017400Y011250D02*
Y011400D01*
X017100Y011250D02*
Y011332D01*
X016800Y011250D02*
Y011319D01*
X014921D02*
X016890D01*
X015900Y011250D02*
Y011319D01*
X015600Y011250D02*
Y011319D01*
X016500Y011250D02*
Y011319D01*
X016200Y011250D02*
Y011319D01*
X014700Y011250D02*
Y011334D01*
X014400Y011250D02*
Y011404D01*
X015300Y011250D02*
Y011319D01*
X015000Y011250D02*
Y011319D01*
X013012Y012600D02*
X013326D01*
X013011Y012900D02*
X013288D01*
X013000Y012000D02*
X013593D01*
X013000Y012300D02*
X013423D01*
X013000Y013200D02*
X013287D01*
X013000Y013500D02*
X013287D01*
X013000Y011700D02*
X013872D01*
X014100Y011250D02*
Y011540D01*
X013000Y011400D02*
X014412D01*
X013500Y011250D02*
Y012146D01*
X013000Y011250D02*
Y012532D01*
X013800Y011250D02*
Y011764D01*
X020750Y039100D02*
X031700D01*
X032075Y032575D02*
X032350D01*
X031900Y032750D02*
X032075Y032575D01*
X031900Y032750D02*
Y033350D01*
X031650Y033650D02*
X032350Y034350D01*
X031650Y032200D02*
Y033650D01*
Y032200D02*
X032200Y031650D01*
X015400Y033750D02*
X020750Y039100D01*
X037600Y032050D02*
X038100Y031550D01*
Y020700D02*
Y031550D01*
X032350Y034350D02*
X032450D01*
X032350Y033100D02*
X037100D01*
X038400Y031800*
Y021750D02*
Y031800D01*
X037600Y020700D02*
X037850Y020950D01*
Y031250*
X037450Y031650D02*
X037850Y031250D01*
X032200Y031650D02*
X037450D01*
X032350Y032050D02*
X037600D01*
X033622Y013937D02*
Y018328D01*
X020163Y013937D02*
X020200Y013900D01*
X028901Y025092D02*
X028909D01*
X028901Y030341D02*
X028909D01*
X028869Y035591D02*
X028909D01*
X028709D02*
X028869D01*
X024964D02*
X028709D01*
X028902Y019843D02*
X028909D01*
X028902D02*
X028909Y019850D01*
X028901Y025092D02*
X028909Y025100D01*
X028901Y030341D02*
X028909Y030350D01*
X028869Y035591D02*
X028909Y035550D01*
X015906Y013937D02*
X020163D01*
X014150Y028300D02*
X014950D01*
X015400Y028750*
Y033750*
X031700Y039100D02*
X032950Y037850D01*
X031900Y033350D02*
X032950Y034400D01*
Y037850*
G54D33*
X011307Y022750D03*
X037300Y029850D03*
Y028850D03*
G54D34*
X015893Y022750D03*
G54D35*
X018000Y020816D03*
Y022784D03*
Y028750D03*
Y026750D03*
Y024750D03*
G54D36*
X037300Y030850D03*
G54D37*
X011050Y036750D03*
X037200Y036500D03*
G54D38*
X033800Y029500D03*
X037400Y035250D03*
X032550Y019950D03*
Y020700D03*
Y021400D03*
X016600Y033550D03*
X018500D03*
X030150Y029350D03*
X032350Y032575D03*
X014150Y028300D03*
X032350Y033100D03*
X038400Y021750D03*
X037600Y020700D03*
X038100D03*
X032350Y034350D03*
Y032050D03*
X035883Y028417D03*
X035300Y027150D03*
X030700Y030750D03*
X035300Y029500D03*
X033650Y028100D03*
G54D39*
X033622Y018328D03*
X020200Y013900D03*
X028709Y019850D03*
Y025100D03*
Y030350D03*
Y035591D03*
X028100Y027350D03*
G54D40*
X033622Y013937D03*
X015906D03*
X024764Y019843D03*
Y025092D03*
Y030341D03*
Y035591D03*
G54D41*
X017050Y038800D02*
X018750D01*
X014700Y034750D02*
Y035700D01*
X015650Y036650*
X014700Y034750D02*
X018750Y038800D01*
X011300Y021600D02*
X012900D01*
X011250Y021550D02*
X011300Y021600D01*
X011250Y019900D02*
Y021550D01*
Y019900D02*
X011450D01*
X011800Y020250*
X011550Y015900D02*
X011800Y016150D01*
X011000Y015900D02*
X011550D01*
X011000D02*
Y018400D01*
X011150Y018550*
X011800Y016150D02*
Y020250D01*
X014700Y027050D02*
X015500D01*
X016450Y028000*
Y033500*
X019350Y035400D02*
Y036400D01*
X019050Y034150D02*
X019450Y034550D01*
X018100Y034150D02*
X019350Y035400D01*
X029900Y038250D02*
X031350D01*
X032150Y037450*
Y035500D02*
Y037450D01*
X031150Y034500D02*
X032150Y035500D01*
X016450Y033500D02*
X019350Y036400D01*
X018100Y034150D02*
X019050D01*
G54D42*
X016400Y037875D03*
G54D43*
X014075Y036950D03*
G54D44*
X038550Y036350D03*
G54D45*
X037275Y038125D03*
G54D46*
X034700Y037250D03*
G54D47*
X036275Y038950D03*
G54D48*
X035700Y025025D03*
G54D49*
X029525Y027300D03*
G54D50*
X031925Y026950D03*
G54D51*
X036825Y019150D03*
G54D52*
X038600Y034225D03*
G54D53*
X039025Y024675D03*
G54D54*
X016775Y033275D03*
G54D55*
X018246Y033477D03*
G54D56*
X036150Y028425D03*
G54D57*
X034700Y026100D03*
G54D58*
X032025Y028500D03*
G54D59*
X029701Y029167D03*
G54D60*
X036275Y034425D03*
G54D61*
X038651Y015180D03*
G54D62*
X017850Y032050D03*
G54D63*
X033350Y021775D03*
G54D64*
X029875Y034050D03*
G54D65*
X030950Y036550D03*
G54D66*
X030500Y032950D03*
G54D67*
X031900Y036100D03*
G54D68*
X031975Y037550D03*
G54D69*
X014150Y038550D03*
G54D70*
X014925Y037025D03*
G54D71*
X016650Y027175D03*
G54D72*
X015700Y025700D03*
G54D73*
X019700Y027350D03*
G54D74*
X014825Y018850D03*
G54D75*
X012650Y025700D03*
G54D76*
X013550Y021675D03*
G54D77*
X010500Y022975D03*
G54D78*
X012950Y032350D03*
G54D79*
X012100Y028350D03*
G54D80*
X015875Y020625D03*
G54D81*
X011375Y011175D03*
G54D82*
X031100Y019100D03*
M02*