%FSDAX24Y24*%
%MOIN*%
%SFA1B1*%

%IPPOS*%
%ADD26C,0.010000*%
%ADD108C,0.003900*%
%ADD109C,0.006000*%
%LNde-250624-1*%
%LPD*%
G54D26*
X018787Y020800D02*
D01*
X018785Y020854*
X018779Y020909*
X018769Y020963*
X018756Y021016*
X018739Y021069*
X018718Y021120*
X018694Y021169*
X018667Y021217*
X018636Y021262*
X018602Y021305*
X018566Y021346*
X018526Y021384*
X018484Y021420*
X018440Y021452*
X018393Y021481*
X018344Y021507*
X018294Y021529*
X018243Y021548*
X018190Y021563*
X018136Y021575*
X018082Y021582*
X018027Y021586*
X017972*
X017917Y021582*
X017863Y021575*
X017809Y021563*
X017756Y021548*
X017705Y021529*
X017655Y021507*
X017606Y021481*
X017559Y021452*
X017515Y021420*
X017473Y021384*
X017433Y021346*
X017397Y021305*
X017363Y021262*
X017332Y021217*
X017305Y021169*
X017281Y021120*
X017260Y021069*
X017243Y021016*
X017230Y020963*
X017220Y020909*
X017214Y020854*
X017213Y020800*
X017214Y020745*
X017220Y020690*
X017230Y020636*
X017243Y020583*
X017260Y020530*
X017281Y020479*
X017305Y020430*
X017332Y020382*
X017363Y020337*
X017397Y020294*
X017433Y020253*
X017473Y020215*
X017515Y020179*
X017559Y020147*
X017606Y020118*
X017655Y020092*
X017705Y020070*
X017756Y020051*
X017809Y020036*
X017863Y020024*
X017917Y020017*
X017972Y020013*
X018027*
X018082Y020017*
X018136Y020024*
X018190Y020036*
X018243Y020051*
X018294Y020070*
X018344Y020092*
X018393Y020118*
X018440Y020147*
X018484Y020179*
X018526Y020215*
X018566Y020253*
X018602Y020294*
X018636Y020337*
X018667Y020382*
X018694Y020430*
X018718Y020479*
X018739Y020530*
X018756Y020583*
X018769Y020636*
X018779Y020690*
X018785Y020745*
X018787Y020800*
Y022784D02*
D01*
X018785Y022838*
X018779Y022893*
X018769Y022947*
X018756Y023000*
X018739Y023053*
X018718Y023104*
X018694Y023153*
X018667Y023201*
X018636Y023246*
X018602Y023289*
X018566Y023330*
X018526Y023368*
X018484Y023404*
X018440Y023436*
X018393Y023465*
X018344Y023491*
X018294Y023513*
X018243Y023532*
X018190Y023547*
X018136Y023559*
X018082Y023566*
X018027Y023570*
X017972*
X017917Y023566*
X017863Y023559*
X017809Y023547*
X017756Y023532*
X017705Y023513*
X017655Y023491*
X017606Y023465*
X017559Y023436*
X017515Y023404*
X017473Y023368*
X017433Y023330*
X017397Y023289*
X017363Y023246*
X017332Y023201*
X017305Y023153*
X017281Y023104*
X017260Y023053*
X017243Y023000*
X017230Y022947*
X017220Y022893*
X017214Y022838*
X017213Y022784*
X017214Y022729*
X017220Y022674*
X017230Y022620*
X017243Y022567*
X017260Y022514*
X017281Y022463*
X017305Y022414*
X017332Y022366*
X017363Y022321*
X017397Y022278*
X017433Y022237*
X017473Y022199*
X017515Y022163*
X017559Y022131*
X017606Y022102*
X017655Y022076*
X017705Y022054*
X017756Y022035*
X017809Y022020*
X017863Y022008*
X017917Y022001*
X017972Y021997*
X018027*
X018082Y022001*
X018136Y022008*
X018190Y022020*
X018243Y022035*
X018294Y022054*
X018344Y022076*
X018393Y022102*
X018440Y022131*
X018484Y022163*
X018526Y022199*
X018566Y022237*
X018602Y022278*
X018636Y022321*
X018667Y022366*
X018694Y022414*
X018718Y022463*
X018739Y022514*
X018756Y022567*
X018769Y022620*
X018779Y022674*
X018785Y022729*
X018787Y022784*
Y028734D02*
D01*
X018785Y028788*
X018779Y028843*
X018769Y028897*
X018756Y028950*
X018739Y029003*
X018718Y029054*
X018694Y029103*
X018667Y029151*
X018636Y029196*
X018602Y029239*
X018566Y029280*
X018526Y029318*
X018484Y029354*
X018440Y029386*
X018393Y029415*
X018344Y029441*
X018294Y029463*
X018243Y029482*
X018190Y029497*
X018136Y029509*
X018082Y029516*
X018027Y029520*
X017972*
X017917Y029516*
X017863Y029509*
X017809Y029497*
X017756Y029482*
X017705Y029463*
X017655Y029441*
X017606Y029415*
X017559Y029386*
X017515Y029354*
X017473Y029318*
X017433Y029280*
X017397Y029239*
X017363Y029196*
X017332Y029151*
X017305Y029103*
X017281Y029054*
X017260Y029003*
X017243Y028950*
X017230Y028897*
X017220Y028843*
X017214Y028788*
X017213Y028734*
X017214Y028679*
X017220Y028624*
X017230Y028570*
X017243Y028517*
X017260Y028464*
X017281Y028413*
X017305Y028364*
X017332Y028316*
X017363Y028271*
X017397Y028228*
X017433Y028187*
X017473Y028149*
X017515Y028113*
X017559Y028081*
X017606Y028052*
X017655Y028026*
X017705Y028004*
X017756Y027985*
X017809Y027970*
X017863Y027958*
X017917Y027951*
X017972Y027947*
X018027*
X018082Y027951*
X018136Y027958*
X018190Y027970*
X018243Y027985*
X018294Y028004*
X018344Y028026*
X018393Y028052*
X018440Y028081*
X018484Y028113*
X018526Y028149*
X018566Y028187*
X018602Y028228*
X018636Y028271*
X018667Y028316*
X018694Y028364*
X018718Y028413*
X018739Y028464*
X018756Y028517*
X018769Y028570*
X018779Y028624*
X018785Y028679*
X018787Y028734*
Y024734D02*
D01*
X018785Y024788*
X018779Y024843*
X018769Y024897*
X018756Y024950*
X018739Y025003*
X018718Y025054*
X018694Y025103*
X018667Y025151*
X018636Y025196*
X018602Y025239*
X018566Y025280*
X018526Y025318*
X018484Y025354*
X018440Y025386*
X018393Y025415*
X018344Y025441*
X018294Y025463*
X018243Y025482*
X018190Y025497*
X018136Y025509*
X018082Y025516*
X018027Y025520*
X017972*
X017917Y025516*
X017863Y025509*
X017809Y025497*
X017756Y025482*
X017705Y025463*
X017655Y025441*
X017606Y025415*
X017559Y025386*
X017515Y025354*
X017473Y025318*
X017433Y025280*
X017397Y025239*
X017363Y025196*
X017332Y025151*
X017305Y025103*
X017281Y025054*
X017260Y025003*
X017243Y024950*
X017230Y024897*
X017220Y024843*
X017214Y024788*
X017213Y024734*
X017214Y024679*
X017220Y024624*
X017230Y024570*
X017243Y024517*
X017260Y024464*
X017281Y024413*
X017305Y024364*
X017332Y024316*
X017363Y024271*
X017397Y024228*
X017433Y024187*
X017473Y024149*
X017515Y024113*
X017559Y024081*
X017606Y024052*
X017655Y024026*
X017705Y024004*
X017756Y023985*
X017809Y023970*
X017863Y023958*
X017917Y023951*
X017972Y023947*
X018027*
X018082Y023951*
X018136Y023958*
X018190Y023970*
X018243Y023985*
X018294Y024004*
X018344Y024026*
X018393Y024052*
X018440Y024081*
X018484Y024113*
X018526Y024149*
X018566Y024187*
X018602Y024228*
X018636Y024271*
X018667Y024316*
X018694Y024364*
X018718Y024413*
X018739Y024464*
X018756Y024517*
X018769Y024570*
X018779Y024624*
X018785Y024679*
X018787Y024734*
Y026750D02*
D01*
X018785Y026804*
X018779Y026859*
X018769Y026913*
X018756Y026966*
X018739Y027019*
X018718Y027070*
X018694Y027119*
X018667Y027167*
X018636Y027212*
X018602Y027255*
X018566Y027296*
X018526Y027334*
X018484Y027370*
X018440Y027402*
X018393Y027431*
X018344Y027457*
X018294Y027479*
X018243Y027498*
X018190Y027513*
X018136Y027525*
X018082Y027532*
X018027Y027536*
X017972*
X017917Y027532*
X017863Y027525*
X017809Y027513*
X017756Y027498*
X017705Y027479*
X017655Y027457*
X017606Y027431*
X017559Y027402*
X017515Y027370*
X017473Y027334*
X017433Y027296*
X017397Y027255*
X017363Y027212*
X017332Y027167*
X017305Y027119*
X017281Y027070*
X017260Y027019*
X017243Y026966*
X017230Y026913*
X017220Y026859*
X017214Y026804*
X017213Y026750*
X017214Y026695*
X017220Y026640*
X017230Y026586*
X017243Y026533*
X017260Y026480*
X017281Y026429*
X017305Y026380*
X017332Y026332*
X017363Y026287*
X017397Y026244*
X017433Y026203*
X017473Y026165*
X017515Y026129*
X017559Y026097*
X017606Y026068*
X017655Y026042*
X017705Y026020*
X017756Y026001*
X017809Y025986*
X017863Y025974*
X017917Y025967*
X017972Y025963*
X018027*
X018082Y025967*
X018136Y025974*
X018190Y025986*
X018243Y026001*
X018294Y026020*
X018344Y026042*
X018393Y026068*
X018440Y026097*
X018484Y026129*
X018526Y026165*
X018566Y026203*
X018602Y026244*
X018636Y026287*
X018667Y026332*
X018694Y026380*
X018718Y026429*
X018739Y026480*
X018756Y026533*
X018769Y026586*
X018779Y026640*
X018785Y026695*
X018787Y026750*
X029695Y002750D02*
Y013433D01*
X010000Y002750D02*
Y008700D01*
X021247Y002850D02*
X029695D01*
X010000D02*
X018128D01*
X029095Y003050D02*
X029695Y002850D01*
X029095Y002650D02*
X029695Y002850D01*
X010000D02*
X010600Y002650D01*
X010000Y002850D02*
X010600Y003050D01*
X033622Y001150D02*
Y011829D01*
X010000Y001150D02*
Y005000D01*
X023211Y001250D02*
X033622D01*
X010000D02*
X020091D01*
X033022Y001450D02*
X033622Y001250D01*
X033022Y001050D02*
X033622Y001250D01*
X010000D02*
X010600Y001050D01*
X010000Y001250D02*
X010600Y001450D01*
X015900Y004200D02*
Y008750D01*
X010000Y004200D02*
Y009850D01*
X014300Y004300D02*
X015900D01*
X010000D02*
X011280D01*
X015300Y004500D02*
X015900Y004300D01*
X015300Y004100D02*
X015900Y004300D01*
X010000D02*
X010600Y004100D01*
X010000Y004300D02*
X010600Y004500D01*
X024764Y037699D02*
Y044150D01*
X010000Y039678D02*
Y044150D01*
X018781Y044050D02*
X024764D01*
X010000D02*
X015662D01*
X024164Y044250D02*
X024764Y044050D01*
X024164Y043850D02*
X024764Y044050D01*
X010000D02*
X010600Y043850D01*
X010000Y044050D02*
X010600Y044250D01*
X020837Y036074D02*
Y041550D01*
X010000Y039678D02*
Y041550D01*
X016818Y041450D02*
X020837D01*
X010000D02*
X013699D01*
X020237Y041650D02*
X020837Y041450D01*
X020237Y041250D02*
X020837Y041450D01*
X010000D02*
X010600Y041250D01*
X010000Y041450D02*
X010600Y041650D01*
X042450Y039528D02*
X042750D01*
X042550Y035591D02*
X042700D01*
X042650Y038909D02*
Y039528D01*
Y035591D02*
Y035889D01*
X042450Y038928D02*
X042650Y039528D01*
X042850Y038928*
X042650Y035591D02*
X042850Y036191D01*
X042450D02*
X042650Y035591D01*
X026872D02*
X042700D01*
X042550Y030341D02*
X042700D01*
X042600Y034315D02*
Y035591D01*
Y030341D02*
Y031296D01*
X042400Y034991D02*
X042600Y035591D01*
X042800Y034991*
X042600Y030341D02*
X042800Y030941D01*
X042400D02*
X042600Y030341D01*
X026872D02*
X042650D01*
X042450Y025092D02*
X042600D01*
X042550Y029066D02*
Y030341D01*
Y025092D02*
Y026047D01*
X042350Y029741D02*
X042550Y030341D01*
X042750Y029741*
X042550Y025092D02*
X042750Y025692D01*
X042350D02*
X042550Y025092D01*
X026872D02*
X042600D01*
X042400Y019843D02*
X042600D01*
X042500Y023817D02*
Y025092D01*
Y019843D02*
Y020798D01*
X042300Y024492D02*
X042500Y025092D01*
X042700Y024492*
X042500Y019843D02*
X042700Y020443D01*
X042300D02*
X042500Y019843D01*
X007050Y039528D02*
X009850D01*
X007050Y035581D02*
X020343D01*
X007150Y038904D02*
Y039528D01*
Y035581D02*
Y035884D01*
X006950Y038928D02*
X007150Y039528D01*
X007350Y038928*
X007150Y035581D02*
X007350Y036181D01*
X006950D02*
X007150Y035581D01*
X007000D02*
X020343D01*
X007000Y030331D02*
X020343D01*
X007100Y034306D02*
Y035581D01*
Y030331D02*
Y031286D01*
X006900Y034981D02*
X007100Y035581D01*
X007300Y034981*
X007100Y030331D02*
X007300Y030931D01*
X006900D02*
X007100Y030331D01*
X006950D02*
X020343D01*
X006950Y025082D02*
X020343D01*
X007050Y029056D02*
Y030331D01*
Y025082D02*
Y026037D01*
X006850Y029731D02*
X007050Y030331D01*
X007250Y029731*
X007050Y025082D02*
X007250Y025682D01*
X006850D02*
X007050Y025082D01*
X006900D02*
X020343D01*
X006900Y019833D02*
X008250D01*
X007000Y023807D02*
Y025082D01*
Y019833D02*
Y020788D01*
X006800Y024482D02*
X007000Y025082D01*
X007200Y024482*
X007000Y019833D02*
X007200Y020433D01*
X006800D02*
X007000Y019833D01*
X006950D02*
X020343D01*
X006950Y014714D02*
X008900D01*
X007050Y018623D02*
Y019833D01*
Y014714D02*
Y015604D01*
X006850Y019233D02*
X007050Y019833D01*
X007250Y019233*
X007050Y014714D02*
X007250Y015314D01*
X006850D02*
X007050Y014714D01*
X006950D02*
X011485D01*
X006950Y012746D02*
X009350D01*
X007050Y011746D02*
Y012746D01*
Y014714D02*
Y015714D01*
X006850Y012146D02*
X007050Y012746D01*
X007250Y012146*
X007050Y014714D02*
X007250Y015314D01*
X006850D02*
X007050Y014714D01*
X006950Y012746D02*
X011485D01*
X006950Y010000D02*
X009850D01*
X007050Y009000D02*
Y010000D01*
Y012746D02*
Y013746D01*
X006850Y009400D02*
X007050Y010000D01*
X007250Y009400*
X007050Y012746D02*
X007250Y013346D01*
X006850D02*
X007050Y012746D01*
X010000Y007343D02*
Y009850D01*
X011978Y007343D02*
Y007550D01*
Y007443D02*
X012979D01*
X009000D02*
X010000D01*
X011978D02*
X012579Y007243D01*
X011978Y007443D02*
X012579Y007643D01*
X009400D02*
X010000Y007443D01*
X009400Y007243D02*
X010000Y007443D01*
X011978Y007450D02*
Y012252D01*
X015906Y007450D02*
Y007650D01*
X011978Y007550D02*
X012522D01*
X015042D02*
X015906D01*
X011978D02*
X012579Y007350D01*
X011978Y007550D02*
X012579Y007750D01*
X015306D02*
X015906Y007550D01*
X015306Y007350D02*
X015906Y007550D01*
Y007450D02*
Y011829D01*
X020837Y007450D02*
Y007600D01*
X015906Y007550D02*
X016702D01*
X019721D02*
X020837D01*
X015906D02*
X016506Y007350D01*
X015906Y007550D02*
X016506Y007750D01*
X020237D02*
X020837Y007550D01*
X020237Y007350D02*
X020837Y007550D01*
Y007500D02*
Y019339D01*
X024764Y007500D02*
Y007650D01*
X020837Y007600D02*
X021381D01*
X023900D02*
X024764D01*
X020837D02*
X021437Y007400D01*
X020837Y007600D02*
X021437Y007800D01*
X024164D02*
X024764Y007600D01*
X024164Y007400D02*
X024764Y007600D01*
Y007550D02*
Y017734D01*
X029695Y007550D02*
Y008250D01*
X024764Y007650D02*
X025560D01*
X028579D02*
X029695D01*
X024764D02*
X025364Y007450D01*
X024764Y007650D02*
X025364Y007850D01*
X029095D02*
X029695Y007650D01*
X029095Y007450D02*
X029695Y007650D01*
Y007600D02*
Y013433D01*
X033622Y007600D02*
Y010150D01*
X029695Y007700D02*
X030239D01*
X032758D02*
X033622D01*
X029695D02*
X030295Y007500D01*
X029695Y007700D02*
X030295Y007900D01*
X033022D02*
X033622Y007700D01*
X033022Y007500D02*
X033622Y007700D01*
Y007600D02*
Y011829D01*
X039528Y007600D02*
Y009850D01*
X033622Y007700D02*
X034905D01*
X037924D02*
X039528D01*
X033622D02*
X034222Y007500D01*
X033622Y007700D02*
X034222Y007900D01*
X038928D02*
X039528Y007700D01*
X038928Y007500D02*
X039528Y007700D01*
Y039628D02*
Y047150D01*
X010000Y039628D02*
Y047150D01*
X026163Y047050D02*
X039528D01*
X010000D02*
X023044D01*
X038928Y047250D02*
X039528Y047050D01*
X038928Y046850D02*
X039528Y047050D01*
X010000D02*
X010600Y046850D01*
X010000Y047050D02*
X010600Y047250D01*
X026872Y019843D02*
X042600D01*
X042450Y013937D02*
X042600D01*
X042500Y018239D02*
Y019843D01*
Y013937D02*
Y015220D01*
X042300Y019243D02*
X042500Y019843D01*
X042700Y019243*
X042500Y013937D02*
X042700Y014537D01*
X042300D02*
X042500Y013937D01*
X035731D02*
X042550D01*
X039678Y010000D02*
X042550D01*
X042450Y013318D02*
Y013937D01*
Y010000D02*
Y010299D01*
X042250Y013337D02*
X042450Y013937D01*
X042650Y013337*
X042450Y010000D02*
X042650Y010600D01*
X042250D02*
X042450Y010000D01*
X039628D02*
X046900D01*
X039678Y039528D02*
X046900D01*
X046800Y010000D02*
Y023044D01*
Y026163D02*
Y039528D01*
Y010000D02*
X047000Y010600D01*
X046600D02*
X046800Y010000D01*
X046600Y038928D02*
X046800Y039528D01*
X047000Y038928*
X017400Y023250D02*
X018450Y022200D01*
X017575Y023425D02*
X018650Y022350D01*
X017550Y020200D02*
X018600Y021250D01*
X018650*
X017350Y020400D02*
X018400Y021450D01*
X017575Y029375D02*
X018650Y028300D01*
X017400Y029200D02*
X018450Y028150D01*
X017575Y025375D02*
X018650Y024300D01*
X017400Y025200D02*
X018450Y024150D01*
X017350Y026350D02*
X018400Y027400D01*
X017550Y026150D02*
X018600Y027200D01*
G54D108*
X029685Y013858D02*
Y014016D01*
X029606Y013937D02*
X029764D01*
X011968Y014646D02*
Y014803D01*
X011890Y014724D02*
X012047D01*
X011968Y012677D02*
Y012835D01*
X011890Y012756D02*
X012047D01*
X020827Y025013D02*
Y025170D01*
X020748Y025092D02*
X020906D01*
X020827Y030263D02*
Y030420D01*
X020748Y030341D02*
X020906D01*
X020827Y035512D02*
Y035669D01*
X020748Y035591D02*
X020906D01*
X020827Y019764D02*
Y019921D01*
X020748Y019843D02*
X020906D01*
G54D109*
X018688Y002990D02*
X018288D01*
Y002690*
X018488Y002790*
X018588*
X018688Y002690*
Y002490*
X018588Y002390*
X018388*
X018288Y002490*
X018888Y002890D02*
X018988Y002990D01*
X019188*
X019288Y002890*
Y002490*
X019188Y002390*
X018988*
X018888Y002490*
Y002890*
X019588Y002290D02*
X019688Y002390D01*
Y002490*
X019588*
Y002390*
X019688*
X019588Y002290*
X019488Y002190*
X020087Y002890D02*
X020187Y002990D01*
X020387*
X020487Y002890*
Y002490*
X020387Y002390*
X020187*
X020087Y002490*
Y002890*
X021087Y002390D02*
X020687D01*
X021087Y002790*
Y002890*
X020987Y002990*
X020787*
X020687Y002890*
X020651Y001390D02*
X020451Y001290D01*
X020251Y001090*
Y000890*
X020351Y000790*
X020551*
X020651Y000890*
Y000990*
X020551Y001090*
X020251*
X020851Y001290D02*
X020951Y001390D01*
X021151*
X021251Y001290*
Y000890*
X021151Y000790*
X020951*
X020851Y000890*
Y001290*
X021551Y000690D02*
X021651Y000790D01*
Y000890*
X021551*
Y000790*
X021651*
X021551Y000690*
X021451Y000590*
X022051Y001290D02*
X022151Y001390D01*
X022351*
X022451Y001290*
Y000890*
X022351Y000790*
X022151*
X022051Y000890*
Y001290*
X022651D02*
X022751Y001390D01*
X022951*
X023051Y001290*
Y000890*
X022951Y000790*
X022751*
X022651Y000890*
Y001290*
X011440Y003840D02*
X011640D01*
X011540*
Y004440*
X011440Y004340*
X012240Y003840D02*
Y004440D01*
X011940Y004140*
X012340*
X012640Y003740D02*
X012740Y003840D01*
Y003940*
X012640*
Y003840*
X012740*
X012640Y003740*
X012540Y003640*
X013140Y003940D02*
X013240Y003840D01*
X013440*
X013540Y003940*
Y004340*
X013440Y004440*
X013240*
X013140Y004340*
Y004240*
X013240Y004140*
X013540*
X013740Y003940D02*
X013840Y003840D01*
X014040*
X014140Y003940*
Y004340*
X014040Y004440*
X013840*
X013740Y004340*
Y004240*
X013840Y004140*
X014140*
X015822Y044090D02*
X015922Y044190D01*
X016122*
X016222Y044090*
Y043990*
X016122Y043890*
X016022*
X016122*
X016222Y043790*
Y043690*
X016122Y043590*
X015922*
X015822Y043690*
X016422Y044190D02*
X016822D01*
Y044090*
X016422Y043690*
Y043590*
X017122Y043490D02*
X017222Y043590D01*
Y043690*
X017122*
Y043590*
X017222*
X017122Y043490*
X017022Y043390*
X018022Y044190D02*
X017622D01*
Y043890*
X017822Y043990*
X017922*
X018022Y043890*
Y043690*
X017922Y043590*
X017722*
X017622Y043690*
X018222Y044090D02*
X018322Y044190D01*
X018521*
X018621Y044090*
Y043690*
X018521Y043590*
X018322*
X018222Y043690*
Y044090*
X014259Y040990D02*
X013859D01*
X014259Y041390*
Y041490*
X014159Y041590*
X013959*
X013859Y041490*
X014459Y041590D02*
X014859D01*
Y041490*
X014459Y041090*
Y040990*
X015158Y040890D02*
X015258Y040990D01*
Y041090*
X015158*
Y040990*
X015258*
X015158Y040890*
X015058Y040790*
X016058Y041590D02*
X015658D01*
Y041290*
X015858Y041390*
X015958*
X016058Y041290*
Y041090*
X015958Y040990*
X015758*
X015658Y041090*
X016658Y040990D02*
X016258D01*
X016658Y041390*
Y041490*
X016558Y041590*
X016358*
X016258Y041490*
X043110Y036049D02*
Y036249D01*
Y036149*
X042510*
X042610Y036049*
Y036549D02*
X042510Y036649D01*
Y036849*
X042610Y036949*
X043010*
X043110Y036849*
Y036649*
X043010Y036549*
X042610*
X043210Y037249D02*
X043110Y037349D01*
X043010*
Y037249*
X043110*
Y037349*
X043210Y037249*
X043310Y037149*
X042610Y037749D02*
X042510Y037849D01*
Y038049*
X042610Y038149*
X043010*
X043110Y038049*
Y037849*
X043010Y037749*
X042610*
Y038349D02*
X042510Y038449D01*
Y038649*
X042610Y038749*
X043010*
X043110Y038649*
Y038449*
X043010Y038349*
X042610*
X043060Y031456D02*
Y031656D01*
Y031556*
X042460*
X042560Y031456*
Y031956D02*
X042460Y032056D01*
Y032256*
X042560Y032356*
X042660*
X042760Y032256*
Y032156*
Y032256*
X042860Y032356*
X042960*
X043060Y032256*
Y032056*
X042960Y031956*
X043160Y032656D02*
X043060Y032756D01*
X042960*
Y032656*
X043060*
Y032756*
X043160Y032656*
X043260Y032556*
X042560Y033156D02*
X042460Y033256D01*
Y033456*
X042560Y033556*
X042660*
X042760Y033456*
Y033356*
Y033456*
X042860Y033556*
X042960*
X043060Y033456*
Y033256*
X042960Y033156*
X042560Y033756D02*
X042460Y033856D01*
Y034055*
X042560Y034155*
X042660*
X042760Y034055*
Y033956*
Y034055*
X042860Y034155*
X042960*
X043060Y034055*
Y033856*
X042960Y033756*
X043010Y026207D02*
Y026407D01*
Y026307*
X042410*
X042510Y026207*
Y026707D02*
X042410Y026807D01*
Y027007*
X042510Y027107*
X042610*
X042710Y027007*
Y026907*
Y027007*
X042810Y027107*
X042910*
X043010Y027007*
Y026807*
X042910Y026707*
X043110Y027407D02*
X043010Y027507D01*
X042910*
Y027407*
X043010*
Y027507*
X043110Y027407*
X043210Y027307*
X042510Y027906D02*
X042410Y028006D01*
Y028206*
X042510Y028306*
X042610*
X042710Y028206*
Y028106*
Y028206*
X042810Y028306*
X042910*
X043010Y028206*
Y028006*
X042910Y027906*
X042510Y028506D02*
X042410Y028606D01*
Y028806*
X042510Y028906*
X042610*
X042710Y028806*
Y028706*
Y028806*
X042810Y028906*
X042910*
X043010Y028806*
Y028606*
X042910Y028506*
X042960Y020958D02*
Y021158D01*
Y021058*
X042360*
X042460Y020958*
Y021457D02*
X042360Y021557D01*
Y021757*
X042460Y021857*
X042560*
X042660Y021757*
Y021657*
Y021757*
X042760Y021857*
X042860*
X042960Y021757*
Y021557*
X042860Y021457*
X043060Y022157D02*
X042960Y022257D01*
X042860*
Y022157*
X042960*
Y022257*
X043060Y022157*
X043160Y022057*
X042460Y022657D02*
X042360Y022757D01*
Y022957*
X042460Y023057*
X042560*
X042660Y022957*
Y022857*
Y022957*
X042760Y023057*
X042860*
X042960Y022957*
Y022757*
X042860Y022657*
X042460Y023257D02*
X042360Y023357D01*
Y023557*
X042460Y023657*
X042560*
X042660Y023557*
Y023457*
Y023557*
X042760Y023657*
X042860*
X042960Y023557*
Y023357*
X042860Y023257*
X007610Y036044D02*
Y036244D01*
Y036144*
X007010*
X007110Y036044*
Y036544D02*
X007010Y036644D01*
Y036844*
X007110Y036944*
X007510*
X007610Y036844*
Y036644*
X007510Y036544*
X007110*
X007710Y037244D02*
X007610Y037344D01*
X007510*
Y037244*
X007610*
Y037344*
X007710Y037244*
X007810Y037144*
X007110Y037744D02*
X007010Y037844D01*
Y038044*
X007110Y038144*
X007510*
X007610Y038044*
Y037844*
X007510Y037744*
X007110*
Y038344D02*
X007010Y038444D01*
Y038644*
X007110Y038744*
X007210*
X007310Y038644*
Y038544*
Y038644*
X007410Y038744*
X007510*
X007610Y038644*
Y038444*
X007510Y038344*
X007560Y031446D02*
Y031646D01*
Y031546*
X006960*
X007060Y031446*
Y031946D02*
X006960Y032046D01*
Y032246*
X007060Y032346*
X007160*
X007260Y032246*
Y032146*
Y032246*
X007360Y032346*
X007460*
X007560Y032246*
Y032046*
X007460Y031946*
X007660Y032646D02*
X007560Y032746D01*
X007460*
Y032646*
X007560*
Y032746*
X007660Y032646*
X007760Y032546*
X007060Y033146D02*
X006960Y033246D01*
Y033446*
X007060Y033546*
X007160*
X007260Y033446*
Y033346*
Y033446*
X007360Y033546*
X007460*
X007560Y033446*
Y033246*
X007460Y033146*
X007060Y033746D02*
X006960Y033846D01*
Y034046*
X007060Y034146*
X007160*
X007260Y034046*
Y033946*
Y034046*
X007360Y034146*
X007460*
X007560Y034046*
Y033846*
X007460Y033746*
X007510Y026197D02*
Y026397D01*
Y026297*
X006910*
X007010Y026197*
Y026697D02*
X006910Y026797D01*
Y026997*
X007010Y027097*
X007110*
X007210Y026997*
Y026897*
Y026997*
X007310Y027097*
X007410*
X007510Y026997*
Y026797*
X007410Y026697*
X007610Y027397D02*
X007510Y027497D01*
X007410*
Y027397*
X007510*
Y027497*
X007610Y027397*
X007710Y027297*
X007010Y027896D02*
X006910Y027996D01*
Y028196*
X007010Y028296*
X007110*
X007210Y028196*
Y028096*
Y028196*
X007310Y028296*
X007410*
X007510Y028196*
Y027996*
X007410Y027896*
X007010Y028496D02*
X006910Y028596D01*
Y028796*
X007010Y028896*
X007110*
X007210Y028796*
Y028696*
Y028796*
X007310Y028896*
X007410*
X007510Y028796*
Y028596*
X007410Y028496*
X007460Y020948D02*
Y021147D01*
Y021048*
X006860*
X006960Y020948*
Y021447D02*
X006860Y021547D01*
Y021747*
X006960Y021847*
X007060*
X007160Y021747*
Y021647*
Y021747*
X007260Y021847*
X007360*
X007460Y021747*
Y021547*
X007360Y021447*
X007560Y022147D02*
X007460Y022247D01*
X007360*
Y022147*
X007460*
Y022247*
X007560Y022147*
X007660Y022047*
X006960Y022647D02*
X006860Y022747D01*
Y022947*
X006960Y023047*
X007060*
X007160Y022947*
Y022847*
Y022947*
X007260Y023047*
X007360*
X007460Y022947*
Y022747*
X007360Y022647*
X006960Y023247D02*
X006860Y023347D01*
Y023547*
X006960Y023647*
X007060*
X007160Y023547*
Y023447*
Y023547*
X007260Y023647*
X007360*
X007460Y023547*
Y023347*
X007360Y023247*
X007510Y015764D02*
Y015964D01*
Y015864*
X006910*
X007010Y015764*
Y016264D02*
X006910Y016364D01*
Y016564*
X007010Y016664*
X007110*
X007210Y016564*
Y016464*
Y016564*
X007310Y016664*
X007410*
X007510Y016564*
Y016364*
X007410Y016264*
X007610Y016964D02*
X007510Y017063D01*
X007410*
Y016964*
X007510*
Y017063*
X007610Y016964*
X007710Y016864*
X007010Y017463D02*
X006910Y017563D01*
Y017763*
X007010Y017863*
X007410*
X007510Y017763*
Y017563*
X007410Y017463*
X007010*
Y018063D02*
X006910Y018163D01*
Y018363*
X007010Y018463*
X007410*
X007510Y018363*
Y018163*
X007410Y018063*
X007010*
X005828Y013019D02*
Y012704D01*
X006064*
X005985Y012862*
Y012940*
X006064Y013019*
X006222*
X006300Y012940*
Y012783*
X006222Y012704*
X006379Y013255D02*
X006300Y013334D01*
X006222*
Y013255*
X006300*
Y013334*
X006379Y013255*
X006458Y013177*
X005907Y013649D02*
X005828Y013728D01*
Y013885*
X005907Y013964*
X006222*
X006300Y013885*
Y013728*
X006222Y013649*
X005907*
Y014121D02*
X005828Y014200D01*
Y014357*
X005907Y014436*
X006222*
X006300Y014357*
Y014200*
X006222Y014121*
X005907*
X005828Y010662D02*
X005907Y010505D01*
X006064Y010347*
X006222*
X006300Y010426*
Y010583*
X006222Y010662*
X006143*
X006064Y010583*
Y010347*
X006379Y010898D02*
X006300Y010977D01*
X006222*
Y010898*
X006300*
Y010977*
X006379Y010898*
X006458Y010819*
X006222Y011292D02*
X006300Y011370D01*
Y011528*
X006222Y011607*
X005907*
X005828Y011528*
Y011370*
X005907Y011292*
X005985*
X006064Y011370*
Y011607*
X005828Y011764D02*
Y012079D01*
X005907*
X006222Y011764*
X006300*
X010129Y006203D02*
X009730D01*
Y005903*
X009930Y006003*
X010030*
X010129Y005903*
Y005703*
X010030Y005603*
X009830*
X009730Y005703*
X010429Y005503D02*
X010529Y005603D01*
Y005703*
X010429*
Y005603*
X010529*
X010429Y005503*
X010329Y005403*
X010929Y006103D02*
X011029Y006203D01*
X011229*
X011329Y006103*
Y005703*
X011229Y005603*
X011029*
X010929Y005703*
Y006103*
X011529D02*
X011629Y006203D01*
X011829*
X011929Y006103*
Y006003*
X011829Y005903*
X011729*
X011829*
X011929Y005803*
Y005703*
X011829Y005603*
X011629*
X011529Y005703*
X012682Y007190D02*
X012782Y007090D01*
X012982*
X013082Y007190*
Y007590*
X012982Y007690*
X012782*
X012682Y007590*
Y007490*
X012782Y007390*
X013082*
X013382Y006990D02*
X013482Y007090D01*
Y007190*
X013382*
Y007090*
X013482*
X013382Y006990*
X013282Y006890*
X013882Y007190D02*
X013982Y007090D01*
X014182*
X014282Y007190*
Y007590*
X014182Y007690*
X013982*
X013882Y007590*
Y007490*
X013982Y007390*
X014282*
X014482Y007690D02*
X014882D01*
Y007590*
X014482Y007190*
Y007090*
X016862D02*
X017062D01*
X016962*
Y007690*
X016862Y007590*
X017761Y007090D02*
X017361D01*
X017761Y007490*
Y007590*
X017661Y007690*
X017461*
X017361Y007590*
X018061Y006990D02*
X018161Y007090D01*
Y007190*
X018061*
Y007090*
X018161*
X018061Y006990*
X017961Y006890*
X018961Y007690D02*
X018561D01*
Y007390*
X018761Y007490*
X018861*
X018961Y007390*
Y007190*
X018861Y007090*
X018661*
X018561Y007190*
X019161Y007590D02*
X019261Y007690D01*
X019461*
X019561Y007590*
Y007490*
X019461Y007390*
X019361*
X019461*
X019561Y007290*
Y007190*
X019461Y007090*
X019261*
X019161Y007190*
X021541Y007240D02*
X021641Y007140D01*
X021841*
X021941Y007240*
Y007640*
X021841Y007740*
X021641*
X021541Y007640*
Y007540*
X021641Y007440*
X021941*
X022240Y007040D02*
X022340Y007140D01*
Y007240*
X022240*
Y007140*
X022340*
X022240Y007040*
X022140Y006940*
X022740Y007240D02*
X022840Y007140D01*
X023040*
X023140Y007240*
Y007640*
X023040Y007740*
X022840*
X022740Y007640*
Y007540*
X022840Y007440*
X023140*
X023340Y007740D02*
X023740D01*
Y007640*
X023340Y007240*
Y007140*
X025720Y007190D02*
X025920D01*
X025820*
Y007790*
X025720Y007690*
X026620Y007190D02*
X026220D01*
X026620Y007590*
Y007690*
X026520Y007790*
X026320*
X026220Y007690*
X026919Y007090D02*
X027019Y007190D01*
Y007290*
X026919*
Y007190*
X027019*
X026919Y007090*
X026819Y006990*
X027819Y007790D02*
X027419D01*
Y007490*
X027619Y007590*
X027719*
X027819Y007490*
Y007290*
X027719Y007190*
X027519*
X027419Y007290*
X028019Y007690D02*
X028119Y007790D01*
X028319*
X028419Y007690*
Y007590*
X028319Y007490*
X028219*
X028319*
X028419Y007390*
Y007290*
X028319Y007190*
X028119*
X028019Y007290*
X030399Y007340D02*
X030499Y007240D01*
X030699*
X030799Y007340*
Y007740*
X030699Y007840*
X030499*
X030399Y007740*
Y007640*
X030499Y007540*
X030799*
X031099Y007140D02*
X031199Y007240D01*
Y007340*
X031099*
Y007240*
X031199*
X031099Y007140*
X030999Y007040*
X031599Y007340D02*
X031698Y007240D01*
X031898*
X031998Y007340*
Y007740*
X031898Y007840*
X031698*
X031599Y007740*
Y007640*
X031698Y007540*
X031998*
X032198Y007840D02*
X032598D01*
Y007740*
X032198Y007340*
Y007240*
X035065D02*
X035265D01*
X035165*
Y007840*
X035065Y007740*
X035965Y007840D02*
X035565D01*
Y007540*
X035765Y007640*
X035865*
X035965Y007540*
Y007340*
X035865Y007240*
X035665*
X035565Y007340*
X036265Y007140D02*
X036365Y007240D01*
Y007340*
X036265*
Y007240*
X036365*
X036265Y007140*
X036165Y007040*
X036765Y007740D02*
X036865Y007840D01*
X037065*
X037165Y007740*
Y007340*
X037065Y007240*
X036865*
X036765Y007340*
Y007740*
X037364D02*
X037464Y007840D01*
X037664*
X037764Y007740*
Y007340*
X037664Y007240*
X037464*
X037364Y007340*
Y007740*
X023204Y047190D02*
X023604D01*
Y047090*
X023204Y046690*
Y046590*
X024204Y047190D02*
X023804D01*
Y046890*
X024004Y046990*
X024104*
X024204Y046890*
Y046690*
X024104Y046590*
X023904*
X023804Y046690*
X024504Y046490D02*
X024604Y046590D01*
Y046690*
X024504*
Y046590*
X024604*
X024504Y046490*
X024404Y046390*
X025004Y047090D02*
X025104Y047190D01*
X025304*
X025404Y047090*
Y046690*
X025304Y046590*
X025104*
X025004Y046690*
Y047090*
X025603D02*
X025703Y047190D01*
X025903*
X026003Y047090*
Y046690*
X025903Y046590*
X025703*
X025603Y046690*
Y047090*
X042960Y015380D02*
Y015580D01*
Y015480*
X042360*
X042460Y015380*
X042360Y016280D02*
Y015880D01*
X042660*
X042560Y016080*
Y016180*
X042660Y016280*
X042860*
X042960Y016180*
Y015980*
X042860Y015880*
X043060Y016580D02*
X042960Y016680D01*
X042860*
Y016580*
X042960*
Y016680*
X043060Y016580*
X043160Y016480*
X042460Y017080D02*
X042360Y017180D01*
Y017380*
X042460Y017480*
X042860*
X042960Y017380*
Y017180*
X042860Y017080*
X042460*
Y017679D02*
X042360Y017779D01*
Y017979*
X042460Y018079*
X042860*
X042960Y017979*
Y017779*
X042860Y017679*
X042460*
X042910Y010459D02*
Y010659D01*
Y010559*
X042310*
X042410Y010459*
Y010959D02*
X042310Y011059D01*
Y011259*
X042410Y011359*
X042810*
X042910Y011259*
Y011059*
X042810Y010959*
X042410*
X043010Y011659D02*
X042910Y011759D01*
X042810*
Y011659*
X042910*
Y011759*
X043010Y011659*
X043110Y011559*
X042410Y012158D02*
X042310Y012258D01*
Y012458*
X042410Y012558*
X042810*
X042910Y012458*
Y012258*
X042810Y012158*
X042410*
Y012758D02*
X042310Y012858D01*
Y013058*
X042410Y013158*
X042810*
X042910Y013058*
Y012858*
X042810Y012758*
X042410*
X046660Y023204D02*
Y023604D01*
X046760*
X047160Y023204*
X047260*
X046660Y024204D02*
Y023804D01*
X046960*
X046860Y024004*
Y024104*
X046960Y024204*
X047160*
X047260Y024104*
Y023904*
X047160Y023804*
X047360Y024504D02*
X047260Y024604D01*
X047160*
Y024504*
X047260*
Y024604*
X047360Y024504*
X047460Y024404*
X046760Y025004D02*
X046660Y025104D01*
Y025304*
X046760Y025404*
X047160*
X047260Y025304*
Y025104*
X047160Y025004*
X046760*
Y025603D02*
X046660Y025703D01*
Y025903*
X046760Y026003*
X047160*
X047260Y025903*
Y025703*
X047160Y025603*
X046760*
M02*