%FSLAX24Y24*%
%MOIN*%
%SFA1B1*%

%IPPOS*%
%ADD105C,0.002000*%
%ADD106C,0.002700*%
%LNde-250624-1*%
%LPD*%
G54D105*
X37220Y28770D02*
Y28930D01*
X37380*
Y28770*
X37220*
Y29770D02*
Y29930D01*
X37380*
Y29770*
X37220*
Y30770D02*
Y30930D01*
X37380*
Y30770*
X37220*
X15813Y22670D02*
Y22830D01*
X15973*
Y22670*
X15813*
X11227D02*
Y22830D01*
X11387*
Y22670*
X11227*
X20837Y35501D02*
X20757Y35661D01*
X20917*
X20837Y35501*
Y30251D02*
X20757Y30411D01*
X20917*
X20837Y30251*
Y25002D02*
X20757Y25162D01*
X20917*
X20837Y25002*
Y19753D02*
X20757Y19913D01*
X20917*
X20837Y19753*
X11978Y12666D02*
X11898Y12826D01*
X12059*
X11978Y12666*
Y14634D02*
X11898Y14794D01*
X12059*
X11978Y14634*
X29695Y13847D02*
X29615Y14007D01*
X29775*
X29695Y13847*
X28100Y27270D02*
X28140Y27310D01*
X28180*
X28140Y27350*
X28180Y27390*
X28140*
X28100Y27430*
X28060Y27390*
X28020*
X28060Y27350*
X28020Y27310*
X28060*
X28100Y27270*
X33570Y28020D02*
X33610Y28100D01*
X33570Y28180*
X33650Y28140*
X33730Y28180*
X33690Y28100*
X33730Y28020*
X33650Y28060*
X33570Y28020*
X35220Y29420D02*
X35260Y29500D01*
X35220Y29580*
X35300Y29540*
X35380Y29580*
X35340Y29500*
X35380Y29420*
X35300Y29460*
X35220Y29420*
X30620Y30670D02*
X30660Y30750D01*
X30620Y30830*
X30700Y30790*
X30780Y30830*
X30740Y30750*
X30780Y30670*
X30700Y30710*
X30620Y30670*
X35220Y27070D02*
X35260Y27150D01*
X35220Y27230*
X35300Y27190*
X35380Y27230*
X35340Y27150*
X35380Y27070*
X35300Y27110*
X35220Y27070*
X35803Y28337D02*
X35843Y28417D01*
X35803Y28497*
X35883Y28457*
X35963Y28497*
X35923Y28417*
X35963Y28337*
X35883Y28377*
X35803Y28337*
X28709Y35511D02*
X28749Y35551D01*
X28789*
X28749Y35591*
X28789Y35631*
X28749*
X28709Y35671*
X28669Y35631*
X28629*
X28669Y35591*
X28629Y35551*
X28669*
X28709Y35511*
Y30270D02*
X28749Y30310D01*
X28789*
X28749Y30350*
X28789Y30390*
X28749*
X28709Y30430*
X28669Y30390*
X28629*
X28669Y30350*
X28629Y30310*
X28669*
X28709Y30270*
Y25020D02*
X28749Y25060D01*
X28789*
X28749Y25100*
X28789Y25140*
X28749*
X28709Y25180*
X28669Y25140*
X28629*
X28669Y25100*
X28629Y25060*
X28669*
X28709Y25020*
Y19770D02*
X28749Y19810D01*
X28789*
X28749Y19850*
X28789Y19890*
X28749*
X28709Y19930*
X28669Y19890*
X28629*
X28669Y19850*
X28629Y19810*
X28669*
X28709Y19770*
X20200Y13820D02*
X20240Y13860D01*
X20280*
X20240Y13900*
X20280Y13940*
X20240*
X20200Y13980*
X20160Y13940*
X20120*
X20160Y13900*
X20120Y13860*
X20160*
X20200Y13820*
X33622Y18248D02*
X33662Y18288D01*
X33702*
X33662Y18328*
X33702Y18368*
X33662*
X33622Y18408*
X33582Y18368*
X33542*
X33582Y18328*
X33542Y18288*
X33582*
X33622Y18248*
X32270Y31970D02*
X32310Y32050D01*
X32270Y32130*
X32350Y32090*
X32430Y32130*
X32390Y32050*
X32430Y31970*
X32350Y32010*
X32270Y31970*
Y34270D02*
X32310Y34350D01*
X32270Y34430*
X32350Y34390*
X32430Y34430*
X32390Y34350*
X32430Y34270*
X32350Y34310*
X32270Y34270*
X38020Y20620D02*
X38060Y20700D01*
X38020Y20780*
X38100Y20740*
X38180Y20780*
X38140Y20700*
X38180Y20620*
X38100Y20660*
X38020Y20620*
X37520D02*
X37560Y20700D01*
X37520Y20780*
X37600Y20740*
X37680Y20780*
X37640Y20700*
X37680Y20620*
X37600Y20660*
X37520Y20620*
X38320Y21670D02*
X38360Y21750D01*
X38320Y21830*
X38400Y21790*
X38480Y21830*
X38440Y21750*
X38480Y21670*
X38400Y21710*
X38320Y21670*
X32270Y33020D02*
X32310Y33100D01*
X32270Y33180*
X32350Y33140*
X32430Y33180*
X32390Y33100*
X32430Y33020*
X32350Y33060*
X32270Y33020*
X14070Y28220D02*
X14110Y28300D01*
X14070Y28380*
X14150Y28340*
X14230Y28380*
X14190Y28300*
X14230Y28220*
X14150Y28260*
X14070Y28220*
X32270Y32495D02*
X32310Y32575D01*
X32270Y32655*
X32350Y32615*
X32430Y32655*
X32390Y32575*
X32430Y32495*
X32350Y32535*
X32270Y32495*
X30070Y29270D02*
X30110Y29350D01*
X30070Y29430*
X30150Y29390*
X30230Y29430*
X30190Y29350*
X30230Y29270*
X30150Y29310*
X30070Y29270*
X18420Y33470D02*
X18460Y33550D01*
X18420Y33630*
X18500Y33590*
X18580Y33630*
X18540Y33550*
X18580Y33470*
X18500Y33510*
X18420Y33470*
X16520D02*
X16560Y33550D01*
X16520Y33630*
X16600Y33590*
X16680Y33630*
X16640Y33550*
X16680Y33470*
X16600Y33510*
X16520Y33470*
X32470Y21320D02*
X32510Y21400D01*
X32470Y21480*
X32550Y21440*
X32630Y21480*
X32590Y21400*
X32630Y21320*
X32550Y21360*
X32470Y21320*
Y20620D02*
X32510Y20700D01*
X32470Y20780*
X32550Y20740*
X32630Y20780*
X32590Y20700*
X32630Y20620*
X32550Y20660*
X32470Y20620*
Y19870D02*
X32510Y19950D01*
X32470Y20030*
X32550Y19990*
X32630Y20030*
X32590Y19950*
X32630Y19870*
X32550Y19910*
X32470Y19870*
X37320Y35170D02*
X37360Y35250D01*
X37320Y35330*
X37400Y35290*
X37480Y35330*
X37440Y35250*
X37480Y35170*
X37400Y35210*
X37320Y35170*
X33720Y29420D02*
X33760Y29500D01*
X33720Y29580*
X33800Y29540*
X33880Y29580*
X33840Y29500*
X33880Y29420*
X33800Y29460*
X33720Y29420*
G54D106*
X18080Y24750D02*
D01*
X18079Y24755*
X18079Y24761*
X18078Y24766*
X18076Y24772*
X18075Y24777*
X18073Y24782*
X18070Y24787*
X18067Y24792*
X18064Y24797*
X18061Y24801*
X18057Y24805*
X18053Y24809*
X18049Y24813*
X18044Y24816*
X18040Y24819*
X18035Y24821*
X18029Y24824*
X18024Y24826*
X18019Y24827*
X18013Y24828*
X18008Y24829*
X18002Y24829*
X17997*
X17991Y24829*
X17986Y24828*
X17980Y24827*
X17975Y24826*
X17970Y24824*
X17964Y24821*
X17960Y24819*
X17955Y24816*
X17950Y24813*
X17946Y24809*
X17942Y24805*
X17938Y24801*
X17935Y24797*
X17932Y24792*
X17929Y24787*
X17926Y24782*
X17924Y24777*
X17923Y24772*
X17921Y24766*
X17920Y24761*
X17920Y24755*
X17920Y24750*
X17920Y24744*
X17920Y24738*
X17921Y24733*
X17923Y24727*
X17924Y24722*
X17926Y24717*
X17929Y24712*
X17932Y24707*
X17935Y24702*
X17938Y24698*
X17942Y24694*
X17946Y24690*
X17950Y24686*
X17955Y24683*
X17960Y24680*
X17964Y24678*
X17970Y24675*
X17975Y24673*
X17980Y24672*
X17986Y24671*
X17991Y24670*
X17997Y24670*
X18002*
X18008Y24670*
X18013Y24671*
X18019Y24672*
X18024Y24673*
X18029Y24675*
X18035Y24678*
X18040Y24680*
X18044Y24683*
X18049Y24686*
X18053Y24690*
X18057Y24694*
X18061Y24698*
X18064Y24702*
X18067Y24707*
X18070Y24712*
X18073Y24717*
X18075Y24722*
X18076Y24727*
X18078Y24733*
X18079Y24738*
X18079Y24744*
X18080Y24750*
Y26750D02*
D01*
X18079Y26755*
X18079Y26761*
X18078Y26766*
X18076Y26772*
X18075Y26777*
X18073Y26782*
X18070Y26787*
X18067Y26792*
X18064Y26797*
X18061Y26801*
X18057Y26805*
X18053Y26809*
X18049Y26813*
X18044Y26816*
X18040Y26819*
X18035Y26821*
X18029Y26824*
X18024Y26826*
X18019Y26827*
X18013Y26828*
X18008Y26829*
X18002Y26829*
X17997*
X17991Y26829*
X17986Y26828*
X17980Y26827*
X17975Y26826*
X17970Y26824*
X17964Y26821*
X17960Y26819*
X17955Y26816*
X17950Y26813*
X17946Y26809*
X17942Y26805*
X17938Y26801*
X17935Y26797*
X17932Y26792*
X17929Y26787*
X17926Y26782*
X17924Y26777*
X17923Y26772*
X17921Y26766*
X17920Y26761*
X17920Y26755*
X17920Y26750*
X17920Y26744*
X17920Y26738*
X17921Y26733*
X17923Y26727*
X17924Y26722*
X17926Y26717*
X17929Y26712*
X17932Y26707*
X17935Y26702*
X17938Y26698*
X17942Y26694*
X17946Y26690*
X17950Y26686*
X17955Y26683*
X17960Y26680*
X17964Y26678*
X17970Y26675*
X17975Y26673*
X17980Y26672*
X17986Y26671*
X17991Y26670*
X17997Y26670*
X18002*
X18008Y26670*
X18013Y26671*
X18019Y26672*
X18024Y26673*
X18029Y26675*
X18035Y26678*
X18040Y26680*
X18044Y26683*
X18049Y26686*
X18053Y26690*
X18057Y26694*
X18061Y26698*
X18064Y26702*
X18067Y26707*
X18070Y26712*
X18073Y26717*
X18075Y26722*
X18076Y26727*
X18078Y26733*
X18079Y26738*
X18079Y26744*
X18080Y26750*
Y28750D02*
D01*
X18079Y28755*
X18079Y28761*
X18078Y28766*
X18076Y28772*
X18075Y28777*
X18073Y28782*
X18070Y28787*
X18067Y28792*
X18064Y28797*
X18061Y28801*
X18057Y28805*
X18053Y28809*
X18049Y28813*
X18044Y28816*
X18040Y28819*
X18035Y28821*
X18029Y28824*
X18024Y28826*
X18019Y28827*
X18013Y28828*
X18008Y28829*
X18002Y28829*
X17997*
X17991Y28829*
X17986Y28828*
X17980Y28827*
X17975Y28826*
X17970Y28824*
X17964Y28821*
X17960Y28819*
X17955Y28816*
X17950Y28813*
X17946Y28809*
X17942Y28805*
X17938Y28801*
X17935Y28797*
X17932Y28792*
X17929Y28787*
X17926Y28782*
X17924Y28777*
X17923Y28772*
X17921Y28766*
X17920Y28761*
X17920Y28755*
X17920Y28750*
X17920Y28744*
X17920Y28738*
X17921Y28733*
X17923Y28727*
X17924Y28722*
X17926Y28717*
X17929Y28712*
X17932Y28707*
X17935Y28702*
X17938Y28698*
X17942Y28694*
X17946Y28690*
X17950Y28686*
X17955Y28683*
X17960Y28680*
X17964Y28678*
X17970Y28675*
X17975Y28673*
X17980Y28672*
X17986Y28671*
X17991Y28670*
X17997Y28670*
X18002*
X18008Y28670*
X18013Y28671*
X18019Y28672*
X18024Y28673*
X18029Y28675*
X18035Y28678*
X18040Y28680*
X18044Y28683*
X18049Y28686*
X18053Y28690*
X18057Y28694*
X18061Y28698*
X18064Y28702*
X18067Y28707*
X18070Y28712*
X18073Y28717*
X18075Y28722*
X18076Y28727*
X18078Y28733*
X18079Y28738*
X18079Y28744*
X18080Y28750*
Y22784D02*
D01*
X18079Y22789*
X18079Y22795*
X18078Y22800*
X18076Y22806*
X18075Y22811*
X18073Y22816*
X18070Y22821*
X18067Y22826*
X18064Y22831*
X18061Y22835*
X18057Y22839*
X18053Y22843*
X18049Y22847*
X18044Y22850*
X18040Y22853*
X18035Y22855*
X18029Y22858*
X18024Y22860*
X18019Y22861*
X18013Y22862*
X18008Y22863*
X18002Y22863*
X17997*
X17991Y22863*
X17986Y22862*
X17980Y22861*
X17975Y22860*
X17970Y22858*
X17964Y22855*
X17960Y22853*
X17955Y22850*
X17950Y22847*
X17946Y22843*
X17942Y22839*
X17938Y22835*
X17935Y22831*
X17932Y22826*
X17929Y22821*
X17926Y22816*
X17924Y22811*
X17923Y22806*
X17921Y22800*
X17920Y22795*
X17920Y22789*
X17920Y22784*
X17920Y22778*
X17920Y22772*
X17921Y22767*
X17923Y22761*
X17924Y22756*
X17926Y22751*
X17929Y22746*
X17932Y22741*
X17935Y22736*
X17938Y22732*
X17942Y22728*
X17946Y22724*
X17950Y22720*
X17955Y22717*
X17960Y22714*
X17964Y22712*
X17970Y22709*
X17975Y22707*
X17980Y22706*
X17986Y22705*
X17991Y22704*
X17997Y22704*
X18002*
X18008Y22704*
X18013Y22705*
X18019Y22706*
X18024Y22707*
X18029Y22709*
X18035Y22712*
X18040Y22714*
X18044Y22717*
X18049Y22720*
X18053Y22724*
X18057Y22728*
X18061Y22732*
X18064Y22736*
X18067Y22741*
X18070Y22746*
X18073Y22751*
X18075Y22756*
X18076Y22761*
X18078Y22767*
X18079Y22772*
X18079Y22778*
X18080Y22784*
Y20816D02*
D01*
X18079Y20821*
X18079Y20827*
X18078Y20832*
X18076Y20838*
X18075Y20843*
X18073Y20848*
X18070Y20853*
X18067Y20858*
X18064Y20863*
X18061Y20867*
X18057Y20871*
X18053Y20875*
X18049Y20879*
X18044Y20882*
X18040Y20885*
X18035Y20887*
X18029Y20890*
X18024Y20892*
X18019Y20893*
X18013Y20894*
X18008Y20895*
X18002Y20895*
X17997*
X17991Y20895*
X17986Y20894*
X17980Y20893*
X17975Y20892*
X17970Y20890*
X17964Y20887*
X17960Y20885*
X17955Y20882*
X17950Y20879*
X17946Y20875*
X17942Y20871*
X17938Y20867*
X17935Y20863*
X17932Y20858*
X17929Y20853*
X17926Y20848*
X17924Y20843*
X17923Y20838*
X17921Y20832*
X17920Y20827*
X17920Y20821*
X17920Y20816*
X17920Y20810*
X17920Y20804*
X17921Y20799*
X17923Y20793*
X17924Y20788*
X17926Y20783*
X17929Y20778*
X17932Y20773*
X17935Y20768*
X17938Y20764*
X17942Y20760*
X17946Y20756*
X17950Y20752*
X17955Y20749*
X17960Y20746*
X17964Y20744*
X17970Y20741*
X17975Y20739*
X17980Y20738*
X17986Y20737*
X17991Y20736*
X17997Y20736*
X18002*
X18008Y20736*
X18013Y20737*
X18019Y20738*
X18024Y20739*
X18029Y20741*
X18035Y20744*
X18040Y20746*
X18044Y20749*
X18049Y20752*
X18053Y20756*
X18057Y20760*
X18061Y20764*
X18064Y20768*
X18067Y20773*
X18070Y20778*
X18073Y20783*
X18075Y20788*
X18076Y20793*
X18078Y20799*
X18079Y20804*
X18079Y20810*
X18080Y20816*
M02*